<?xml version="1.0" standalone="no"?><!DOCTYPE svg PUBLIC "-//W3C//DTD SVG 1.1//EN" "http://www.w3.org/Graphics/SVG/1.1/DTD/svg11.dtd" ><svg xmlns="http://www.w3.org/2000/svg"><metadata></metadata><defs><font id="1.001;ADBO;SourceHanSerifCN-Medium;ADOBE" horiz-adv-x="1056"><font-face font-family="Source Han Serif CN Medium" font-weight="500" font-stretch="normal" units-per-em="1000" panose-1="2 2 5 0 0 0 0 0 0 0" ascent="1151" descent="-286" x-height="0" bbox="-90 -274 1044 880" underline-thickness="50" underline-position="-125" unicode-range="U+0027-ff1a" /><missing-glyph horiz-adv-x="1000" d="M100 -120 l0 1000 l800 0 l0 -1000 l-800 0 ZM500 421 l318 409 l-636 0 l318 -409 ZM532 380 l318 -409 l0 818 l-318 -409 ZM182 -70 l636 0 l-318 409 l-318 -409 ZM150 789 l0 -818 l318 409 l-318 409 Z" /><glyph glyph-name="quotesingle" unicode="&#39;" d="M100 807 q53 0 53 -65 q0 -21 -4.5 -57 q-4.5 -36 -10 -71.5 q-5.5 -35.5 -8.5 -55.5 l-14 -85 l-33 0 l-14 85 q-2 15 -5.5 39.5 q-3.5 24.5 -7.5 52 q-4 27.5 -7 52.5 q-3 25 -3 40 q0 65 54 65 Z" /><glyph glyph-name="parenleft" unicode="(" d="M172 304 q0 -89 15 -167 q15 -78 52 -157.5 q37 -79.5 102 -171.5 l-23 -18 q-116 109 -172.5 236 q-56.5 127 -56.5 278 q0 152 56.5 279 q56.5 127 172.5 236 l23 -19 q-65 -93 -102 -172 q-37 -79 -52 -156.5 q-15 -77.5 -15 -167.5 Z" /><glyph glyph-name="parenright" unicode=")" d="M198 304 q0 90 -15 168 q-15 78 -51.5 157 q-36.5 79 -101.5 171 l23 19 q116 -109 172 -236 q56 -127 56 -279 q0 -299 -228 -514 l-23 18 q65 94 101.5 173 q36.5 79 51.5 156.5 q15 77.5 15 166.5 Z" /><glyph glyph-name="asterisk" unicode="*" d="M241 819 q15 0 26 -8.5 q11 -8.5 11 -28.5 q0 -16 -5.5 -47.5 q-5.5 -31.5 -10.5 -69.5 l-9 -56 l51 25 q42 20 73.5 36.5 q31.5 16.5 48.5 16.5 q15 0 24.5 -11 q9.5 -11 9.5 -26 q0 -29 -36 -36.5 q-36 -7.5 -106 -18.5 l-57 -9 l40 -42 q39 -39 64.5 -63.5 q25.5 -24.5 25.5 -46.5 q0 -16 -10.5 -25 q-10.5 -9 -23.5 -9 q-25 0 -43 32 q-18 32 -47 88 l-26 52 l-26 -52 q-28 -55 -45.5 -87.5 q-17.5 -32.5 -43.5 -32.5 q-13 0 -23.5 9 q-10.5 9 -10.5 25 q0 22 25.5 46.5 q25.5 24.5 63.5 63.5 l41 42 l-57 9 q-70 11 -106 18.5 q-36 7.5 -36 35.5 q0 15 9.5 26.5 q9.5 11.5 25.5 11.5 q18 0 48 -16.5 q30 -16.5 71 -36.5 l52 -26 l-9 57 q-6 38 -10.5 69.5 q-4.5 31.5 -4.5 47.5 q0 20 10.5 28.5 q10.5 8.5 25.5 8.5 Z" /><glyph glyph-name="plus" unicode="+" d="M549 388 l0 -53 l-229 0 l0 -248 l-57 0 l0 248 l-230 0 l0 53 l230 0 l0 243 l57 0 l0 -243 l229 0 Z" /><glyph glyph-name="comma" unicode="," d="M172 -37 l-42 32 q-21 15 -30.5 34.5 q-9.5 19.5 -9.5 38.5 q0 28 16.5 47.5 q16.5 19.5 47.5 19.5 q15 0 31 -6.5 q16 -6.5 34 -23.5 q7 -19 9.5 -37.5 q2.5 -18.5 2.5 -39.5 q0 -63 -29.5 -117 q-29.5 -54 -75.5 -93 q-46 -39 -96 -59 l-15 32 q58 29 98.5 69.5 q40.5 40.5 58.5 102.5 Z" /><glyph glyph-name="cid00014" unicode="-­&#x2011;" d="M44 243 l0 64 l255 0 l0 -64 l-255 0 Z" /><glyph glyph-name="period" unicode="." d="M164 -14 q-31 0 -52.5 22 q-21.5 22 -21.5 51 q0 32 21.5 54 q21.5 22 52.5 22 q32 0 53.5 -22 q21.5 -22 21.5 -54 q0 -29 -21.5 -51 q-21.5 -22 -53.5 -22 Z" /><glyph glyph-name="slash" unicode="/" d="M4 -175 l294 952 l58 0 l-292 -952 l-60 0 Z" /><glyph glyph-name="zero" unicode="0" d="M142 372 q0 -102 11 -169 q11 -67 30 -105.5 q19 -38.5 43 -54 q24 -15.5 50 -15.5 q25 0 48.5 16 q23.5 16 42 54 q18.5 38 29 105 q10.5 67 10.5 169 q0 99 -10.5 163.5 q-10.5 64.5 -29 101.5 q-18.5 37 -42 52 q-23.5 15 -48.5 15 q-26 0 -50 -15 q-24 -15 -43 -52 q-19 -37 -30 -101.5 q-11 -64.5 -11 -163.5 ZM276 748 q43 0 84 -20.5 q41 -20.5 73.5 -65 q32.5 -44.5 51.5 -116 q19 -71.5 19 -174.5 q0 -106 -19 -180 q-19 -74 -51.5 -119.5 q-32.5 -45.5 -73.5 -66 q-41 -20.5 -84 -20.5 q-44 0 -85.5 20.5 q-41.5 20.5 -74.5 66 q-33 45.5 -52 119.5 q-19 74 -19 180 q0 103 19 174.5 q19 71.5 52 116 q33 44.5 74.5 65 q41.5 20.5 85.5 20.5 Z" /><glyph glyph-name="one" unicode="1" d="M332 56 l154 -22 l0 -34 l-404 0 l0 34 l156 22 q1 44 1.5 88 q0.5 44 0.5 87 l0 430 l-146 -14 l0 38 l225 59 l15 -11 l-4 -158 l0 -344 q0 -43 0.5 -87 q0.5 -44 1.5 -88 Z" /><glyph glyph-name="two" unicode="2" d="M124 85 l380 0 l0 -85 l-450 0 l0 68 q45 50 87.5 98.5 q42.5 48.5 78.5 89.5 q80 92 118.5 159.5 q38.5 67.5 38.5 133.5 q0 71 -36 113.5 q-36 42.5 -98 42.5 q-12 0 -27 -1.5 q-15 -1.5 -32 -5.5 l-22 -80 q-10 -38 -24.5 -53.5 q-14.5 -15.5 -35.5 -15.5 q-35 0 -53 34 q8 55 39.5 91.5 q31.5 36.5 79 55 q47.5 18.5 101.5 18.5 q106 0 155 -54 q49 -54 49 -140 q0 -36 -11.5 -69 q-11.5 -33 -37 -70.5 q-25.5 -37.5 -67.5 -85 q-42 -47.5 -104 -111.5 q-22 -22 -56.5 -58 q-34.5 -36 -72.5 -75 Z" /><glyph glyph-name="three" unicode="3" d="M199 699 l-18 -64 q-9 -34 -22.5 -50 q-13.5 -16 -39.5 -16 q-17 0 -30 8.5 q-13 8.5 -21 29.5 q15 71 72 106 q57 35 133 35 q95 0 151 -49.5 q56 -49.5 56 -129.5 q0 -63 -40 -111 q-40 -48 -115 -71 q92 -16 135 -67.5 q43 -51.5 43 -125.5 q0 -60 -31 -107 q-31 -47 -86 -74 q-55 -27 -128 -27 q-82 0 -138.5 36.5 q-56.5 36.5 -71.5 115.5 q18 35 53 35 q26 0 38 -17 q12 -17 22 -55 l18 -65 q17 -4 32.5 -6 q15.5 -2 30.5 -2 q79 0 122 47 q43 47 43 121 q0 77 -42.5 121.5 q-42.5 44.5 -127.5 44.5 l-52 0 l0 49 l43 0 q74 0 117 40 q43 40 43 113 q0 68 -35.5 104.5 q-35.5 36.5 -100.5 36.5 q-11 0 -24.5 -1 q-13.5 -1 -28.5 -5 Z" /><glyph glyph-name="four" unicode="4" d="M85 292 l242 0 l0 349 l-242 -349 ZM531 292 l0 -64 l-116 0 l0 -228 l-88 0 l0 228 l-297 0 l0 53 l324 463 l61 0 l0 -452 l116 0 Z" /><glyph glyph-name="five" unicode="5" d="M166 647 l-14 -207 q52 16 111 16 q71 0 125 -27 q54 -27 84 -78 q30 -51 30 -125 q0 -71 -31.5 -125.5 q-31.5 -54.5 -89 -84.5 q-57.5 -30 -135.5 -30 q-83 0 -135 38 q-52 38 -69 114 q14 35 52 35 q24 0 36.5 -14.5 q12.5 -14.5 22.5 -54.5 l18 -66 q33 -10 69 -10 q80 0 123 51.5 q43 51.5 43 137.5 q0 87 -46.5 133.5 q-46.5 46.5 -125.5 46.5 q-25 0 -52 -3 q-27 -3 -53 -11 l-28 8 l23 342 l358 0 l0 -86 l-316 0 Z" /><glyph glyph-name="six" unicode="6" d="M140 336 l0 -22 q0 -142 38.5 -214 q38.5 -72 105.5 -72 q56 0 91.5 46 q35.5 46 35.5 138 q0 92 -35.5 134.5 q-35.5 42.5 -94.5 42.5 q-35 0 -72 -12 q-37 -12 -69 -41 ZM466 748 l6 -29 q-157 -37 -236 -123 q-79 -86 -93 -220 q70 72 163 72 q60 0 104.5 -27 q44.5 -27 69.5 -76.5 q25 -49.5 25 -116.5 q0 -77 -28.5 -131 q-28.5 -54 -79 -82.5 q-50.5 -28.5 -116.5 -28.5 q-109 0 -173 83 q-64 83 -64 231 q0 113 49 209 q49 96 143.5 159.5 q94.5 63.5 229.5 79.5 Z" /><glyph glyph-name="seven" unicode="7" d="M55 733 l445 0 l0 -54 l-259 -679 l-84 0 l-10 10 l292 637 l-384 0 l0 86 Z" /><glyph glyph-name="eight" unicode="8" d="M277 27 q60 0 96.5 38.5 q36.5 38.5 36.5 99.5 q0 34 -15 63 q-15 29 -51.5 57 q-36.5 28 -101.5 58 q-54 -34 -80 -71.5 q-26 -37.5 -26 -95.5 q0 -67 39 -108 q39 -41 102 -41 ZM155 586 q0 -31 12 -61 q12 -30 43.5 -59 q31.5 -29 88.5 -57 q49 38 68.5 76.5 q19.5 38.5 19.5 93.5 q0 33 -13 62 q-13 29 -38 46.5 q-25 17.5 -61 17.5 q-48 0 -84 -32 q-36 -32 -36 -87 ZM333 393 q85 -41 125 -90 q40 -49 40 -123 q0 -58 -29 -101.5 q-29 -43.5 -79.5 -68 q-50.5 -24.5 -115.5 -24.5 q-100 0 -162.5 46.5 q-62.5 46.5 -62.5 133.5 q0 63 40 110 q40 47 119 84 q-72 40 -104 91 q-32 51 -32 115 q0 56 27.5 97 q27.5 41 74 63 q46.5 22 103.5 22 q87 0 137.5 -48.5 q50.5 -48.5 50.5 -122.5 q0 -43 -27.5 -91.5 q-27.5 -48.5 -104.5 -92.5 Z" /><glyph glyph-name="nine" unicode="9" d="M277 351 q71 0 120 45 q1 13 1.5 26 q0.5 13 0.5 26 q0 134 -38 195.5 q-38 61.5 -99 61.5 q-55 0 -94.5 -45.5 q-39.5 -45.5 -39.5 -134.5 q0 -89 43 -131.5 q43 -42.5 106 -42.5 ZM95 -20 l-8 34 q141 48 213.5 131.5 q72.5 83.5 91.5 202.5 q-58 -55 -146 -55 q-58 0 -106.5 26.5 q-48.5 26.5 -77 76.5 q-28.5 50 -28.5 118 q0 71 29.5 123.5 q29.5 52.5 82 81.5 q52.5 29 120.5 29 q71 0 122.5 -36 q51.5 -36 79 -101.5 q27.5 -65.5 27.5 -154.5 q0 -109 -41.5 -205 q-41.5 -96 -129.5 -166.5 q-88 -70.5 -229 -104.5 Z" /><glyph glyph-name="colon" unicode=":" d="M164 390 q-31 0 -52.5 22 q-21.5 22 -21.5 51 q0 32 21.5 54 q21.5 22 52.5 22 q32 0 53.5 -22 q21.5 -22 21.5 -54 q0 -29 -21.5 -51 q-21.5 -22 -53.5 -22 ZM164 -14 q-31 0 -52.5 22 q-21.5 22 -21.5 51 q0 32 21.5 54 q21.5 22 52.5 22 q32 0 53.5 -22 q21.5 -22 21.5 -54 q0 -29 -21.5 -51 q-21.5 -22 -53.5 -22 Z" /><glyph glyph-name="semicolon" unicode=";" d="M164 390 q-31 0 -52.5 22 q-21.5 22 -21.5 51 q0 32 21.5 54 q21.5 22 52.5 22 q32 0 53.5 -22 q21.5 -22 21.5 -54 q0 -29 -21.5 -51 q-21.5 -22 -53.5 -22 ZM172 -37 l-42 32 q-21 15 -30.5 34.5 q-9.5 19.5 -9.5 38.5 q0 28 16.5 47.5 q16.5 19.5 47.5 19.5 q15 0 31 -6.5 q16 -6.5 34 -23.5 q7 -19 9.5 -37.5 q2.5 -18.5 2.5 -39.5 q0 -63 -29.5 -117 q-29.5 -54 -75.5 -93 q-46 -39 -96 -59 l-15 32 q58 29 98.5 69.5 q40.5 40.5 58.5 102.5 Z" /><glyph glyph-name="equal" unicode="=" d="M549 224 l-516 0 l0 53 l516 0 l0 -53 ZM549 446 l-516 0 l0 52 l516 0 l0 -52 Z" /><glyph glyph-name="at" unicode="@" d="M518 164 l51 270 q-15 20 -31.5 28.5 q-16.5 8.5 -34.5 8.5 q-25 0 -55 -15.5 q-30 -15.5 -56 -51.5 q-26 -36 -44.5 -83.5 q-18.5 -47.5 -18.5 -106.5 q0 -108 76 -108 q23 0 49 12.5 q26 12.5 64 45.5 ZM657 502 l-64 -320 q-18 -91 59 -91 q39 0 79 29 q40 29 67 90.5 q27 61.5 27 156.5 q0 94 -41 162.5 q-41 68.5 -110.5 106 q-69.5 37.5 -157.5 37.5 q-94 0 -171.5 -36 q-77.5 -36 -134 -98 q-56.5 -62 -87 -141 q-30.5 -79 -30.5 -166 q0 -91 29 -160 q29 -69 79 -114.5 q50 -45.5 115 -68.5 q65 -23 137 -23 q55 0 98 10 q43 10 83 28 l11 -27 q-49 -24 -103.5 -35.5 q-54.5 -11.5 -106.5 -11.5 q-82 0 -154 24.5 q-72 24.5 -126.5 74 q-54.5 49.5 -85 123 q-30.5 73.5 -30.5 171.5 q0 102 36.5 190.5 q36.5 88.5 102 155 q65.5 66.5 153 104 q87.5 37.5 190.5 37.5 q112 0 191 -45 q79 -45 121.5 -124.5 q42.5 -79.5 42.5 -183.5 q0 -81 -23.5 -139.5 q-23.5 -58.5 -61 -96 q-37.5 -37.5 -79 -55.5 q-41.5 -18 -77.5 -18 q-49 0 -77 25.5 q-28 25.5 -35 62.5 q-34 -39 -71.5 -63.5 q-37.5 -24.5 -79.5 -24.5 q-30 0 -57 15 q-27 15 -43.5 46.5 q-16.5 31.5 -16.5 82.5 q0 68 26.5 128 q26.5 60 63.5 104 q36 44 78 68 q42 24 85 24 q20 0 37.5 -6.5 q17.5 -6.5 34.5 -23.5 l59 30 l18 -14 Z" /><glyph glyph-name="A" unicode="a" d="M222 286 l226 0 l-114 340 l-112 -340 ZM630 48 l86 -10 l0 -38 l-298 0 l0 38 l108 13 l-64 192 l-254 0 l-63 -191 l107 -14 l0 -38 l-244 0 l0 38 l89 14 l233 686 l64 0 l236 -690 Z" /><glyph glyph-name="B" unicode="b" d="M255 44 l72 0 q103 0 155 40 q52 40 52 115 q0 79 -52 118.5 q-52 39.5 -166 39.5 l-63 0 q0 -85 0.5 -162 q0.5 -77 1.5 -151 ZM332 690 l-77 0 q-1 -70 -1.5 -142.5 q-0.5 -72.5 -0.5 -145.5 l58 0 q99 0 145.5 36.5 q46.5 36.5 46.5 112.5 q0 74 -42.5 106.5 q-42.5 32.5 -128.5 32.5 ZM49 733 l313 0 q117 0 178 -50 q61 -50 61 -128 q0 -57 -40.5 -105 q-40.5 -48 -133.5 -67 q112 -16 161.5 -65.5 q49.5 -49.5 49.5 -117.5 q0 -50 -29 -96 q-29 -46 -92.5 -75 q-63.5 -29 -168.5 -29 l-299 0 l0 38 l102 11 q2 73 2 146.5 q0 73.5 0 146.5 l0 53 q0 73 0 145 q0 72 -2 144 l-102 11 l0 38 Z" /><glyph glyph-name="C" unicode="c" d="M586 198 l60 0 l-2 -161 q-51 -28 -105.5 -40.5 q-54.5 -12.5 -113.5 -12.5 q-110 0 -194 48.5 q-84 48.5 -131 134.5 q-47 86 -47 200 q0 84 28 154 q28 70 78 121.5 q50 51.5 118 79.5 q68 28 148 28 q47 0 101 -11 q54 -11 108 -43 l2 -161 l-60 0 l-27 140 q-28 14 -56 20.5 q-28 6.5 -56 6.5 q-75 0 -136.5 -38.5 q-61.5 -38.5 -98 -113 q-36.5 -74.5 -36.5 -183.5 q0 -109 34 -184 q34 -75 94.5 -113 q60.5 -38 138.5 -38 q31 0 63 6 q32 6 63 21 l27 139 Z" /><glyph glyph-name="D" unicode="d" d="M255 44 l86 0 q131 0 200 85 q69 85 69 237 q0 158 -67.5 241 q-67.5 83 -192.5 83 l-95 0 q-1 -73 -1.5 -147.5 q-0.5 -74.5 -0.5 -150.5 l0 -38 q0 -83 0.5 -159.5 q0.5 -76.5 1.5 -150.5 ZM49 733 l319 0 q107 0 187 -42.5 q80 -42.5 124.5 -124.5 q44.5 -82 44.5 -200 q0 -117 -48.5 -199 q-48.5 -82 -133.5 -124.5 q-85 -42.5 -194 -42.5 l-299 0 l0 38 l102 11 q2 72 2 147 q0 75 0 158 l0 38 q0 74 0 147 q0 73 -2 145 l-102 11 l0 38 Z" /><glyph glyph-name="E" unicode="e" d="M565 195 l54 0 l-6 -195 l-564 0 l0 38 l102 11 q2 72 2 144.5 q0 72.5 0 145.5 l0 54 q0 74 0 146.5 q0 72.5 -2 144.5 l-102 11 l0 38 l543 0 l6 -193 l-54 0 l-29 145 l-260 0 q-1 -71 -1.5 -143.5 q-0.5 -72.5 -0.5 -146.5 l165 0 l16 108 l45 0 l0 -258 l-45 0 l-15 106 l-166 0 q0 -81 0.5 -155.5 q0.5 -74.5 1.5 -147.5 l281 0 l29 147 Z" /><glyph glyph-name="F" unicode="f" d="M516 685 l-261 0 q-1 -71 -1.5 -143.5 q-0.5 -72.5 -0.5 -146.5 l173 0 l14 108 l46 0 l0 -266 l-46 0 l-14 114 l-173 0 q0 -80 0.5 -154.5 q0.5 -74.5 1.5 -146.5 l104 -12 l0 -38 l-310 0 l0 38 l102 11 q2 72 2 144.5 q0 72.5 0 145.5 l0 54 q0 74 0 146.5 q0 72.5 -2 144.5 l-102 11 l0 38 l544 0 l6 -193 l-54 0 l-29 145 Z" /><glyph glyph-name="G" unicode="g" d="M730 349 l0 -38 l-66 -6 q-3 -100 -3 -208 l0 -49 q-57 -30 -114 -47 q-57 -17 -124 -17 q-110 0 -193.5 49 q-83.5 49 -130 135.5 q-46.5 86.5 -46.5 198.5 q0 83 27 153 q27 70 77 121.5 q50 51.5 118.5 80 q68.5 28.5 150.5 28.5 q69 0 121.5 -13 q52.5 -13 97.5 -41 l2 -162 l-59 0 l-27 136 q-55 32 -124 32 q-78 0 -139.5 -39.5 q-61.5 -39.5 -96.5 -114 q-35 -74.5 -35 -181.5 q0 -105 33.5 -180 q33.5 -75 95 -115 q61.5 -40 145.5 -40 q63 0 123 22 l0 43 q0 51 -0.5 102.5 q-0.5 51.5 -1.5 102.5 l-116 9 l0 38 l285 0 Z" /><glyph glyph-name="H" unicode="h" d="M814 695 l-102 -11 q-1 -71 -1.5 -144 q-0.5 -73 -0.5 -147 l0 -54 q0 -72 0.5 -144.5 q0.5 -72.5 1.5 -145.5 l102 -11 l0 -38 l-307 0 l0 38 l101 11 q2 71 2 145.5 q0 74.5 0 159.5 l-357 0 q0 -84 0.5 -159 q0.5 -75 1.5 -146 l101 -11 l0 -38 l-307 0 l0 38 l102 11 q2 72 2 144.5 q0 72.5 0 145.5 l0 54 q0 74 0 146.5 q0 72.5 -2 144.5 l-102 11 l0 38 l307 0 l0 -38 l-101 -11 q-1 -70 -1.5 -142 q-0.5 -72 -0.5 -145 l357 0 q0 72 0 144 q0 72 -2 143 l-101 11 l0 38 l307 0 l0 -38 Z" /><glyph glyph-name="I" unicode="i" d="M357 695 l-102 -11 q-1 -71 -1.5 -144 q-0.5 -73 -0.5 -147 l0 -54 q0 -72 0.5 -144.5 q0.5 -72.5 1.5 -144.5 l102 -12 l0 -38 l-308 0 l0 38 l102 11 q2 72 2 144.5 q0 72.5 0 145.5 l0 54 q0 74 0 146.5 q0 72.5 -2 144.5 l-102 11 l0 38 l308 0 l0 -38 Z" /><glyph glyph-name="J" unicode="j" d="M371 733 l0 -38 l-102 -11 q-1 -71 -1.5 -143.5 q-0.5 -72.5 -0.5 -146.5 l0 -168 q0 -60 -1 -102 q-1 -42 -4.5 -72.5 q-3.5 -30.5 -9.5 -58.5 q-11 -55 -42 -93 q-31 -38 -74 -57 q-43 -19 -90 -19 q-31 0 -58 10.5 q-27 10.5 -36 39.5 q5 29 23 41 q18 12 43 12 q20 0 38 -7.5 q18 -7.5 40 -25.5 l29 -25 q25 22 37 58 q12 36 12 94 q0 19 -0.5 46.5 q-0.5 27.5 -1.5 73 q-1 45.5 -2 116 q-1 70.5 -2 175 q-1 104.5 -3 252.5 l-112 11 l0 38 l318 0 Z" /><glyph glyph-name="K" unicode="k" d="M645 48 l85 -10 l0 -38 l-281 0 l0 38 l91 11 l-181 336 l-109 -131 q0 -46 0.5 -97.5 q0.5 -51.5 1.5 -106.5 l103 -12 l0 -38 l-306 0 l0 38 l102 11 q2 72 2 144.5 q0 72.5 0 145.5 l0 54 q0 74 0 146.5 q0 72.5 -2 144.5 l-102 11 l0 38 l307 0 l0 -38 l-104 -11 q-1 -71 -1.5 -144 q-0.5 -73 -0.5 -147 l0 -75 l294 362 l-87 15 l0 38 l251 0 l0 -38 l-104 -13 l-186 -226 l227 -408 Z" /><glyph glyph-name="L" unicode="l" d="M543 206 l57 0 l-8 -206 l-543 0 l0 38 l102 11 q2 73 2 145 q0 72 0 142 l0 57 q0 74 0 147 q0 73 -2 144 l-102 11 l0 38 l309 0 l0 -38 l-103 -11 q-1 -72 -1.5 -144.5 q-0.5 -72.5 -0.5 -145.5 l0 -73 q0 -62 0.5 -132 q0.5 -70 1.5 -142 l252 0 l36 159 Z" /><glyph glyph-name="M" unicode="m" d="M937 695 l-102 -11 q-1 -71 -1.5 -144 q-0.5 -73 -0.5 -147 l0 -54 q0 -72 0.5 -144.5 q0.5 -72.5 1.5 -145.5 l101 -11 l0 -38 l-298 0 l0 38 l95 11 q2 71 2 143 q0 72 0 144 l1 294 l-247 -630 l-47 0 l-256 628 q1 -36 2 -75 q1 -39 2 -73.5 q1 -34.5 1.5 -56.5 q0.5 -22 0.5 -24 l0 -347 l95 -14 l0 -38 l-245 0 l0 38 l99 14 l1 631 l-100 12 l0 38 l200 0 l247 -608 l237 608 l211 0 l0 -38 Z" /><glyph glyph-name="N" unicode="n" d="M761 733 l0 -38 l-92 -13 l-1 -689 l-39 0 l-447 614 l2 -554 l117 -15 l0 -38 l-259 0 l0 38 l92 13 l2 620 l-11 14 l-78 10 l0 38 l169 0 l405 -560 l-2 508 l-117 14 l0 38 l259 0 Z" /><glyph glyph-name="O" unicode="o" d="M166 367 q0 -65 13 -125 q13 -60 40.5 -107.5 q27.5 -47.5 69.5 -75.5 q42 -28 99 -28 q57 0 98.5 28 q41.5 28 68 75.5 q26.5 47.5 39.5 107.5 q13 60 13 125 q0 65 -13 125 q-13 60 -39.5 107 q-26.5 47 -68 75 q-41.5 28 -98.5 28 q-57 0 -99 -28 q-42 -28 -69.5 -75 q-27.5 -47 -40.5 -107 q-13 -60 -13 -125 ZM388 750 q64 0 123.5 -25 q59.5 -25 107 -74 q47.5 -49 75 -120 q27.5 -71 27.5 -164 q0 -90 -27.5 -161 q-27.5 -71 -74.5 -120.5 q-47 -49.5 -106.5 -75.5 q-59.5 -26 -124.5 -26 q-65 0 -125 25 q-60 25 -107.5 73.5 q-47.5 48.5 -75 120 q-27.5 71.5 -27.5 164.5 q0 90 28 161 q28 71 75 120.5 q47 49.5 107.5 75.5 q60.5 26 124.5 26 Z" /><glyph glyph-name="P" unicode="p" d="M325 690 l-70 0 q-1 -73 -1.5 -147.5 q-0.5 -74.5 -0.5 -149.5 l0 -56 l70 0 q103 0 147.5 50 q44.5 50 44.5 129 q0 83 -46 128.5 q-46 45.5 -144 45.5 ZM311 293 l-58 0 q0 -61 0.5 -121 q0.5 -60 1.5 -122 l104 -12 l0 -38 l-310 0 l0 38 l102 11 q2 72 2 144.5 q0 72.5 0 145.5 l0 54 q0 74 0 146.5 q0 72.5 -2 144.5 l-102 11 l0 38 l294 0 q138 0 206.5 -59.5 q68.5 -59.5 68.5 -157.5 q0 -61 -30.5 -111.5 q-30.5 -50.5 -98 -81 q-67.5 -30.5 -178.5 -30.5 Z" /><glyph glyph-name="R" unicode="r" d="M253 384 l89 0 q88 0 131.5 45 q43.5 45 43.5 113 q0 71 -40.5 109.5 q-40.5 38.5 -126.5 38.5 l-95 0 q-1 -73 -1.5 -147 q-0.5 -74 -0.5 -159 ZM614 46 l85 -8 l0 -38 q-33 -11 -83 -11 q-51 0 -76.5 16 q-25.5 16 -34.5 54 l-45 174 q-11 45 -28.5 68.5 q-17.5 23.5 -46 32 q-28.5 8.5 -74.5 8.5 l-58 0 q0 -76 0.5 -148.5 q0.5 -72.5 1.5 -143.5 l102 -12 l0 -38 l-308 0 l0 38 l102 11 q2 72 2 144.5 q0 72.5 0 145.5 l0 54 q0 74 0 146.5 q0 72.5 -2 144.5 l-102 11 l0 38 l307 0 q125 0 194.5 -50.5 q69.5 -50.5 69.5 -141.5 q0 -64 -47 -116 q-47 -52 -141 -69 q52 -11 82 -43 q30 -32 49 -95 l51 -172 Z" /><glyph glyph-name="S" unicode="s" d="M274 431 l44 -17 q73 -29 117 -60.5 q44 -31.5 63.5 -70.5 q19.5 -39 19.5 -91 q0 -65 -33 -111.5 q-33 -46.5 -91 -71.5 q-58 -25 -134 -25 q-62 0 -118.5 17 q-56.5 17 -94.5 41 l7 154 l56 0 l28 -137 q26 -14 53 -20.5 q27 -6.5 62 -6.5 q80 0 127.5 35 q47.5 35 47.5 102 q0 53 -32 84 q-32 31 -106 60 l-41 17 q-85 35 -137 86 q-52 51 -52 133 q0 64 32 108.5 q32 44.5 87.5 68.5 q55.5 24 124.5 24 q56 0 100 -16 q44 -16 80 -42 l-7 -143 l-57 0 l-28 131 q-21 12 -42 17 q-21 5 -47 5 q-66 0 -109.5 -32.5 q-43.5 -32.5 -43.5 -95.5 q0 -52 32.5 -86 q32.5 -34 91.5 -57 Z" /><glyph glyph-name="T" unicode="t" d="M555 685 l-172 0 q-1 -72 -1.5 -145 q-0.5 -73 -0.5 -147 l0 -54 q0 -72 0.5 -144.5 q0.5 -72.5 1.5 -144.5 l113 -12 l0 -38 l-330 0 l0 38 l113 12 q2 71 2 143.5 q0 72.5 0 145.5 l0 54 q0 74 0 147 q0 73 -2 145 l-172 0 l-30 -147 l-55 0 l9 195 l601 0 l7 -195 l-53 0 l-31 147 Z" /><glyph glyph-name="U" unicode="u" d="M760 733 l0 -38 l-98 -13 l-1 -385 q0 -112 -33 -181 q-33 -69 -90.5 -100.5 q-57.5 -31.5 -133.5 -31.5 q-79 0 -139.5 30 q-60.5 30 -94 95.5 q-33.5 65.5 -33.5 169.5 l0 115 q0 73 0 146 q0 73 -1 145 l-92 10 l0 38 l306 0 l0 -38 l-111 -12 q-1 -71 -1.5 -143 q-0.5 -72 -0.5 -146 l0 -90 q0 -94 22.5 -148.5 q22.5 -54.5 64.5 -77.5 q42 -23 98 -23 q96 0 144 60.5 q48 60.5 48 207.5 l-1 357 l-115 15 l0 38 l262 0 Z" /><glyph glyph-name="V" unicode="v" d="M724 733 l0 -37 l-95 -13 l-230 -690 l-46 0 l-256 693 l-83 9 l0 38 l297 0 l0 -42 l-107 -9 l192 -551 l178 550 l-101 10 l0 42 l251 0 Z" /><glyph glyph-name="W" unicode="w" d="M1044 733 l0 -38 l-94 -12 l-186 -690 l-46 0 l-189 580 l-181 -580 l-45 0 l-198 692 l-90 10 l0 38 l295 0 l0 -38 l-103 -12 l142 -526 l169 526 l-110 12 l0 38 l294 0 l0 -38 l-112 -13 l167 -528 l141 527 l-103 14 l0 38 l249 0 Z" /><glyph glyph-name="X" unicode="x" d="M602 49 l94 -11 l0 -38 l-306 0 l0 38 l102 11 l-157 268 l-163 -265 l91 -15 l0 -37 l-248 0 l0 38 l103 15 l194 302 l-194 330 l-96 10 l0 38 l309 0 l0 -38 l-103 -11 l145 -246 l149 243 l-97 14 l0 38 l250 0 l0 -38 l-99 -13 l-181 -282 l207 -351 Z" /><glyph glyph-name="Y" unicode="y" d="M587 682 l-190 -392 q0 -70 0.5 -128 q0.5 -58 1.5 -112 l113 -12 l0 -38 l-329 0 l0 38 l113 12 q2 53 2 109.5 q0 56.5 0 126.5 l-197 400 l-83 9 l0 38 l304 0 l0 -38 l-107 -11 l160 -345 l162 343 l-103 13 l0 38 l248 0 l0 -38 l-95 -13 Z" /><glyph glyph-name="Z" unicode="z" d="M522 198 l58 0 l-7 -198 l-550 0 l0 37 l422 648 l-317 0 l-34 -147 l-59 0 l10 195 l513 0 l0 -38 l-421 -648 l350 0 l35 151 Z" /><glyph glyph-name="bracketleft" unicode="[" d="M315 744 l-124 -14 q-1 -72 -1.5 -146 q-0.5 -74 -0.5 -148 l0 -263 q0 -73 0.5 -146.5 q0.5 -73.5 1.5 -147.5 l124 -14 l0 -39 l-205 0 q2 85 2.5 172 q0.5 87 0.5 175 l0 263 q0 86 -0.5 173.5 q-0.5 87.5 -2.5 173.5 l205 0 l0 -39 Z" /><glyph glyph-name="bracketright" unicode="]" d="M237 436 l0 -263 q0 -86 0.5 -173.5 q0.5 -87.5 2.5 -173.5 l-206 0 l0 39 l124 14 q2 72 2 146 q0 74 0 148 l0 263 q0 73 0 147 q0 74 -2 147 l-124 14 l0 39 l206 0 q-2 -85 -2.5 -172 q-0.5 -87 -0.5 -175 Z" /><glyph glyph-name="a" unicode="a" d="M357 114 l0 174 q-29 -8 -56 -17 q-27 -9 -45 -16 q-48 -18 -72 -38.5 q-24 -20.5 -32.5 -41 q-8.5 -20.5 -8.5 -40.5 q0 -44 25.5 -64.5 q25.5 -20.5 63.5 -20.5 q29 0 54 14 q25 14 71 50 ZM531 65 l20 -21 q-19 -31 -42 -43.5 q-23 -12.5 -52 -12.5 q-40 0 -65.5 23 q-25.5 23 -32.5 63 q-45 -44 -79.5 -66 q-34.5 -22 -84.5 -22 q-60 0 -102.5 34 q-42.5 34 -42.5 100 q0 34 15.5 62 q15.5 28 55 53.5 q39.5 25.5 110.5 50.5 q26 10 59.5 19.5 q33.5 9.5 66.5 16.5 l0 34 q0 81 -24.5 108.5 q-24.5 27.5 -80.5 27.5 q-27 0 -62 -9 l-21 -75 q-13 -51 -55 -51 q-44 0 -49 42 q14 63 70.5 99 q56.5 36 141.5 36 q86 0 128 -43 q42 -43 42 -145 l0 -238 q0 -39 10.5 -54.5 q10.5 -15.5 29.5 -15.5 q14 0 24 7 q10 7 20 20 Z" /><glyph glyph-name="b" unicode="b" d="M209 416 l0 -314 q34 -32 67.5 -46 q33.5 -14 64.5 -14 q39 0 73 22 q34 22 54.5 69.5 q20.5 47.5 20.5 123.5 q0 110 -40.5 166 q-40.5 56 -103.5 56 q-25 0 -58 -11 q-33 -11 -78 -52 ZM207 646 l0 -194 q39 43 82.5 62.5 q43.5 19.5 86.5 19.5 q59 0 106.5 -32 q47.5 -32 75 -92 q27.5 -60 27.5 -145 q0 -82 -28.5 -145 q-28.5 -63 -79 -98.5 q-50.5 -35.5 -116.5 -35.5 q-37 0 -77 16 q-40 16 -77 62 l-9 -75 l-163 11 l0 34 l82 12 q1 42 1.5 94 q0.5 52 0.5 90 l0 492 l-89 9 l0 33 l166 46 l14 -8 l-3 -156 Z" /><glyph glyph-name="c" unicode="c" d="M474 130 l22 -10 q-24 -64 -75 -99 q-51 -35 -128 -35 q-74 0 -129.5 33 q-55.5 33 -86.5 94.5 q-31 61.5 -31 144.5 q0 87 36.5 148.5 q36.5 61.5 95 94.5 q58.5 33 124.5 33 q49 0 89.5 -18 q40.5 -18 68 -49.5 q27.5 -31.5 34.5 -72.5 q-9 -40 -48 -40 q-26 0 -39.5 14 q-13.5 14 -18.5 37 l-21 77 q-16 5 -31 7.5 q-15 2.5 -28 2.5 q-75 0 -121.5 -58.5 q-46.5 -58.5 -46.5 -165.5 q0 -106 51 -163.5 q51 -57.5 130 -57.5 q47 0 87 22 q40 22 66 61 Z" /><glyph glyph-name="d" unicode="d" d="M425 104 l0 317 q-37 33 -66.5 45.5 q-29.5 12.5 -57.5 12.5 q-42 0 -77.5 -22.5 q-35.5 -22.5 -57 -71 q-21.5 -48.5 -21.5 -127.5 q0 -114 44 -165 q44 -51 111 -51 q36 0 65 13.5 q29 13.5 60 48.5 ZM515 44 l89 -10 l0 -34 l-170 -11 l-6 75 q-29 -37 -66.5 -57.5 q-37.5 -20.5 -87.5 -20.5 q-67 0 -117.5 34 q-50.5 34 -79 94.5 q-28.5 60.5 -28.5 140.5 q0 85 30.5 147.5 q30.5 62.5 83.5 97 q53 34.5 120 34.5 q38 0 74 -15 q36 -15 70 -56 l0 260 l-92 8 l0 33 l169 46 l14 -8 l-3 -156 l0 -602 Z" /><glyph glyph-name="e" unicode="e" d="M146 306 l211 -2 q36 0 47.5 17 q11.5 17 11.5 44 q0 34 -15.5 63 q-15.5 29 -42.5 46.5 q-27 17.5 -63 17.5 q-33 0 -65.5 -19.5 q-32.5 -19.5 -55 -60.5 q-22.5 -41 -28.5 -106 ZM497 264 l-352 1 q2 -109 52 -163.5 q50 -54.5 130 -54.5 q54 0 89.5 22 q35.5 22 64.5 57 l22 -15 q-30 -58 -82 -91.5 q-52 -33.5 -125 -33.5 q-73 0 -129 32 q-56 32 -87 92.5 q-31 60.5 -31 145.5 q0 85 34.5 147 q34.5 62 92 96.5 q57.5 34.5 124.5 34.5 q59 0 105.5 -25.5 q46.5 -25.5 73 -72 q26.5 -46.5 26.5 -111.5 q0 -37 -8 -61 Z" /><glyph glyph-name="f" unicode="f" d="M37 510 l92 12 q8 88 26 141.5 q18 53.5 53 90.5 q35 38 75 52.5 q40 14.5 77 14.5 q38 0 67 -13.5 q29 -13.5 37 -44.5 q-1 -20 -17.5 -34 q-16.5 -14 -44.5 -14 q-40 0 -78 36 l-30 26 q-25 -16 -40 -41 q-18 -31 -29 -82 q-11 -51 -8 -135 l152 0 l0 -48 l-150 0 l0 -241 q0 -46 0.5 -91.5 q0.5 -45.5 1.5 -91.5 l100 -13 l0 -34 l-283 0 l0 34 l88 12 q3 93 3 184 l0 241 l-92 0 l0 39 Z" /><glyph glyph-name="g" unicode="g" d="M260 211 q53 0 83 41 q30 41 30 105 q0 62 -28.5 100.5 q-28.5 38.5 -80.5 38.5 q-52 0 -82.5 -39.5 q-30.5 -39.5 -30.5 -102.5 q0 -64 29 -103.5 q29 -39.5 80 -39.5 ZM349 -15 l-126 0 q-16 0 -29.5 0.5 q-13.5 0.5 -24.5 1.5 q-24 -24 -34.5 -47 q-10.5 -23 -10.5 -52 q0 -55 39.5 -80.5 q39.5 -25.5 103.5 -25.5 q94 0 142 33 q48 33 48 82 q0 37 -24.5 62.5 q-24.5 25.5 -83.5 25.5 ZM542 522 l0 -65 l-111 3 q14 -21 21.5 -47 q7.5 -26 7.5 -58 q0 -57 -25.5 -97.5 q-25.5 -40.5 -70 -62 q-44.5 -21.5 -101.5 -21.5 q-47 0 -87 14 q-15 -19 -22.5 -35.5 q-7.5 -16.5 -7.5 -36.5 q0 -24 14.5 -37.5 q14.5 -13.5 55.5 -13.5 l145 0 q90 0 133 -37 q43 -37 43 -102 q0 -47 -30 -90.5 q-30 -43.5 -90 -70.5 q-60 -27 -150 -27 q-119 0 -173.5 38 q-54.5 38 -54.5 97 q0 35 24 64 q24 29 82 57 q-34 11 -52.5 32 q-18.5 21 -18.5 53 q0 26 17 54.5 q17 28.5 58 66.5 q-39 22 -61.5 61 q-22.5 39 -22.5 94 q0 86 56 132.5 q56 46.5 142 46.5 q42 0 77.5 -10.5 q35.5 -10.5 60.5 -32.5 l125 42 l16 -11 Z" /><glyph glyph-name="h" unicode="h" d="M550 46 l76 -12 l0 -34 l-252 0 l0 34 l82 12 q1 41 1.5 92.5 q0.5 51.5 0.5 91.5 l0 102 q0 76 -22.5 104.5 q-22.5 28.5 -69.5 28.5 q-37 0 -74.5 -16 q-37.5 -16 -82.5 -57 l0 -162 q0 -38 0.5 -90 q0.5 -52 1.5 -94 l76 -12 l0 -34 l-252 0 l0 34 l82 12 q1 42 1.5 94 q0.5 52 0.5 90 l0 493 l-89 8 l0 33 l166 46 l14 -8 l-3 -156 l0 -215 q41 47 94 75 q53 28 106 28 q70 0 105.5 -46.5 q35.5 -46.5 35.5 -153.5 l0 -104 q0 -40 0.5 -91.5 q0.5 -51.5 1.5 -92.5 Z" /><glyph glyph-name="i" unicode="i" d="M168 659 q-30 0 -50.5 19.5 q-20.5 19.5 -20.5 48.5 q0 30 20.5 48.5 q20.5 18.5 50.5 18.5 q29 0 49.5 -18.5 q20.5 -18.5 20.5 -48.5 q0 -29 -20.5 -48.5 q-20.5 -19.5 -49.5 -19.5 ZM216 46 l75 -12 l0 -34 l-252 0 l0 34 l84 12 q1 42 1.5 94 q0.5 52 0.5 90 l0 58 q0 46 -0.5 77.5 q-0.5 31.5 -2.5 67.5 l-89 8 l0 33 l168 59 l15 -10 l-2 -146 l0 -147 q0 -38 0.5 -90 q0.5 -52 1.5 -94 Z" /><glyph glyph-name="j" unicode="j" d="M33 474 l165 59 l14 -10 l-3 -146 l0 -265 q0 -92 -4.5 -152 q-4.5 -60 -17.5 -99.5 q-13 -39.5 -41 -70.5 q-27 -31 -58.5 -47 q-31.5 -16 -78.5 -16 q-50 0 -73.5 19.5 q-23.5 19.5 -25.5 39.5 q14 44 64 44 q39 0 79 -33 l26 -21 q11 11 20 30 q14 35 19 108 q5 73 5 196 l0 177 q0 46 -1 79 q-1 33 -3 67 l-86 8 l0 33 ZM166 794 q29 0 50 -18.5 q21 -18.5 21 -48.5 q0 -29 -21 -48.5 q-21 -19.5 -50 -19.5 q-29 0 -49.5 19.5 q-20.5 19.5 -20.5 48.5 q0 30 20.5 48.5 q20.5 18.5 49.5 18.5 Z" /><glyph glyph-name="k" unicode="k" d="M530 44 l71 -10 l0 -34 l-149 0 l-170 279 l-73 -74 q0 -39 0.5 -80 q0.5 -41 1.5 -79 l86 -12 l0 -34 l-266 0 l0 34 l86 12 q1 45 1.5 92.5 q0.5 47.5 0.5 91.5 l0 493 l-89 8 l0 33 l169 46 l15 -8 l-5 -156 l0 -385 l198 204 l-86 18 l0 36 l252 0 l0 -36 l-102 -14 l-126 -127 l185 -298 Z" /><glyph glyph-name="l" unicode="l" d="M211 46 l88 -12 l0 -34 l-269 0 l0 34 l87 12 q1 45 1.5 92 q0.5 47 0.5 92 l0 493 l-89 8 l0 33 l169 46 l15 -8 l-5 -156 l0 -416 q0 -45 0.5 -92 q0.5 -47 1.5 -92 Z" /><glyph glyph-name="m" unicode="m" d="M876 46 l77 -12 l0 -34 l-251 0 l0 34 l81 12 q1 41 1.5 92.5 q0.5 51.5 0.5 91.5 l0 103 q0 77 -22.5 104 q-22.5 27 -69.5 27 q-34 0 -70 -16.5 q-36 -16.5 -80 -56.5 q3 -25 3 -56 l0 -105 q0 -40 1 -91.5 q1 -51.5 2 -92.5 l75 -12 l0 -34 l-252 0 l0 34 l83 12 q1 41 1.5 92.5 q0.5 51.5 0.5 91.5 l0 101 q0 75 -21.5 104 q-21.5 29 -68.5 29 q-37 0 -72 -17 q-35 -17 -77 -55 l0 -162 q0 -38 0.5 -90 q0.5 -52 1.5 -94 l76 -12 l0 -34 l-252 0 l0 34 l81 12 q1 42 1.5 94 q0.5 52 0.5 90 l0 57 q0 47 -0.5 79 q-0.5 32 -2.5 65 l-87 9 l0 33 l154 60 l15 -10 l9 -89 q41 46 91 73 q50 27 100 27 q51 0 83.5 -24.5 q32.5 -24.5 46.5 -78.5 q44 53 95 78 q51 25 103 25 q67 0 103.5 -44.5 q36.5 -44.5 36.5 -145.5 l0 -114 q0 -40 0.5 -91.5 q0.5 -51.5 1.5 -92.5 Z" /><glyph glyph-name="n" unicode="n" d="M554 46 l77 -12 l0 -34 l-252 0 l0 34 l81 12 q1 41 1.5 92.5 q0.5 51.5 0.5 91.5 l0 102 q0 74 -21.5 103.5 q-21.5 29.5 -69.5 29.5 q-37 0 -73.5 -17 q-36.5 -17 -79.5 -56 l0 -162 q0 -38 0.5 -90 q0.5 -52 1.5 -94 l76 -12 l0 -34 l-252 0 l0 34 l81 12 q1 42 1.5 94 q0.5 52 0.5 90 l0 57 q0 47 -0.5 79 q-0.5 32 -2.5 65 l-87 9 l0 33 l154 60 l15 -10 l9 -90 q42 47 94 74 q52 27 103 27 q70 0 105 -46.5 q35 -46.5 35 -152.5 l0 -105 q0 -40 0.5 -91.5 q0.5 -51.5 1.5 -92.5 Z" /><glyph glyph-name="o" unicode="o" d="M300 -14 q-64 0 -121.5 30.5 q-57.5 30.5 -93.5 91 q-36 60.5 -36 150.5 q0 91 36 152 q36 61 93.5 92.5 q57.5 31.5 121.5 31.5 q64 0 121.5 -31 q57.5 -31 94 -92.5 q36.5 -61.5 36.5 -152.5 q0 -90 -36.5 -150.5 q-36.5 -60.5 -94 -91 q-57.5 -30.5 -121.5 -30.5 ZM300 28 q71 0 111 58.5 q40 58.5 40 171.5 q0 114 -40 174 q-40 60 -111 60 q-72 0 -111.5 -60 q-39.5 -60 -39.5 -174 q0 -113 39.5 -171.5 q39.5 -58.5 111.5 -58.5 Z" /><glyph glyph-name="p" unicode="p" d="M219 419 l0 -323 q32 -29 62 -41.5 q30 -12.5 61 -12.5 q42 0 76.5 22 q34.5 22 55 69 q20.5 47 20.5 122 q0 110 -39.5 167 q-39.5 57 -101.5 57 q-25 0 -57.5 -11 q-32.5 -11 -76.5 -49 ZM207 523 l7 -70 q39 43 81.5 62 q42.5 19 85.5 19 q59 0 106 -32.5 q47 -32.5 74.5 -93.5 q27.5 -61 27.5 -145 q0 -85 -29.5 -147 q-29.5 -62 -80 -96 q-50.5 -34 -114.5 -34 q-37 0 -75.5 15 q-38.5 15 -73.5 58 l0 -87 q0 -45 0.5 -92 q0.5 -47 1.5 -94 l100 -15 l0 -33 l-280 0 l0 33 l89 14 q1 47 1.5 93.5 q0.5 46.5 0.5 90.5 l0 318 q0 46 -0.5 78.5 q-0.5 32.5 -2.5 65.5 l-88 9 l0 33 l154 60 l15 -10 Z" /><glyph glyph-name="q" unicode="q" d="M428 107 l0 310 q-38 35 -68.5 48.5 q-30.5 13.5 -59.5 13.5 q-42 0 -77.5 -23 q-35.5 -23 -56.5 -72 q-21 -49 -21 -128 q0 -114 44 -164 q44 -50 111 -50 q35 0 65 14 q30 14 63 51 ZM520 -215 l88 -14 l0 -33 l-278 0 l0 33 l98 14 q1 47 1.5 93 q0.5 46 0.5 91 l0 100 q-64 -83 -158 -83 q-66 0 -116.5 33.5 q-50.5 33.5 -78.5 94 q-28 60.5 -28 140.5 q0 84 30 147 q30 63 82.5 98 q52.5 35 117.5 35 q40 0 79 -17 q39 -17 74 -61 l75 77 l14 -10 l-3 -149 l0 -405 q0 -46 0.5 -92 q0.5 -46 1.5 -92 Z" /><glyph glyph-name="r" unicode="r" d="M206 523 l11 -132 q27 68 70.5 105.5 q43.5 37.5 89.5 37.5 q26 0 47.5 -10.5 q21.5 -10.5 31.5 -30.5 q0 -34 -14.5 -54.5 q-14.5 -20.5 -47.5 -20.5 q-19 0 -35.5 8.5 q-16.5 8.5 -32.5 22.5 l-13 12 q-64 -47 -95 -145 l0 -86 q0 -38 0.5 -89.5 q0.5 -51.5 1.5 -93.5 l91 -13 l0 -34 l-266 0 l0 34 l80 12 q1 41 1.5 93.5 q0.5 52.5 0.5 90.5 l0 57 q0 47 -0.5 79 q-0.5 32 -2.5 65 l-87 9 l0 33 l154 60 l15 -10 Z" /><glyph glyph-name="s" unicode="s" d="M245 314 l38 -14 q81 -28 115.5 -67 q34.5 -39 34.5 -91 q0 -42 -24 -77.5 q-24 -35.5 -71 -57 q-47 -21.5 -117 -21.5 q-47 0 -85.5 10.5 q-38.5 10.5 -79.5 30.5 l-2 120 l52 0 l24 -101 q39 -18 90 -18 q65 0 95.5 24.5 q30.5 24.5 30.5 63.5 q0 36 -24 58 q-24 22 -78 42 l-51 17 q-61 23 -97.5 57.5 q-36.5 34.5 -36.5 90.5 q0 41 22 75.5 q22 34.5 65 56 q43 21.5 104 21.5 q44 0 80.5 -11.5 q36.5 -11.5 72.5 -33.5 l-4 -111 l-49 0 l-21 93 q-40 20 -79 20 q-52 0 -79.5 -22 q-27.5 -22 -27.5 -58 q0 -37 23.5 -57 q23.5 -20 78.5 -40 Z" /><glyph glyph-name="t" unicode="t" d="M332 67 l22 -25 q-21 -26 -53 -41 q-32 -15 -74 -15 q-58 0 -91 31 q-33 31 -33 97 q0 20 0.5 40 q0.5 20 0.5 51 l0 266 l-93 0 l0 39 l98 12 l29 148 l63 0 l-6 -151 l147 0 l0 -48 l-148 0 l0 -353 q0 -43 17 -62.5 q17 -19.5 46 -19.5 q20 0 36.5 7.5 q16.5 7.5 38.5 23.5 Z" /><glyph glyph-name="u" unicode="u" d="M529 45 l75 -12 l0 -33 l-152 -9 l-10 99 q-42 -52 -92.5 -78 q-50.5 -26 -102.5 -26 q-67 0 -105.5 44.5 q-38.5 44.5 -37.5 153.5 l3 279 l-79 16 l0 32 l161 16 l11 -11 l-5 -155 l0 -172 q0 -73 23 -102.5 q23 -29.5 68 -29.5 q81 0 153 72 l3 333 l-78 15 l0 33 l158 17 l10 -11 l-3 -155 l0 -316 Z" /><glyph glyph-name="v" unicode="v" d="M543 519 l0 -36 l-62 -14 l-179 -476 l-45 0 l-197 481 l-62 9 l0 36 l262 0 l0 -36 l-95 -11 l139 -369 l127 366 l-90 14 l0 36 l202 0 Z" /><glyph glyph-name="w" unicode="w" d="M829 519 l0 -36 l-62 -13 l-160 -477 l-39 0 q-43 112 -70.5 186 q-27.5 74 -44.5 124.5 q-17 50.5 -30 89.5 l-146 -400 l-39 0 l-176 480 l-63 10 l0 36 l248 0 l0 -36 l-86 -12 l119 -357 l127 356 l-84 13 l0 36 l238 0 l0 -36 l-84 -14 l132 -351 l106 351 l-86 14 l0 36 l200 0 Z" /><glyph glyph-name="x" unicode="x" d="M487 45 l76 -11 l0 -34 l-263 0 l0 34 l83 12 l-117 169 l-127 -168 l85 -13 l0 -34 l-214 0 l0 34 l70 11 l162 204 l-152 223 l-71 11 l0 36 l243 0 l0 -36 l-71 -12 l113 -162 l121 161 l-76 13 l0 36 l202 0 l0 -36 l-64 -11 l-160 -197 l160 -230 Z" /><glyph glyph-name="y" unicode="y" d="M561 519 l0 -34 l-61 -10 l-184 -486 q-53 -141 -106.5 -201.5 q-53.5 -60.5 -113.5 -60.5 q-39 0 -68.5 19 q-29.5 19 -29.5 50 q5 23 25.5 34 q20.5 11 44.5 11 q23 0 40.5 -10 q17.5 -10 39.5 -30 l8 -8 q37 29 62 71.5 q25 42.5 44 91.5 l5 12 l-204 509 l-62 8 l0 34 l260 0 l0 -34 l-95 -10 l144 -390 l138 389 l-99 11 l0 34 l212 0 Z" /><glyph glyph-name="z" unicode="z" d="M423 176 l49 0 l-11 -176 l-426 0 l0 35 l317 444 l-231 0 l-32 -124 l-48 4 l8 160 l407 0 l0 -34 l-315 -444 l247 0 l35 135 Z" /><glyph glyph-name="braceleft" unicode="{" d="M344 745 l-31 -4 q-59 -5 -83.5 -24.5 q-24.5 -19.5 -24.5 -69.5 q0 -41 6.5 -80 q6.5 -39 13 -72 q6.5 -33 6.5 -57 q0 -51 -24.5 -86.5 q-24.5 -35.5 -83.5 -46.5 q59 -11 83.5 -47 q24.5 -36 24.5 -87 q0 -24 -6.5 -57 q-6.5 -33 -13 -71.5 q-6.5 -38.5 -6.5 -80.5 q0 -49 24.5 -69 q24.5 -20 83.5 -25 l31 -4 l0 -38 l-47 0 q-82 0 -125.5 34 q-43.5 34 -43.5 99 q0 45 12 85 q12 40 23.5 75 q11.5 35 11.5 64 q0 41 -30 68 q-30 27 -101 34 l0 39 q71 8 101 34.5 q30 26.5 30 67.5 q0 30 -11.5 64.5 q-11.5 34.5 -23.5 74.5 q-12 40 -12 84 q0 66 43.5 100 q43.5 34 125.5 34 l47 0 l0 -38 Z" /><glyph glyph-name="bar" unicode="|" d="M108 -274 l0 1095 l58 0 l0 -1095 l-58 0 Z" /><glyph glyph-name="braceright" unicode="}" d="M333 324 l0 -39 q-70 -7 -101 -34 q-31 -27 -31 -68 q0 -29 12 -64 q12 -35 24 -75 q12 -40 12 -85 q0 -65 -44 -99 q-44 -34 -125 -34 l-47 0 l0 38 l31 4 q59 5 83.5 25 q24.5 20 24.5 69 q0 42 -6.5 80.5 q-6.5 38.5 -13 71.5 q-6.5 33 -6.5 57 q0 51 24.5 87 q24.5 36 83.5 47 q-59 11 -83.5 46.5 q-24.5 35.5 -24.5 86.5 q0 24 6.5 57 q6.5 33 13 72 q6.5 39 6.5 80 q0 50 -24.5 69.5 q-24.5 19.5 -83.5 24.5 l-31 4 l0 38 l47 0 q81 0 125 -34 q44 -34 44 -100 q0 -44 -12 -84 q-12 -40 -24 -74.5 q-12 -34.5 -12 -64.5 q0 -41 31 -67.5 q31 -26.5 101 -34.5 Z" /><glyph glyph-name="cid01397" unicode="&#x3001;" d="M37 159 l11 15 q93 -25 146 -60 q53 -35 78 -73 q13 -19 18 -34.5 q5 -15.5 5 -32.5 q0 -24 -13 -38 q-13 -14 -35 -14 q-32 0 -53 44 q-22 47 -56 95.5 q-34 48.5 -101 97.5 Z" /><glyph glyph-name="cid01398" unicode="&#x3002;" d="M183 -82 q-39 0 -71 19 q-32 19 -51 51 q-19 32 -19 71 q0 39 19 71 q19 32 51 50.5 q32 18.5 71 18.5 q39 0 71 -18.5 q32 -18.5 50.5 -50.5 q18.5 -32 18.5 -71 q0 -39 -18.5 -71 q-18.5 -32 -50.5 -51 q-32 -19 -71 -19 ZM183 165 q-44 0 -75.5 -31 q-31.5 -31 -31.5 -75 q0 -29 14.5 -53.5 q14.5 -24.5 39 -39 q24.5 -14.5 53.5 -14.5 q29 0 53 14.5 q24 14.5 38.5 39 q14.5 24.5 14.5 53.5 q0 44 -31 75 q-31 31 -75 31 Z" /><glyph glyph-name="cid01406" unicode="&#x300a;" d="M564 380 l258 -450 l-29 -18 l-269 468 l269 468 l29 -18 l-258 -450 ZM707 380 l257 -450 l-29 -18 l-268 468 l268 468 l29 -18 l-257 -450 Z" /><glyph glyph-name="cid01407" unicode="&#x300b;" d="M207 -88 l-29 18 l258 450 l-258 450 l29 18 l269 -468 l-269 -468 ZM65 -88 l-29 18 l257 450 l-257 450 l29 18 l268 -468 l-268 -468 Z" /><glyph glyph-name="cid01408" unicode="&#x300c;" d="M655 198 l0 647 l310 0 l0 -36 l-272 0 l0 -611 l-38 0 Z" /><glyph glyph-name="cid01409" unicode="&#x300d;" d="M345 562 l0 -647 l-310 0 l0 36 l272 0 l0 611 l38 0 Z" /><glyph glyph-name="cid09502" unicode="&#x2f00;&#x4e00;" d="M44 428 l723 0 l69 93 q0 0 12.5 -10.5 q12.5 -10.5 32.5 -27.5 q20 -17 41.5 -36 q21.5 -19 39.5 -36 q-2 -9 -10.5 -12.5 q-8.5 -3.5 -20.5 -3.5 l-877 0 l-10 33 Z" /><glyph glyph-name="cid09514" unicode="&#x4e0a;" d="M800 1 l57 72 q0 0 18 -14 q18 -14 43 -34 q25 -20 44 -38 q-4 -16 -27 -16 l-887 0 l-9 30 l388 0 l0 830 l122 -13 q-2 -11 -9.5 -18.5 q-7.5 -7.5 -26.5 -10.5 l0 -327 l211 0 l57 73 q0 0 18 -14 q18 -14 42 -33.5 q24 -19.5 43 -37.5 q-4 -16 -27 -16 l-344 0 l0 -433 l287 0 Z" /><glyph glyph-name="cid09519" unicode="&#x4e0d;" d="M926 721 l-329 0 q-16 -38 -36 -76.5 q-20 -38.5 -44 -75.5 l53 -20 q-5 -15 -31 -19 l0 -590 q0 -4 -21.5 -13 q-21.5 -9 -44.5 -9 l-15 0 l0 561 q-82 -112 -188 -210 q-106 -98 -229 -171 l-11 12 q77 59 147.5 131.5 q70.5 72.5 131 153 q60.5 80.5 107 163.5 q46.5 83 74.5 163 l-436 0 l-9 30 l744 0 l58 72 q0 0 18 -14 q18 -14 43.5 -34 q25.5 -20 45.5 -38 q-4 -16 -28 -16 ZM584 462 l9 10 q107 -35 177.5 -74.5 q70.5 -39.5 111.5 -78 q41 -38.5 57.5 -72 q16.5 -33.5 13.5 -56 q-3 -22.5 -20.5 -30 q-17.5 -7.5 -43.5 5.5 q-19 36 -54 76.5 q-35 40.5 -78.5 80 q-43.5 39.5 -88.5 75.5 q-45 36 -84 63 Z" /><glyph glyph-name="cid09521" unicode="&#x4e0e;" d="M542 247 l54 68 q0 0 17 -13 q17 -13 40 -32 q23 -19 42 -37 q-4 -16 -27 -16 l-617 0 l-8 30 l499 0 ZM777 656 l55 69 q0 0 17.5 -13 q17.5 -13 42 -32 q24.5 -19 43.5 -37 q-4 -16 -29 -16 l-591 0 q-7 -45 -14 -90 q-7 -45 -15 -82 l479 0 l47 47 l87 -73 q-6 -6 -16 -10 q-10 -4 -27 -6 q-8 -111 -23.5 -205 q-15.5 -94 -37.5 -158.5 q-22 -64.5 -51 -89.5 q-48 -42 -133 -42 q0 19 -5 34.5 q-5 15.5 -19 23.5 q-14 11 -49 21 q-35 10 -73 16 l1 16 q28 -3 64.5 -6 q36.5 -3 68 -5.5 q31.5 -2.5 44.5 -2.5 q27 0 45 14 q20 16 36.5 72.5 q16.5 56.5 29.5 141 q13 84.5 21 182.5 l-486 0 l-36 -39 l-84 57 q7 5 17.5 11 q10.5 6 20.5 10 q8 39 16.5 90 q8.5 51 16.5 105.5 q8 54.5 14 102.5 q6 48 8 81 l114 -27 q-3 -9 -11.5 -15.5 q-8.5 -6.5 -26.5 -5.5 q-3 -28 -8 -64 q-5 -36 -11 -75 l458 0 Z" /><glyph glyph-name="cid09530" unicode="&#x4e13;" d="M806 485 l54 70 q0 0 17 -13.5 q17 -13.5 40 -33 q23 -19.5 41 -36.5 q-3 -16 -27 -16 l-512 0 q-13 -40 -24 -78 q-11 -38 -22 -70 l313 0 l51 49 l86 -83 q-10 -10 -42 -11 q-27 -28 -65.5 -61.5 q-38.5 -33.5 -80.5 -67 q-42 -33.5 -82 -61.5 q59 -31 88.5 -62.5 q29.5 -31.5 34.5 -56.5 q5 -25 -9 -38 q-14 -13 -43 -7 q-28 33 -74 67.5 q-46 34.5 -101 66.5 q-55 32 -111 58.5 q-56 26.5 -104 43.5 l6 14 q96 -12 167.5 -31.5 q71.5 -19.5 122.5 -43.5 q26 29 53 63 q27 34 52.5 68.5 q25.5 34.5 44.5 63.5 l-308 0 l-39 -41 l-85 63 q8 6 19.5 12 q11.5 6 22.5 10 q10 28 21.5 62 q11.5 34 23.5 71 l-285 0 l-9 29 l303 0 q13 43 26 87.5 q13 44.5 25 87.5 l-288 0 l-8 30 l303 0 q12 47 22 87.5 q10 40.5 16 70.5 l115 -36 q-4 -8 -13.5 -14.5 q-9.5 -6.5 -27.5 -4.5 q-5 -22 -11.5 -48 q-6.5 -26 -14.5 -55 l236 0 l52 65 q0 0 16 -12.5 q16 -12.5 38 -31 q22 -18.5 40 -35.5 q-4 -16 -26 -16 l-364 0 q-12 -41 -25 -86 q-13 -45 -27 -89 l378 0 Z" /><glyph glyph-name="cid09539" unicode="&#x4e1a;" d="M100 615 l16 6 q80 -82 124 -157.5 q44 -75.5 59.5 -137 q15.5 -61.5 10 -101 q-5.5 -39.5 -25.5 -50.5 q-20 -11 -46 14 q-2 67 -23.5 143 q-21.5 76 -52.5 150 q-31 74 -62 133 ZM814 9 l56 75 q0 0 17.5 -14.5 q17.5 -14.5 41.5 -35 q24 -20.5 43 -38.5 q-4 -16 -28 -16 l-890 0 l-9 29 l306 0 l0 816 l111 -11 q-1 -10 -8 -17 q-7 -7 -24 -9 l0 -779 l152 0 l0 815 l111 -11 q-1 -10 -8 -17 q-7 -7 -24 -9 l0 -570 q30 66 60 138.5 q30 72.5 56.5 143 q26.5 70.5 45.5 130.5 l115 -55 q-10 -19 -40 -13 q-25 -53 -63.5 -120.5 q-38.5 -67.5 -83 -138.5 q-44.5 -71 -90.5 -134 l0 -159 l153 0 Z" /><glyph glyph-name="cid09559" unicode="&#x4e2a;" d="M454 557 l122 -12 q-1 -10 -9 -17.5 q-8 -7.5 -28 -10.5 l0 -573 q0 -7 -22.5 -17 q-22.5 -10 -46.5 -10 l-16 0 l0 640 ZM511 774 q-43 -76 -114 -157 q-71 -81 -162 -153 q-91 -72 -196 -122 l-7 14 q67 45 130 103 q63 58 117 123 q54 65 95 131.5 q41 66.5 64 127.5 l133 -35 q-3 -9 -12 -14 q-9 -5 -31 -7 q48 -69 115 -132 q67 -63 150 -114.5 q83 -51.5 175 -87.5 l-2 -15 q-27 -9 -43.5 -29.5 q-16.5 -20.5 -24.5 -45.5 q-130 74 -229.5 180 q-99.5 106 -157.5 233 Z" /><glyph glyph-name="cid09562" unicode="&#x4e2d;" d="M539 334 l272 0 l0 266 l-272 0 l0 -266 ZM184 334 l272 0 l0 266 l-272 0 l0 -266 ZM845 675 l92 -70 q-11 -15 -42 -21 l0 -338 q0 -3 -12 -9 q-12 -6 -28 -10.5 q-16 -4.5 -30 -4.5 l-14 0 l0 83 l-272 0 l0 -354 q0 -8 -22 -20 q-22 -12 -45 -12 l-16 0 l0 386 l-272 0 l0 -68 q0 -6 -21.5 -17 q-21.5 -11 -47.5 -11 l-13 0 l0 459 l90 -39 l264 0 l0 213 l120 -13 q-2 -10 -9.5 -18 q-7.5 -8 -27.5 -11 l0 -171 l262 0 l44 46 Z" /><glyph glyph-name="cid09580" unicode="&#x4e3a;" d="M164 797 l11 7 q75 -24 114.5 -56.5 q39.5 -32.5 51.5 -64 q12 -31.5 4 -54.5 q-8 -23 -28.5 -29 q-20.5 -6 -45.5 13 q-5 31 -22.5 64.5 q-17.5 33.5 -40 65 q-22.5 31.5 -44.5 54.5 ZM863 613 l88 -76 q-6 -6 -16 -10 q-10 -4 -27 -6 q-5 -142 -16 -257 q-11 -115 -29 -191 q-18 -76 -45 -103 q-24 -25 -57.5 -35.5 q-33.5 -10.5 -78.5 -10.5 q0 17 -4.5 31.5 q-4.5 14.5 -17.5 22.5 q-15 11 -51.5 21 q-36.5 10 -74.5 15 l1 18 q28 -3 64 -6.5 q36 -3.5 67 -6 q31 -2.5 44 -2.5 q17 0 26 3 q9 3 18 11 q15 13 26 57 q11 44 20 112 q9 68 15.5 153 q6.5 85 10.5 180 l-299 0 q-12 -83 -40 -165 q-28 -82 -80.5 -160 q-52.5 -78 -138.5 -149.5 q-86 -71.5 -215 -133.5 l-12 16 q106 65 178 136 q72 71 117 146 q45 75 69.5 153 q24.5 78 35.5 157 l-365 0 l-9 29 l378 0 q8 69 9 138.5 q1 69.5 1 139.5 l125 -13 q-1 -10 -8.5 -18 q-7.5 -8 -26.5 -10 q-1 -58 -3.5 -117.5 q-2.5 -59.5 -10.5 -119.5 l284 0 l48 51 ZM531 412 l11 7 q74 -34 111.5 -73.5 q37.5 -39.5 47.5 -75 q10 -35.5 0.5 -60 q-9.5 -24.5 -31 -30 q-21.5 -5.5 -46.5 16.5 q-2 36 -16 75 q-14 39 -34.5 75.5 q-20.5 36.5 -42.5 64.5 Z" /><glyph glyph-name="cid09581" unicode="&#x4e3b;" d="M339 830 l8 9 q92 -14 145.5 -42 q53.5 -28 76 -59.5 q22.5 -31.5 20.5 -57.5 q-2 -26 -21.5 -37 q-19.5 -11 -48.5 4 q-15 33 -45 67 q-30 34 -66 64.5 q-36 30.5 -69 51.5 ZM801 -8 l56 72 q0 0 18 -13.5 q18 -13.5 43 -33.5 q25 -20 45 -38 q-4 -16 -27 -16 l-887 0 l-9 29 l416 0 l0 297 l-300 0 l-7 29 l307 0 l0 256 l-340 0 l-9 30 l652 0 l56 70 q0 0 17.5 -13.5 q17.5 -13.5 42 -33 q24.5 -19.5 44.5 -37.5 q-4 -16 -27 -16 l-350 0 l0 -256 l179 0 l54 69 q0 0 17.5 -13.5 q17.5 -13.5 41 -32.5 q23.5 -19 42.5 -36 q-3 -16 -27 -16 l-307 0 l0 -297 l259 0 Z" /><glyph glyph-name="cid09602" unicode="&#x4e48;" d="M408 845 l125 -57 q-4 -9 -14.5 -14 q-10.5 -5 -27.5 -2 q-84 -155 -194.5 -272.5 q-110.5 -117.5 -233.5 -191.5 l-12 11 q64 58 130 140.5 q66 82.5 125 181.5 q59 99 102 204 ZM636 287 l12 8 q107 -59 168 -119 q61 -60 85.5 -112 q24.5 -52 21 -87 q-3.5 -35 -25.5 -46 q-22 -11 -53 12 q-7 29 -21 59.5 q-14 30.5 -31 62.5 q-105 -18 -254.5 -40.5 q-149.5 -22.5 -331.5 -47.5 q-12 -16 -27 -21 l-37 109 q0 0 15.5 4 q15.5 4 23.5 11 q38 33 82 81.5 q44 48.5 89.5 106 q45.5 57.5 87 117.5 q41.5 60 75 115.5 q33.5 55.5 53.5 100.5 l118 -67 q-4 -7 -14.5 -12 q-10.5 -5 -27.5 -1 q-32 -50 -80 -109.5 q-48 -59.5 -105.5 -122 q-57.5 -62.5 -119 -121 q-61.5 -58.5 -120.5 -106.5 q62 2 150 6 q88 4 192.5 9.5 q104.5 5.5 216.5 11.5 q-31 53 -69 105.5 q-38 52.5 -73 92.5 Z" /><glyph glyph-name="cid09635" unicode="&#x4e60;" d="M840 794 l88 -77 q-12 -14 -44 -18 q-9 -300 -30 -487.5 q-21 -187.5 -65 -237.5 q-50 -56 -137 -56 q0 21 -4.5 37 q-4.5 16 -16.5 25 q-13 12 -45.5 21.5 q-32.5 9.5 -67.5 16.5 l2 17 q25 -2 57 -5.5 q32 -3.5 60 -5.5 q28 -2 40 -2 q17 0 25.5 3.5 q8.5 3.5 18.5 12.5 q23 20 38.5 105 q15.5 85 25.5 217 q-109 -50 -258 -114 q-149 -64 -348 -141 q-6 -20 -22 -27 l-54 105 q42 10 113 29.5 q71 19.5 162 46.5 q91 27 195 59.5 q104 32.5 213 66.5 q5 71 9 153.5 q4 82.5 7 173.5 l-682 0 l-9 30 l680 0 l49 52 ZM186 620 l8 12 q122 -18 199.5 -49 q77.5 -31 117 -65 q39.5 -34 49 -63.5 q9.5 -29.5 -5.5 -46 q-15 -16.5 -46 -9.5 q-24 27 -62.5 57.5 q-38.5 30.5 -83.5 61 q-45 30.5 -91 57 q-46 26.5 -85 45.5 Z" /><glyph glyph-name="cid09687" unicode="&#x4e86;&#xf9ba;" d="M827 808 l90 -81 q-7 -6 -17.5 -8 q-10.5 -2 -27.5 -3 q-39 -27 -89 -59 q-50 -32 -104 -62.5 q-54 -30.5 -108 -55.5 l6 -1 q-2 -10 -9.5 -17 q-7.5 -7 -24.5 -9 l0 -478 q0 -32 -9 -55.5 q-9 -23.5 -39 -37.5 q-30 -14 -92 -20 q-3 20 -9.5 34 q-6.5 14 -21.5 24 q-15 11 -42 18.5 q-27 7.5 -74 13.5 l0 15 q0 0 23 -1.5 q23 -1.5 54.5 -3.5 q31.5 -2 60 -3.5 q28.5 -1.5 38.5 -1.5 q27 0 27 23 l0 511 l80 -8 q39 28 78.5 60.5 q39.5 32.5 75.5 65.5 q36 33 63 60 l-638 0 l-9 28 l662 0 l56 52 Z" /><glyph glyph-name="cid09689" unicode="&#x4e88;" d="M879 508 l89 -86 q-11 -11 -42 -12 q-27 -31 -69 -68 q-42 -37 -87.5 -72 q-45.5 -35 -85.5 -60 l-11 8 q25 28 52.5 64 q27.5 36 53.5 74.5 q26 38.5 44 71.5 l-282 0 l0 -396 q0 -31 -9.5 -55 q-9.5 -24 -38.5 -39 q-29 -15 -89 -20 q-3 40 -29 59 q-14 10 -40 18 q-26 8 -73 14 l0 14 q0 0 22 -1.5 q22 -1.5 52.5 -3 q30.5 -1.5 57.5 -3 q27 -1.5 37 -1.5 q27 0 27 21 l0 393 l-411 0 l-9 28 l507 0 q-16 26 -49 60 q-33 34 -81.5 68.5 q-48.5 34.5 -109.5 63.5 l6 14 q68 -10 118.5 -26 q50.5 -16 85.5 -34 q44 29 94.5 65.5 q50.5 36.5 87.5 68.5 l-535 0 l-8 29 l562 0 l54 50 l87 -84 q-11 -9 -44 -10 q-32 -22 -79.5 -46 q-47.5 -24 -99.5 -46 q-52 -22 -99 -39 q42 -26 59 -53 q17 -27 16 -48.5 q-1 -21.5 -15 -32.5 l231 0 l53 52 Z" /><glyph glyph-name="cid09695" unicode="&#x4e8e;" d="M795 452 l58 74 q0 0 18.5 -14 q18.5 -14 43.5 -34 q25 -20 45 -38 q-4 -16 -27 -16 l-387 0 l0 -387 q0 -31 -9 -56 q-9 -25 -37.5 -40.5 q-28.5 -15.5 -87.5 -20.5 q-1 20 -7.5 35 q-6.5 15 -19.5 25 q-15 11 -39.5 19 q-24.5 8 -68.5 13 l0 15 q0 0 20.5 -1.5 q20.5 -1.5 49 -3 q28.5 -1.5 54 -3 q25.5 -1.5 35.5 -1.5 q15 0 20.5 5 q5.5 5 5.5 18 l0 383 l-412 0 l-9 28 l421 0 l0 270 l-337 0 l-8 28 l612 0 l57 72 q0 0 17.5 -14 q17.5 -14 42.5 -33.5 q25 -19.5 45 -36.5 q-4 -16 -27 -16 l-318 0 l0 -270 l249 0 Z" /><glyph glyph-name="cid09703" unicode="&#x4e92;" d="M314 242 l320 0 l34 275 l-303 0 q-12 -73 -25.5 -145.5 q-13.5 -72.5 -25.5 -129.5 ZM805 -2 l57 72 q0 0 18 -13.5 q18 -13.5 43 -33.5 q25 -20 45 -38 q-4 -16 -27 -16 l-893 0 l-8 29 l565 0 l27 214 l-314 0 l-36 -40 l-87 58 q8 6 18 11.5 q10 5.5 20 9.5 q11 47 23.5 110 q12.5 63 23.5 130 q11 67 20 128 q9 61 13 105 l-235 0 l-9 29 l696 0 l58 71 q0 0 18 -13.5 q18 -13.5 42.5 -33 q24.5 -19.5 44.5 -37.5 q-4 -16 -28 -16 l-502 0 q-5 -36 -12.5 -82 q-7.5 -46 -15.5 -96 l292 0 l41 47 l86 -73 q-11 -11 -38 -14 l-59 -508 l113 0 Z" /><glyph glyph-name="cid09714" unicode="&#x4e9b;" d="M77 264 l-44 94 q36 3 92 12 l0 350 l103 -11 q-1 -9 -8 -15.5 q-7 -6.5 -24 -8.5 l0 -305 q23 4 47.5 7.5 q24.5 3.5 49.5 7.5 l0 445 l113 -11 q-1 -10 -9 -17.5 q-8 -7.5 -28 -10.5 l0 -170 l47 0 l44 62 q0 0 14 -12.5 q14 -12.5 33.5 -30 q19.5 -17.5 34.5 -33.5 q-4 -16 -27 -16 l-146 0 l0 -193 q40 6 81 13 q41 7 83 14 l3 -16 q-75 -25 -181.5 -57.5 q-106.5 -32.5 -253.5 -73.5 q-4 -10 -10.5 -16 q-6.5 -6 -13.5 -8 ZM196 197 l-8 30 l510 0 l51 64 q0 0 16.5 -12.5 q16.5 -12.5 38.5 -30.5 q22 -18 40 -35 q-3 -16 -27 -16 l-621 0 ZM793 -20 l54 69 q0 0 17 -13.5 q17 -13.5 40 -32.5 q23 -19 42 -36 q-4 -15 -27 -15 l-849 0 l-8 28 l731 0 ZM924 534 l3 -123 q18 -7 24.5 -14.5 q6.5 -7.5 6.5 -18.5 q0 -17 -15.5 -28 q-15.5 -11 -57 -16 q-41.5 -5 -120.5 -5 l-103 0 q-64 0 -84 16.5 q-20 16.5 -20 61.5 l0 433 l109 -12 q-2 -21 -31 -25 l0 -194 q58 27 113.5 62 q55.5 35 86.5 63 l91 -66 q-11 -14 -50 -4 q-43 -21 -108 -43.5 q-65 -22.5 -133 -37.5 l0 -158 q0 -13 7 -18 q7 -5 34 -5 l93 0 q31 0 54 0 q23 0 32 1 q15 1 22 12 q6 11 15 45 q9 34 19 74 l12 0 Z" /><glyph glyph-name="cid09734" unicode="&#x4ea4;" d="M377 835 l9 8 q73 -13 112.5 -38.5 q39.5 -25.5 52.5 -54 q13 -28.5 6 -50.5 q-7 -22 -27 -29.5 q-20 -7.5 -46 8.5 q-6 27 -23.5 56 q-17.5 29 -39.5 55.5 q-22 26.5 -44 44.5 ZM931 630 l-874 0 l-8 30 l759 0 l53 76 q0 0 17 -15 q17 -15 39.5 -35.5 q22.5 -20.5 40.5 -39.5 q-3 -16 -27 -16 ZM601 588 l8 10 q106 -28 168 -66.5 q62 -38.5 89 -76.5 q27 -38 27 -67.5 q0 -29.5 -19 -41.5 q-19 -12 -49 4 q-18 41 -55 85 q-37 44 -82 84.5 q-45 40.5 -87 68.5 ZM88 318 l-9 13 q50 36 94.5 83.5 q44.5 47.5 79 99 q34.5 51.5 54.5 96.5 l111 -55 q-4 -7 -12 -10.5 q-8 -3.5 -25 -0.5 q-30 -40 -74.5 -82.5 q-44.5 -42.5 -100 -79.5 q-55.5 -37 -118.5 -64 ZM643 444 l113 -49 q-4 -8 -13 -11.5 q-9 -3.5 -28 -0.5 q-55 -124 -162 -226 q89 -58 196 -96.5 q107 -38.5 224 -59.5 l-2 -12 q-57 -8 -76 -70 q-115 31 -213.5 78.5 q-98.5 47.5 -177.5 116.5 q-86 -69 -201 -119 q-115 -50 -261 -76 l-6 15 q131 37 236 94.5 q105 57.5 184 132.5 q-49 53 -88 116 q-39 63 -65 139 l16 11 q29 -67 73.5 -123.5 q44.5 -56.5 101.5 -103.5 q50 55 87 116.5 q37 61.5 62 127.5 Z" /><glyph glyph-name="cid09739" unicode="&#x4ea7;" d="M413 844 l9 7 q64 -9 97 -29.5 q33 -20.5 42.5 -44 q9.5 -23.5 1.5 -42.5 q-8 -19 -27 -25 q-19 -6 -42 10 q-6 33 -30.5 67.5 q-24.5 34.5 -50.5 56.5 ZM777 445 l53 66 q0 0 17 -13 q17 -13 40 -31 q23 -18 41 -35 q-4 -16 -27 -16 l-669 0 l0 -87 q0 -45 -5.5 -99 q-5.5 -54 -24 -110 q-18.5 -56 -56 -109 q-37.5 -53 -102.5 -96 l-12 11 q54 62 80 130.5 q26 68.5 34 138 q8 69.5 8 133.5 l0 155 l93 -38 l332 0 q21 49 40.5 107 q19.5 58 32.5 104 l114 -25 q-5 -21 -37 -21 q-21 -37 -53.5 -81.5 q-32.5 -44.5 -67.5 -83.5 l169 0 ZM295 654 l9 5 q64 -28 95.5 -60.5 q31.5 -32.5 38 -62.5 q6.5 -30 -4 -50.5 q-10.5 -20.5 -31 -24.5 q-20.5 -4 -43.5 16 q-2 44 -22.5 92.5 q-20.5 48.5 -41.5 84.5 ZM810 701 l51 64 q0 0 16.5 -12.5 q16.5 -12.5 39 -30 q22.5 -17.5 40.5 -34.5 q-4 -16 -27 -16 l-869 0 l-9 29 l758 0 Z" /><glyph glyph-name="cid09745" unicode="&#x4eab;" d="M60 678 l-9 30 l458 0 q-15 2 -28 11 q-7 32 -30 67 q-23 35 -47 57 l10 7 q65 -11 97.5 -33 q32.5 -22 40 -46.5 q7.5 -24.5 -2.5 -42.5 q-10 -18 -31 -20 l281 0 l53 69 q0 0 17 -13 q17 -13 40 -32.5 q23 -19.5 41 -37.5 q-4 -16 -26 -16 l-864 0 ZM296 472 l404 0 l0 109 l-404 0 l0 -109 ZM713 406 l-13 0 l0 36 l-404 0 l0 -22 q0 -5 -22 -14.5 q-22 -9.5 -46 -9.5 l-12 0 l0 250 l86 -36 l388 0 l41 45 l93 -69 q-12 -14 -43 -20 l0 -138 q0 -3 -12 -8.5 q-12 -5.5 -27.5 -9.5 q-15.5 -4 -28.5 -4 ZM814 187 l53 67 q0 0 17 -13 q17 -13 40 -31.5 q23 -18.5 41 -36.5 q-4 -16 -28 -16 l-398 0 l0 -127 q0 -31 -8.5 -54 q-8.5 -23 -36 -36.5 q-27.5 -13.5 -85.5 -18.5 q-3 19 -8.5 33.5 q-5.5 14.5 -18.5 23.5 q-12 9 -35.5 16.5 q-23.5 7.5 -64.5 12.5 l0 15 q0 0 19.5 -1.5 q19.5 -1.5 46.5 -3 q27 -1.5 51 -3 q24 -1.5 33 -1.5 q24 0 24 20 l0 124 l-410 0 l-9 30 l419 0 l0 85 l80 -8 q44 16 91.5 35 q47.5 19 87.5 38 l-574 0 l-9 29 l623 0 l52 45 l81 -77 q-11 -9 -46 -10 q-33 -13 -79 -26.5 q-46 -13.5 -96.5 -26 q-50.5 -12.5 -98.5 -22.5 q-7 -10 -29 -13 l0 -49 l275 0 Z" /><glyph glyph-name="cid09793" unicode="&#x4eca;" d="M724 309 l47 48 l85 -81 q-12 -12 -51 -14 q-21 -32 -50 -75 q-29 -43 -62 -90.5 q-33 -47.5 -66.5 -94.5 q-33.5 -47 -63.5 -86 q-18 -1 -38 3 q-20 4 -45 20 q40 54 83 115 q43 61 83 120 q40 59 71 106 l-547 0 l-8 29 l562 0 ZM394 544 l11 7 q76 -25 117 -56.5 q41 -31.5 55 -62.5 q14 -31 7.5 -53 q-6.5 -22 -26 -28.5 q-19.5 -6.5 -44.5 10.5 q-9 30 -28.5 63.5 q-19.5 33.5 -44 64.5 q-24.5 31 -47.5 55 ZM452 854 l132 -34 q-4 -17 -42 -20 q45 -74 113 -139 q68 -65 151.5 -119 q83.5 -54 172.5 -95 l-2 -15 q-27 -5 -45 -24 q-18 -19 -24 -41 q-83 49 -158 114.5 q-75 65.5 -134 143 q-59 77.5 -93 162.5 q-36 -63 -89.5 -128 q-53.5 -65 -119 -126.5 q-65.5 -61.5 -138 -114.5 q-72.5 -53 -145.5 -91 l-9 15 q65 43 132 104.5 q67 61.5 127.5 132.5 q60.5 71 105.5 142.5 q45 71.5 65 132.5 Z" /><glyph glyph-name="cid09800" unicode="&#x4ece;" d="M250 813 l119 -12 q-1 -11 -8.5 -18.5 q-7.5 -7.5 -25.5 -9.5 q-1 -77 -4 -161 q-3 -84 -15 -170 q74 -51 113.5 -101.5 q39.5 -50.5 51.5 -93.5 q12 -43 4 -71 q-8 -28 -29 -34 q-21 -6 -47 16 q-7 56 -36 121 q-29 65 -64 121 q-14 -86 -44.5 -170 q-30.5 -84 -82.5 -162 q-52 -78 -133 -146 l-15 15 q84 97 128.5 205.5 q44.5 108.5 63 223 q18.5 114.5 21.5 228 q3 113.5 3 219.5 ZM602 816 l121 -12 q-1 -10 -9 -18 q-8 -8 -26 -10 q8 -170 34 -313.5 q26 -143.5 86 -257 q60 -113.5 169 -194.5 l-2 -12 q-60 -9 -77 -79 q-70 67 -114 161.5 q-44 94.5 -68 209 q-24 114.5 -35 242.5 q-6 -91 -23 -176 q-17 -85 -54 -162.5 q-37 -77.5 -101 -146 q-64 -68.5 -165 -126.5 l-13 15 q87 67 141 143.5 q54 76.5 82.5 161 q28.5 84.5 39.5 177 q11 92.5 12.5 192 q1.5 99.5 1.5 205.5 Z" /><glyph glyph-name="cid09809" unicode="&#x4ed6;" d="M230 571 l40 -15 q-5 -14 -29 -17 l0 -594 q-1 -4 -21.5 -14.5 q-20.5 -10.5 -43.5 -10.5 l-14 0 l0 540 q-27 -38 -55.5 -72.5 q-28.5 -34.5 -58.5 -63.5 l-14 9 q40 61 79.5 143 q39.5 82 73.5 176 q34 94 57 189 l120 -38 q-7 -20 -37 -20 q-21 -56 -45 -109 q-24 -53 -52 -103 ZM928 198 l3 -152 q23 -7 31 -15 q8 -8 8 -20 q0 -16 -11.5 -26.5 q-11.5 -10.5 -41 -17 q-29.5 -6.5 -84 -9 q-54.5 -2.5 -140.5 -2.5 l-157 0 q-83 0 -116 19.5 q-33 19.5 -33 78.5 l0 390 l-105 -37 l-19 24 l124 44 l0 272 l114 -13 q-1 -10 -9.5 -17.5 q-8.5 -7.5 -26.5 -10.5 l0 -204 l133 47 l0 280 l114 -12 q-1 -10 -9 -17.5 q-8 -7.5 -28 -10.5 l0 -213 l134 47 l6 2 l41 43 l85 -67 q-10 -13 -40 -17 q-1 -119 -5 -194.5 q-4 -75.5 -14 -116.5 q-10 -41 -29 -59 q-16 -17 -40.5 -25 q-24.5 -8 -53.5 -8 q0 17 -2.5 32 q-2.5 15 -10.5 23 q-7 9 -25 15 q-18 6 -39 10 l0 17 q20 -2 47 -4 q27 -2 40 -2 q20 0 28 8 q14 14 20 90 q6 76 7 227 l-149 -52 l0 -408 q0 -7 -20 -17 q-20 -10 -43 -10 l-14 0 l0 408 l-133 -47 l0 -398 q0 -22 14.5 -31.5 q14.5 -9.5 61.5 -9.5 l156 0 q52 0 89 0.5 q37 0.5 55 2.5 q22 3 31 16 q8 14 19.5 53 q11.5 39 24.5 94 l12 0 Z" /><glyph glyph-name="cid09827" unicode="&#x4ee3;" d="M687 797 l9 8 q69 -10 106.5 -31 q37.5 -21 50.5 -45 q13 -24 7 -43.5 q-6 -19.5 -24 -27 q-18 -7.5 -42 5.5 q-13 34 -45 71 q-32 37 -62 62 ZM262 842 l125 -41 q-3 -9 -12.5 -15 q-9.5 -6 -26.5 -5 q-22 -55 -46.5 -107 q-24.5 -52 -53.5 -100 l50 -19 q-6 -13 -32 -17 l0 -593 q-1 -4 -21 -15 q-20 -11 -43 -11 l-16 0 l0 559 q-67 -93 -142 -159 l-14 9 q45 61 88.5 144 q43.5 83 81 178 q37.5 95 62.5 192 ZM956 167 l-18 -155 q25 -33 29 -49.5 q4 -16.5 -4 -26.5 q-14 -18 -39.5 -16 q-25.5 2 -54 15.5 q-28.5 13.5 -52.5 31.5 q-117 86 -179.5 219.5 q-62.5 133.5 -88.5 298.5 l-228 -26 l-11 28 l235 27 q-10 74 -15 153 q-5 79 -5 161 l122 -15 q-1 -9 -9 -17 q-8 -8 -27 -11 q-1 -66 2.5 -132 q3.5 -66 11.5 -130 l185 21 l46 72 q0 0 18 -11 q18 -11 43 -26.5 q25 -15.5 45 -29.5 q-1 -7 -8 -12 q-7 -5 -16 -7 l-309 -36 q14 -94 42.5 -179 q28.5 -85 74.5 -153 q46 -68 114 -113 q14 -11 20.5 -10.5 q6.5 0.5 13.5 14.5 q11 19 26 52.5 q15 33.5 26 63.5 l10 -2 Z" /><glyph glyph-name="cid09829" unicode="&#x4ee4;" d="M714 352 l55 51 l88 -87 q-7 -6 -17 -8 q-10 -2 -27 -4 q-32 -29 -78 -67.5 q-46 -38.5 -95.5 -78 q-49.5 -39.5 -94.5 -74.5 q55 -34 80 -67.5 q25 -33.5 26 -59 q1 -25.5 -16 -37 q-17 -11.5 -46 -1.5 q-21 30 -55 64 q-34 34 -75 67 q-41 33 -83 62 q-42 29 -79 51 l9 11 q70 -16 123 -35.5 q53 -19.5 93 -41.5 q30 35 63 75 q33 40 64.5 79.5 q31.5 39.5 55.5 71.5 l-547 0 l-9 29 l565 0 ZM410 575 l10 7 q68 -22 103 -50.5 q35 -28.5 45 -57 q10 -28.5 1.5 -49 q-8.5 -20.5 -28.5 -26 q-20 -5.5 -43 12.5 q-7 41 -33.5 86.5 q-26.5 45.5 -54.5 76.5 ZM445 849 l142 -35 q-2 -10 -12.5 -13.5 q-10.5 -3.5 -30.5 -5.5 q46 -64 115.5 -119 q69.5 -55 152 -98.5 q82.5 -43.5 166.5 -76.5 l-1 -15 q-30 -7 -49 -29 q-19 -22 -26 -47 q-80 43 -153 100 q-73 57 -130.5 126 q-57.5 69 -92.5 146 q-37 -57 -91.5 -115.5 q-54.5 -58.5 -121 -113.5 q-66.5 -55 -139 -101 q-72.5 -46 -144.5 -79 l-8 13 q63 39 129 95 q66 56 126 120.5 q60 64.5 104.5 128.5 q44.5 64 63.5 119 Z" /><glyph glyph-name="cid09832" unicode="&#x4ee5;" d="M353 777 l12 7 q87 -51 134 -103.5 q47 -52.5 63 -97 q16 -44.5 9 -74.5 q-7 -30 -28.5 -38 q-21.5 -8 -48.5 15 q-8 47 -31.5 99 q-23.5 52 -52.5 102 q-29 50 -57 90 ZM546 318 l8 -13 q-55 -45 -144.5 -118 q-89.5 -73 -201.5 -156 q-4 -14 -12.5 -23 q-8.5 -9 -16.5 -12 l-54 102 q27 14 34 22.5 q7 8.5 7 25.5 l0 636 l119 -13 q-3 -22 -37 -28 l0 -592 q60 33 138 77.5 q78 44.5 160 91.5 ZM752 799 l125 -12 q-2 -11 -10.5 -19.5 q-8.5 -8.5 -27.5 -10.5 q-3 -107 -10.5 -200.5 q-7.5 -93.5 -26 -174 q-18.5 -80.5 -56.5 -150.5 q89 -46 138 -95.5 q49 -49.5 66.5 -94.5 q17.5 -45 12 -76.5 q-5.5 -31.5 -27 -41 q-21.5 -9.5 -50.5 11.5 q-8 44 -31.5 92.5 q-23.5 48.5 -55.5 95 q-32 46.5 -66 84.5 q-58 -91 -166 -163 q-108 -72 -290 -130 l-10 19 q138 59 227 124 q89 65 141 141 q52 76 76.5 166 q24.5 90 32 197.5 q7.5 107.5 9.5 236.5 Z" /><glyph glyph-name="cid09858" unicode="&#x4ef6;" d="M244 841 l117 -42 q-3 -8 -12 -14 q-9 -6 -26 -5 q-20 -55 -44 -106.5 q-24 -51.5 -50 -99.5 l47 -18 q-5 -14 -29 -18 l0 -592 q-1 -5 -22 -15.5 q-21 -10.5 -44 -10.5 l-15 0 l0 552 q-28 -41 -58.5 -77 q-30.5 -36 -62.5 -66 l-14 10 q41 60 81.5 141 q40.5 81 74.5 173.5 q34 92.5 57 187.5 ZM825 331 l51 68 q0 0 16.5 -13.5 q16.5 -13.5 39.5 -32 q23 -18.5 40 -35.5 q-4 -16 -26 -16 l-275 0 l0 -354 q0 -7 -21 -17 q-21 -10 -44 -10 l-17 0 l0 381 l-290 0 l-8 29 l298 0 l0 244 l-153 0 q-28 -58 -62 -108 q-34 -50 -73 -88 l-14 9 q29 50 54 114.5 q25 64.5 44.5 137.5 q19.5 73 31.5 148 l117 -37 q-7 -19 -38 -19 q-10 -34 -21.5 -65.5 q-11.5 -31.5 -25.5 -62.5 l140 0 l0 226 l119 -13 q-2 -10 -9.5 -18 q-7.5 -8 -27.5 -11 l0 -184 l128 0 l51 66 q0 0 16 -13 q16 -13 38.5 -31 q22.5 -18 39.5 -35 q-4 -16 -27 -16 l-246 0 l0 -244 l154 0 Z" /><glyph glyph-name="cid09919" unicode="&#x4f20;" d="M226 569 l43 -17 q-4 -13 -31 -19 l0 -588 q-1 -5 -21.5 -15 q-20.5 -10 -43.5 -10 l-16 0 l0 537 q-28 -39 -57 -74.5 q-29 -35.5 -61 -64.5 l-14 9 q41 63 80.5 146 q39.5 83 73.5 177.5 q34 94.5 56 189.5 l127 -38 q-4 -8 -13.5 -14 q-9.5 -6 -26.5 -5 q-21 -57 -45 -111 q-24 -54 -51 -103 ZM824 471 l52 67 q0 0 16.5 -13 q16.5 -13 38.5 -31.5 q22 -18.5 40 -35.5 q-4 -16 -27 -16 l-388 0 q-11 -38 -22 -74.5 q-11 -36.5 -21 -67.5 l249 0 l51 49 l88 -84 q-6 -6 -15 -8 q-9 -2 -26 -4 q-20 -25 -49 -55.5 q-29 -30.5 -61.5 -60.5 q-32.5 -30 -63.5 -56 q59 -30 88.5 -61.5 q29.5 -31.5 34.5 -56 q5 -24.5 -8.5 -37 q-13.5 -12.5 -40.5 -5.5 q-25 32 -65.5 64.5 q-40.5 32.5 -90 63.5 q-49.5 31 -100 56.5 q-50.5 25.5 -94.5 42.5 l8 13 q79 -12 139 -29.5 q60 -17.5 106 -38.5 q25 40 52 89 q27 49 46 88 l-249 0 l-36 -40 l-84 62 q8 5 19 11 q11 6 23 10 q9 27 19.5 60 q10.5 33 21.5 69 l-199 0 l-8 29 l215 0 q12 41 24 85 q12 44 23 86 l-197 0 l-8 29 l212 0 q13 50 23 95 q10 45 16 78 l112 -30 q-3 -8 -11.5 -14.5 q-8.5 -6.5 -27.5 -5.5 q-6 -25 -13.5 -56.5 q-7.5 -31.5 -16.5 -66.5 l161 0 l49 63 q0 0 15 -12.5 q15 -12.5 36.5 -30 q21.5 -17.5 38.5 -33.5 q-4 -16 -27 -16 l-281 0 q-11 -41 -22.5 -84.5 q-11.5 -43.5 -24.5 -86.5 l260 0 Z" /><glyph glyph-name="cid09968" unicode="&#x4f46;" d="M781 718 l-305 0 l0 -242 l305 0 l0 242 ZM476 208 l305 0 l0 239 l-305 0 l0 -239 ZM476 178 l0 -54 q0 -7 -19.5 -18 q-19.5 -11 -46.5 -11 l-13 0 l0 689 l84 -37 l290 0 l43 47 l89 -70 q-10 -13 -42 -21 l0 -559 q0 -3 -11 -9.5 q-11 -6.5 -26.5 -11.5 q-15.5 -5 -29.5 -5 l-13 0 l0 60 l-305 0 ZM244 842 l121 -38 q-3 -8 -12 -14 q-9 -6 -26 -5 q-21 -57 -45 -111 q-24 -54 -52 -104 l46 -17 q-5 -14 -29 -18 l0 -589 q-1 -5 -22 -15.5 q-21 -10.5 -45 -10.5 l-14 0 l0 543 q-28 -42 -58.5 -79.5 q-30.5 -37.5 -62.5 -69.5 l-14 10 q41 63 80.5 146.5 q39.5 83.5 74 179 q34.5 95.5 58.5 192.5 ZM822 5 l54 71 q0 0 17 -13.5 q17 -13.5 40 -33 q23 -19.5 41 -37.5 q-3 -16 -27 -16 l-641 0 l-8 29 l524 0 Z" /><glyph glyph-name="cid09989" unicode="&#x4f53;" d="M226 574 l44 -17 q-6 -13 -32 -17 l0 -597 q-1 -4 -21.5 -14.5 q-20.5 -10.5 -43.5 -10.5 l-15 0 l0 539 q-26 -38 -53.5 -72.5 q-27.5 -34.5 -57.5 -63.5 l-14 7 q39 63 76.5 146.5 q37.5 83.5 69 178 q31.5 94.5 51.5 189.5 l123 -37 q-3 -9 -12.5 -15 q-9.5 -6 -26.5 -6 q-19 -55 -40.5 -107.5 q-21.5 -52.5 -47.5 -102.5 ZM920 601 l-250 0 q32 -91 80.5 -172.5 q48.5 -81.5 107 -146.5 q58.5 -65 120.5 -105 l-3 -10 q-24 -4 -43.5 -20.5 q-19.5 -16.5 -29.5 -45.5 q-86 80 -150.5 208.5 q-64.5 128.5 -101.5 291.5 l-3 0 l0 -448 l57 0 l44 60 q0 0 13.5 -12 q13.5 -12 32.5 -29 q19 -17 34 -33 q-3 -16 -25 -16 l-156 0 l0 -178 q0 -7 -21 -17.5 q-21 -10.5 -43 -10.5 l-16 0 l0 206 l-158 0 l-8 30 l166 0 l0 333 q-48 -116 -122 -215.5 q-74 -99.5 -175 -179.5 l-13 13 q63 65 113.5 146 q50.5 81 89 170.5 q38.5 89.5 62.5 180.5 l-226 0 l-8 29 l279 0 l0 209 l116 -12 q-1 -10 -9 -17.5 q-8 -7.5 -27 -10.5 l0 -169 l157 0 l51 67 q0 0 15.5 -13 q15.5 -13 37.5 -31.5 q22 -18.5 39 -35.5 q-4 -16 -27 -16 Z" /><glyph glyph-name="cid10001" unicode="&#x4f5c;" d="M274 842 l119 -41 q-9 -20 -40 -19 q-48 -120 -112 -222 l47 -18 q-5 -15 -30 -18 l0 -580 q-1 -4 -21.5 -14.5 q-20.5 -10.5 -44.5 -10.5 l-14 0 l0 549 q-63 -85 -135 -147 l-14 9 q47 61 92.5 143 q45.5 82 85.5 177 q40 95 67 192 ZM943 608 l-290 0 l0 -181 l133 0 l50 64 q0 0 15.5 -12.5 q15.5 -12.5 37 -30.5 q21.5 -18 38.5 -34 q-4 -16 -27 -16 l-247 0 l0 -186 l143 0 l52 67 q0 0 16.5 -13 q16.5 -13 39.5 -31.5 q23 -18.5 42 -35.5 q-4 -16 -27 -16 l-266 0 l0 -239 q0 -4 -18 -14 q-18 -10 -50 -10 l-14 0 l0 688 l-63 0 q-43 -70 -92.5 -128.5 q-49.5 -58.5 -103.5 -102.5 l-13 10 q41 54 82 126.5 q41 72.5 77 156.5 q36 84 61 171 l118 -43 q-4 -9 -13.5 -14 q-9.5 -5 -26.5 -4 q-31 -74 -71 -143 l293 0 l53 67 q0 0 17 -13 q17 -13 40 -31.5 q23 -18.5 41 -35.5 q-4 -16 -27 -16 Z" /><glyph glyph-name="cid10056" unicode="&#x4f7f;" d="M231 572 l41 -16 q-5 -14 -29 -17 l0 -594 q-1 -4 -21.5 -14.5 q-20.5 -10.5 -43.5 -10.5 l-14 0 l0 546 q-28 -40 -58 -75 q-30 -35 -62 -64 l-14 9 q42 61 83 142 q41 81 75.5 174.5 q34.5 93.5 58.5 189.5 l119 -37 q-3 -10 -12 -16 q-9 -6 -26 -5 q-42 -113 -97 -212 ZM427 348 l159 0 q0 7 0 13 q0 6 0 13 l0 157 l-159 0 l0 -183 ZM822 531 l-157 0 l0 -156 q0 -7 0 -13.5 q0 -6.5 -1 -13.5 l158 0 l0 183 ZM822 318 l-160 0 q-5 -62 -23 -116 q-18 -54 -52 -99 q77 -42 176 -65 q99 -23 211 -28 l0 -11 q-25 -7 -43.5 -27.5 q-18.5 -20.5 -23.5 -50.5 q-115 16 -204.5 49 q-89.5 33 -155.5 88 q-47 -44 -117 -78.5 q-70 -34.5 -167 -59.5 l-8 15 q89 32 150.5 72 q61.5 40 100.5 90 q-30 32 -54.5 70.5 q-24.5 38.5 -43.5 84.5 l14 7 q40 -70 111 -121 q23 39 35 83.5 q12 44.5 16 96.5 l-157 0 l0 -33 q0 -5 -21 -15 q-21 -10 -46 -10 l-10 0 l0 335 l82 -35 l154 0 l0 108 l-260 0 l-8 29 l268 0 l0 143 l114 -12 q-1 -10 -8.5 -17.5 q-7.5 -7.5 -26.5 -10.5 l0 -103 l148 0 l53 68 q0 0 17 -13 q17 -13 40 -32 q23 -19 41 -36 q-4 -16 -26 -16 l-273 0 l0 -108 l147 0 l41 45 l90 -68 q-10 -14 -42 -20 l0 -226 q0 -3 -11.5 -9 q-11.5 -6 -26.5 -11 q-15 -5 -28 -5 l-13 0 l0 52 Z" /><glyph glyph-name="cid10075" unicode="&#x4f8b;&#xf9b5;" d="M188 573 l49 -19 q-5 -14 -31 -17 l0 -594 q-1 -4 -20.5 -13.5 q-19.5 -9.5 -39.5 -9.5 l-14 0 l0 542 q-21 -36 -43.5 -68.5 q-22.5 -32.5 -46.5 -61.5 l-15 9 q33 63 63.5 144.5 q30.5 81.5 56 173 q25.5 91.5 42.5 182.5 l114 -34 q-2 -9 -11.5 -15 q-9.5 -6 -26.5 -6 q-32 -112 -77 -213 ZM533 544 l-116 0 q-11 -32 -24 -63 q-13 -31 -29 -60 q70 -22 97.5 -52.5 q27.5 -30.5 28.5 -55.5 q16 56 26 114 q10 58 17 117 ZM650 728 l-188 0 q-6 -40 -15 -79 q-9 -39 -20 -76 l99 0 l42 45 l80 -70 q-10 -12 -38 -15 q-12 -88 -34.5 -174 q-22.5 -86 -61 -165.5 q-38.5 -79.5 -100 -147.5 q-61.5 -68 -152.5 -121 l-11 14 q88 67 143.5 156.5 q55.5 89.5 87.5 191.5 q-9 -12 -26 -14 q-17 -2 -36 11 q-7 27 -27 57.5 q-20 30.5 -43 55.5 q-45 -78 -110 -146 l-13 11 q66 97 102.5 218 q36.5 121 53.5 248 l-96 0 l-8 28 l255 0 l50 65 q0 0 16 -13 q16 -13 38 -30.5 q22 -17.5 39 -33.5 q-4 -16 -27 -16 ZM737 677 l0 -519 q0 -6 -19.5 -15 q-19.5 -9 -39.5 -9 l-14 0 l0 580 l106 -12 q-2 -9 -9 -16 q-7 -7 -24 -9 ZM841 831 l111 -12 q-2 -11 -10 -18 q-8 -7 -26 -10 l0 -766 q0 -30 -7.5 -52 q-7.5 -22 -32 -35.5 q-24.5 -13.5 -76.5 -19.5 q-2 19 -7.5 32.5 q-5.5 13.5 -17.5 23.5 q-12 10 -32.5 17 q-20.5 7 -57.5 11 l0 16 q0 0 17 -1 q17 -1 40.5 -3 q23.5 -2 44.5 -3 q21 -1 30 -1 q14 0 19 5 q5 5 5 17 l0 799 Z" /><glyph glyph-name="cid10213" unicode="&#x4fe1;" d="M537 844 l10 7 q68 -17 104 -44.5 q36 -27.5 46.5 -56 q10.5 -28.5 2.5 -50 q-8 -21.5 -27.5 -28 q-19.5 -6.5 -43.5 10.5 q-4 28 -18.5 57.5 q-14.5 29.5 -34 56.5 q-19.5 27 -39.5 47 ZM244 842 l123 -38 q-3 -7 -12.5 -13 q-9.5 -6 -26.5 -6 q-19 -57 -43 -110 q-24 -53 -51 -102 l41 -16 q-4 -13 -30 -17 l0 -595 q-1 -5 -21.5 -15.5 q-20.5 -10.5 -43.5 -10.5 l-14 0 l0 543 q-29 -42 -60 -79 q-31 -37 -64 -69 l-14 9 q42 63 83 147 q41 84 75.5 179.5 q34.5 95.5 57.5 192.5 ZM776 383 l47 62 q0 0 14.5 -12 q14.5 -12 35 -29.5 q20.5 -17.5 36.5 -33.5 q-4 -16 -26 -16 l-494 0 l-8 29 l395 0 ZM883 492 l-497 0 l-8 29 l398 0 l48 62 q0 0 14.5 -12 q14.5 -12 35 -29.5 q20.5 -17.5 36.5 -33.5 q-4 -16 -27 -16 ZM475 28 l320 0 l0 194 l-320 0 l0 -194 ZM785 252 l42 45 l89 -69 q-4 -5 -15.5 -11 q-11.5 -6 -25.5 -8 l0 -252 q0 -4 -11.5 -10 q-11.5 -6 -26.5 -10.5 q-15 -4.5 -29 -4.5 l-13 0 l0 66 l-320 0 l0 -53 q0 -6 -21.5 -16 q-21.5 -10 -45.5 -10 l-12 0 l0 369 l85 -36 l304 0 ZM829 660 l50 66 q0 0 16 -13 q16 -13 38.5 -31 q22.5 -18 39.5 -35 q-4 -16 -27 -16 l-626 0 l-7 29 l516 0 Z" /><glyph glyph-name="cid10230" unicode="&#x4fee;" d="M209 841 l115 -35 q-3 -9 -12.5 -15 q-9.5 -6 -26.5 -6 q-17 -55 -37.5 -109 q-20.5 -54 -44.5 -104 l47 -18 q-3 -7 -10 -11.5 q-7 -4.5 -21 -6.5 l0 -594 q-1 -4 -20.5 -13.5 q-19.5 -9.5 -40.5 -9.5 l-14 0 l0 540 q-23 -38 -47.5 -72.5 q-24.5 -34.5 -51.5 -64.5 l-14 9 q36 64 69.5 147 q33.5 83 62 176 q28.5 93 46.5 187 ZM365 651 l0 -565 q0 -7 -19.5 -16.5 q-19.5 -9.5 -39.5 -9.5 l-14 0 l0 628 l106 -12 q-2 -9 -9 -16 q-7 -7 -24 -9 ZM355 -82 l-6 18 q101 26 190.5 61.5 q89.5 35.5 168.5 90 q79 54.5 146 135.5 l100 -59 q-6 -7 -15.5 -9 q-9.5 -2 -26.5 2 q-79 -74 -165.5 -121.5 q-86.5 -47.5 -183.5 -74.5 q-97 -27 -208 -43 ZM418 69 l-8 18 q99 40 192.5 98 q93.5 58 167.5 137 l89 -57 q-6 -7 -14 -9 q-8 -2 -25 2 q-84 -65 -187.5 -112.5 q-103.5 -47.5 -214.5 -76.5 ZM670 413 l87 -55 q-5 -7 -13 -8.5 q-8 -1.5 -24 1.5 q-63 -42 -142 -75 q-79 -33 -159 -53 l-9 18 q70 30 138.5 74.5 q68.5 44.5 121.5 97.5 ZM793 689 l-241 0 q-4 -6 -7 -12.5 q-3 -6.5 -7 -12.5 q26 -40 58 -73.5 q32 -33.5 74 -59.5 q77 71 123 158 ZM845 763 l79 -71 q-6 -7 -15 -9.5 q-9 -2.5 -26 -4.5 q-30 -49 -69.5 -94.5 q-39.5 -45.5 -89.5 -83.5 q51 -25 112.5 -42 q61.5 -17 135.5 -27 l-2 -11 q-23 -8 -37.5 -24.5 q-14.5 -16.5 -19.5 -45.5 q-77 19 -137.5 46.5 q-60.5 27.5 -106.5 63.5 q-59 -38 -130 -68.5 q-71 -30.5 -154 -50.5 l-8 15 q143 53 252 140 q-31 32 -56.5 68.5 q-25.5 36.5 -48.5 78.5 q-58 -88 -130 -144 l-13 10 q44 59 84 148 q40 89 62 186 l110 -36 q-3 -8 -12 -14 q-9 -6 -25 -5 q-7 -18 -15.5 -35.5 q-8.5 -17.5 -16.5 -34.5 l228 0 l49 45 Z" /><glyph glyph-name="cid10281" unicode="&#x500d;" d="M331 649 l-8 29 l460 0 l52 65 q0 0 17 -12.5 q17 -12.5 39.5 -30.5 q22.5 -18 40.5 -35 q-3 -16 -27 -16 l-574 0 ZM412 621 l11 5 q60 -30 89.5 -64 q29.5 -34 35.5 -64 q6 -30 -4 -50.5 q-10 -20.5 -29.5 -24.5 q-19.5 -4 -41.5 16 q-2 44 -21.5 94.5 q-19.5 50.5 -39.5 87.5 ZM522 839 l10 7 q64 -16 97 -41 q33 -25 41.5 -51.5 q8.5 -26.5 -0.5 -46 q-9 -19.5 -28.5 -24.5 q-19.5 -5 -42.5 12 q-4 37 -27.5 77.5 q-23.5 40.5 -49.5 66.5 ZM246 842 l121 -39 q-3 -9 -12 -14.5 q-9 -5.5 -26 -5.5 q-21 -56 -45 -109 q-24 -53 -52 -103 l40 -15 q-2 -5 -9 -10 q-7 -5 -21 -7 l0 -594 q-1 -6 -21.5 -16 q-20.5 -10 -43.5 -10 l-14 0 l0 542 q-28 -40 -59 -76 q-31 -36 -63 -65 l-14 10 q43 61 84 143.5 q41 82.5 76.5 177.5 q35.5 95 58.5 191 ZM457 20 l310 0 l0 223 l-310 0 l0 -223 ZM763 272 l40 46 l81 -63 q-4 -6 -12.5 -10.5 q-8.5 -4.5 -24.5 -7.5 l0 -289 q0 -3 -18.5 -12 q-18.5 -9 -47.5 -9 l-14 0 l0 63 l-310 0 l0 -48 q0 -4 -17 -13 q-17 -9 -47 -9 l-12 0 l0 388 l88 -36 l294 0 ZM820 412 l53 67 q0 0 16.5 -13 q16.5 -13 39.5 -31.5 q23 -18.5 42 -35.5 q-4 -16 -27 -16 l-648 0 l-8 29 l386 0 q11 35 22 75 q11 40 20 77.5 q9 37.5 13 62.5 l120 -40 q-2 -7 -10.5 -14 q-8.5 -7 -25.5 -6 q-18 -28 -49.5 -72 q-31.5 -44 -66.5 -83 l123 0 Z" /><glyph glyph-name="cid10641" unicode="&#x50cf;" d="M225 842 l120 -36 q-3 -8 -12.5 -14.5 q-9.5 -6.5 -26.5 -5.5 q-18 -53 -39.5 -104 q-21.5 -51 -46.5 -100 l39 -15 q-5 -15 -31 -19 l0 -603 q-1 -4 -20.5 -14.5 q-19.5 -10.5 -41.5 -10.5 l-15 0 l0 539 q-25 -40 -52 -74.5 q-27 -34.5 -56 -65.5 l-14 9 q38 63 74.5 147 q36.5 84 68.5 178.5 q32 94.5 53 188.5 ZM434 462 l109 0 q41 61 63 131 l-172 0 l0 -131 ZM684 721 l-185 0 q-17 -22 -37.5 -44 q-20.5 -22 -42.5 -43 l28 -11 l184 0 q14 22 28.5 48.5 q14.5 26.5 24.5 49.5 ZM825 593 l-134 0 q-12 -37 -29 -69.5 q-17 -32.5 -39 -61.5 l202 0 l0 131 ZM853 401 l80 -66 q-9 -11 -31 -2 q-24 -13 -62 -31.5 q-38 -18.5 -82 -36.5 q29 -73 86.5 -124 q57.5 -51 127.5 -80 l-2 -10 q-44 -8 -59 -63 q-66 45 -109 111.5 q-43 66.5 -63 158.5 q-12 -4 -24 -8.5 q-12 -4.5 -24 -8.5 q23 -57 28 -113 q5 -56 -4 -100.5 q-9 -44.5 -29 -69.5 q-13 -19 -41 -27.5 q-28 -8.5 -72 -8.5 q-1 32 -20 46 q-9 7 -31 14 q-22 7 -47 12 l0 15 q18 -1 43.5 -2.5 q25.5 -1.5 48.5 -2.5 q23 -1 33 -1 q9 0 15 1.5 q6 1.5 10 7.5 q14 19 19.5 59.5 q5.5 40.5 0.5 91.5 q-48 -37 -108 -72.5 q-60 -35.5 -126.5 -62 q-66.5 -26.5 -134.5 -40.5 l-5 15 q67 22 133.5 59 q66.5 37 125.5 83.5 q59 46.5 102 94.5 q-3 11 -6 21 q-3 10 -7 20 q-41 -30 -94 -59.5 q-53 -29.5 -111 -54 q-58 -24.5 -115 -40.5 l-6 15 q54 23 109.5 56 q55.5 33 104.5 72 q49 39 82 79 q-7 11 -14 21.5 q-7 10.5 -15 20.5 q-49 -45 -113 -79.5 q-64 -34.5 -146 -60.5 l-8 16 q75 32 131.5 73.5 q56.5 41.5 97.5 92.5 l-88 0 l0 -18 q0 -4 -16.5 -13.5 q-16.5 -9.5 -45.5 -9.5 l-13 0 l0 190 q-41 -34 -83 -56 l-11 10 q42 37 83 89 q41 52 74.5 109 q33.5 57 54.5 110 l115 -35 q-2 -7 -9.5 -10 q-7.5 -3 -26.5 -1 q-7 -11 -16 -23 q-9 -12 -18 -25 l163 0 l46 46 l81 -74 q-6 -5 -15.5 -7 q-9.5 -2 -23.5 -3 q-22 -20 -52 -44.5 q-30 -24.5 -59 -44.5 l154 0 l39 40 l82 -62 q-10 -13 -36 -18 l0 -162 q0 -3 -11 -8 q-11 -5 -25.5 -9 q-14.5 -4 -26.5 -4 l-13 0 l0 33 l-225 0 q-6 -7 -12 -14.5 q-6 -7.5 -14 -14.5 q38 -31 65 -68 q27 -37 44 -77 q31 22 63.5 48.5 q32.5 26.5 61 51.5 q28.5 25 45.5 42 Z" /><glyph glyph-name="cid10855" unicode="&#x5143;" d="M837 722 l-680 0 l-7 28 l558 0 l55 70 q0 0 17.5 -13.5 q17.5 -13.5 41 -32.5 q23.5 -19 42.5 -36 q-4 -16 -27 -16 ZM939 201 l3 -166 q19 -7 24.5 -15.5 q5.5 -8.5 5.5 -21.5 q0 -18 -15 -29 q-15 -11 -57 -16 q-42 -5 -122 -5 l-104 0 q-64 0 -85 17 q-21 17 -21 64 l0 446 l-157 0 q-6 -105 -24.5 -191 q-18.5 -86 -59 -154.5 q-40.5 -68.5 -111 -121 q-70.5 -52.5 -178.5 -91.5 l-7 14 q87 47 142 103 q55 56 86.5 123 q31.5 67 44.5 146 q13 79 16 172 l-267 0 l-9 29 l755 0 l57 71 q0 0 18 -13.5 q18 -13.5 42.5 -33 q24.5 -19.5 43.5 -37.5 q-4 -16 -27 -16 l-284 0 l0 -22 l0 -404 q0 -13 7 -18.5 q7 -5.5 35 -5.5 l91 0 q31 0 52.5 0.5 q21.5 0.5 32.5 1.5 q16 0 21 15 q8 14 18 59.5 q10 45.5 20 99.5 l13 0 Z" /><glyph glyph-name="cid10909" unicode="&#x2f0a;&#x5165;" d="M475 676 l-3 16 q-3 15 -30.5 28.5 q-27.5 13.5 -66.5 26.5 q-39 13 -75 23 q5 8 13 22.5 q8 14.5 17 29.5 q9 15 15 22 q39 -21 75.5 -45 q36.5 -24 62.5 -49 q26 -25 32 -52 q28 -152 89 -287.5 q61 -135.5 155.5 -239.5 q94.5 -104 219.5 -163 l-4 -14 q-37 -2 -63.5 -23.5 q-26.5 -21.5 -36.5 -51.5 q-86 56 -154.5 141 q-68.5 85 -119 192.5 q-50.5 107.5 -84.5 229.5 q-37 -112 -104.5 -216.5 q-67.5 -104.5 -160 -193 q-92.5 -88.5 -206.5 -154.5 l-13 13 q108 80 197 193.5 q89 113.5 152 253.5 q63 140 93 298 Z" /><glyph glyph-name="cid10932" unicode="&#x5171;" d="M62 -81 l-8 12 q59 36 114 84.5 q55 48.5 100.5 100.5 q45.5 52 73.5 98 l104 -61 q-4 -7 -12.5 -9.5 q-8.5 -2.5 -25.5 1.5 q-36 -40 -90 -82.5 q-54 -42.5 -119.5 -80 q-65.5 -37.5 -136.5 -63.5 ZM589 184 l9 10 q114 -32 182 -73 q68 -41 98.5 -81 q30.5 -40 32.5 -70 q2 -30 -17 -42.5 q-19 -12.5 -49 3.5 q-17 32 -46 66.5 q-29 34.5 -65 68.5 q-36 34 -73.5 64.5 q-37.5 30.5 -71.5 53.5 ZM375 566 l0 -277 l244 0 l0 277 l-244 0 ZM808 289 l54 70 q0 0 17.5 -13.5 q17.5 -13.5 41.5 -32.5 q24 -19 42 -37 q-4 -16 -27 -16 l-887 0 l-8 29 l254 0 l0 277 l-214 0 l-9 29 l223 0 l0 238 l117 -12 q-2 -10 -9.5 -17.5 q-7.5 -7.5 -27.5 -10.5 l0 -198 l244 0 l0 238 l118 -12 q-2 -10 -10 -17.5 q-8 -7.5 -27 -10.5 l0 -198 l89 0 l51 66 q0 0 16 -12.5 q16 -12.5 38 -31 q22 -18.5 40 -35.5 q-4 -16 -27 -16 l-207 0 l0 -277 l108 0 Z" /><glyph glyph-name="cid10936" unicode="&#x5173;" d="M229 828 l10 8 q79 -24 122 -56.5 q43 -32.5 57.5 -64.5 q14.5 -32 8 -56 q-6.5 -24 -26.5 -31 q-20 -7 -46 11 q-7 32 -27.5 66.5 q-20.5 34.5 -46.5 66.5 q-26 32 -51 56 ZM926 325 l-384 0 q56 -122 167 -203 q111 -81 258 -110 l-2 -11 q-25 -7 -44.5 -27 q-19.5 -20 -27.5 -52 q-145 49 -234.5 147 q-89.5 98 -136.5 250 q-11 -57 -39.5 -113.5 q-28.5 -56.5 -82.5 -109 q-54 -52.5 -142.5 -97.5 q-88.5 -45 -219.5 -79 l-7 16 q142 56 226.5 118 q84.5 62 126 130.5 q41.5 68.5 54.5 140.5 l-383 0 l-8 29 l395 0 q3 19 4 38 q1 19 1 38 l0 146 l-329 0 l-8 30 l450 0 q29 52 57.5 117 q28.5 65 46.5 118 l123 -38 q-3 -8 -11.5 -13.5 q-8.5 -5.5 -25.5 -4.5 q-29 -40 -72.5 -89 q-43.5 -49 -90.5 -90 l151 0 l54 67 q0 0 17.5 -13 q17.5 -13 41 -31.5 q23.5 -18.5 41.5 -36.5 q-1 -8 -8.5 -12 q-7.5 -4 -17.5 -4 l-334 0 l0 -145 q0 -19 -1 -38 q-1 -19 -3 -39 l266 0 l56 69 q0 0 17.5 -13.5 q17.5 -13.5 42 -32.5 q24.5 -19 44.5 -36 q-4 -16 -28 -16 Z" /><glyph glyph-name="cid10938" unicode="&#x5174;" d="M376 799 l13 5 q73 -55 110.5 -110.5 q37.5 -55.5 48 -102.5 q10.5 -47 1 -78.5 q-9.5 -31.5 -31 -39.5 q-21.5 -8 -47.5 16 q0 50 -14.5 105.5 q-14.5 55.5 -35.5 109 q-21 53.5 -44 95.5 ZM101 727 l13 6 q86 -51 133.5 -103 q47.5 -52 64 -97 q16.5 -45 10.5 -75 q-6 -30 -26.5 -38.5 q-20.5 -8.5 -47.5 13.5 q-9 47 -33 99.5 q-24 52.5 -54.5 103.5 q-30.5 51 -59.5 91 ZM58 -82 l-10 13 q60 46 114 105.5 q54 59.5 97.5 122.5 q43.5 63 68.5 117 l109 -55 q-4 -7 -12.5 -10.5 q-8.5 -3.5 -25.5 -0.5 q-35 -49 -87 -102.5 q-52 -53.5 -116.5 -103 q-64.5 -49.5 -137.5 -86.5 ZM591 253 l11 8 q105 -39 173.5 -82.5 q68.5 -43.5 107 -85.5 q38.5 -42 52.5 -77 q14 -35 8.5 -58.5 q-5.5 -23.5 -24.5 -30 q-19 -6.5 -46 9.5 q-18 39 -49.5 82 q-31.5 43 -71 85 q-39.5 42 -81.5 80.5 q-42 38.5 -80 68.5 ZM818 340 l56 71 q0 0 17.5 -13.5 q17.5 -13.5 41.5 -33 q24 -19.5 43 -37.5 q-4 -16 -27 -16 l-901 0 l-9 29 l565 0 q30 58 62 134.5 q32 76.5 62 160 q30 83.5 53 162.5 l128 -42 q-3 -9 -12.5 -14.5 q-9.5 -5.5 -26.5 -4.5 q-49 -111 -111.5 -214.5 q-62.5 -103.5 -129.5 -181.5 l189 0 Z" /><glyph glyph-name="cid10940" unicode="&#x5176;" d="M55 -82 l-6 14 q58 26 116 63.5 q58 37.5 106.5 78 q48.5 40.5 76.5 75.5 l110 -59 q-11 -17 -50 -10 q-39 -30 -95.5 -60.5 q-56.5 -30.5 -123 -57 q-66.5 -26.5 -134.5 -44.5 ZM590 115 l6 15 q117 -20 187 -47 q70 -27 103.5 -55 q33.5 -28 40 -52 q6.5 -24 -5.5 -39 q-12 -15 -32.5 -16 q-20.5 -1 -40.5 17 q-33 41 -97 88.5 q-64 47.5 -161 88.5 ZM352 337 l0 -136 l300 0 l0 136 l-300 0 ZM652 656 l-300 0 l0 -127 l300 0 l0 127 ZM352 500 l0 -135 l300 0 l0 135 l-300 0 ZM809 201 l54 69 q0 0 17.5 -13 q17.5 -13 41.5 -32 q24 -19 42 -37 q-4 -16 -26 -16 l-888 0 l-9 29 l231 0 l0 455 l-201 0 l-8 30 l209 0 l0 153 l116 -12 q-1 -10 -9 -17.5 q-8 -7.5 -27 -10.5 l0 -113 l300 0 l0 153 l117 -12 q-1 -10 -9 -17.5 q-8 -7.5 -26 -10.5 l0 -113 l62 0 l52 64 q0 0 16.5 -12.5 q16.5 -12.5 39 -30.5 q22.5 -18 40.5 -35 q-4 -16 -27 -16 l-183 0 l0 -455 l75 0 Z" /><glyph glyph-name="cid10942" unicode="&#x5177;" d="M51 -79 l-6 13 q56 26 111.5 63 q55.5 37 102.5 76 q47 39 75 72 l108 -54 q-9 -17 -50 -11 q-38 -28 -93 -58.5 q-55 -30.5 -118.5 -56.5 q-63.5 -26 -129.5 -44 ZM576 109 l5 15 q119 -19 190.5 -45.5 q71.5 -26.5 106.5 -53.5 q35 -27 42.5 -50.5 q7.5 -23.5 -3.5 -38.5 q-11 -15 -31.5 -16 q-20.5 -1 -40.5 16 q-35 41 -102.5 87 q-67.5 46 -166.5 86 ZM323 313 l0 -122 l375 0 l0 122 l-375 0 ZM698 747 l-375 0 l0 -116 l375 0 l0 116 ZM698 459 l-375 0 l0 -116 l375 0 l0 116 ZM698 488 l0 114 l-375 0 l0 -114 l375 0 ZM815 191 l54 75 q0 0 17 -14.5 q17 -14.5 40 -35 q23 -20.5 41 -38.5 q-4 -16 -27 -16 l-892 0 l-9 29 l204 0 l0 622 l93 -37 l352 0 l44 47 l89 -71 q-12 -14 -42 -20 l0 -541 l36 0 Z" /><glyph glyph-name="cid10943" unicode="&#x5178;" d="M53 -80 l-7 15 q59 25 117 61.5 q58 36.5 105.5 76.5 q47.5 40 75.5 75 l107 -57 q-9 -16 -49 -10 q-38 -30 -94 -60.5 q-56 -30.5 -121.5 -57 q-65.5 -26.5 -133.5 -43.5 ZM596 118 l7 16 q116 -22 186 -49.5 q70 -27.5 103.5 -56 q33.5 -28.5 40.5 -53 q7 -24.5 -4.5 -39.5 q-11.5 -15 -32 -16 q-20.5 -1 -40.5 17 q-32 42 -97 90.5 q-65 48.5 -163 90.5 ZM237 416 l0 -217 l120 0 l0 217 l-120 0 ZM357 647 l-120 0 l0 -201 l120 0 l0 201 ZM557 647 l-124 0 l0 -201 l124 0 l0 201 ZM760 647 l-127 0 l0 -201 l127 0 l0 201 ZM557 199 l0 217 l-124 0 l0 -217 l124 0 ZM633 416 l0 -217 l127 0 l0 217 l-127 0 ZM846 199 l46 67 q0 0 15 -13 q15 -13 35 -31.5 q20 -18.5 35 -35.5 q-4 -16 -27 -16 l-908 0 l-8 29 l124 0 l0 514 l90 -37 l109 0 l0 156 l103 -11 q-2 -19 -27 -23 l0 -122 l124 0 l0 156 l104 -11 q-3 -19 -28 -23 l0 -122 l116 0 l40 51 l97 -71 q-10 -15 -45 -19 l0 -438 l5 0 Z" /><glyph glyph-name="cid10960" unicode="&#x5185;" d="M850 705 l93 -71 q-4 -6 -15.5 -12 q-11.5 -6 -26.5 -8 l0 -582 q0 -31 -8.5 -54 q-8.5 -23 -36 -37 q-27.5 -14 -84.5 -20 q-4 20 -9.5 34.5 q-5.5 14.5 -17.5 24.5 q-15 11 -38.5 18.5 q-23.5 7.5 -64.5 13.5 l0 15 q0 0 19 -1.5 q19 -1.5 46.5 -3 q27.5 -1.5 52 -3 q24.5 -1.5 34.5 -1.5 q15 0 20.5 5.5 q5.5 5.5 5.5 17.5 l0 588 l-287 0 q-4 -36 -10 -69.5 q-6 -33.5 -15 -65.5 q94 -42 148 -88 q54 -46 75.5 -88 q21.5 -42 18.5 -72 q-3 -30 -22 -40 q-19 -10 -46 9 q-11 43 -40 88.5 q-29 45.5 -66.5 89 q-37.5 43.5 -74.5 78.5 q-28 -85 -90.5 -157 q-62.5 -72 -179.5 -131 l-12 17 q83 59 130.5 124.5 q47.5 65.5 71 141.5 q23.5 76 31.5 163 l-263 0 l0 -677 q0 -7 -20 -18.5 q-20 -11.5 -46 -11.5 l-14 0 l0 774 l88 -39 l257 0 q4 43 5 89 q1 46 2 95 l117 -11 q-1 -10 -9.5 -18 q-8.5 -8 -25.5 -10 q-1 -38 -3 -74 q-2 -36 -4 -71 l274 0 l40 48 Z" /><glyph glyph-name="cid10989" unicode="&#x5199;" d="M522 207 l52 68 q0 0 16.5 -13 q16.5 -13 39 -32 q22.5 -19 40.5 -36 q-4 -16 -26 -16 l-587 0 l-8 29 l473 0 ZM716 377 l44 46 l83 -70 q-5 -6 -14.5 -10 q-9.5 -4 -26.5 -6 q-11 -148 -36 -249 q-25 -101 -64 -133 q-46 -37 -122 -37 q0 17 -4.5 31.5 q-4.5 14.5 -16.5 23.5 q-12 10 -43 18.5 q-31 8.5 -65 13.5 l1 17 q25 -2 57 -5 q32 -3 60 -5 q28 -2 40 -2 q15 0 24 2.5 q9 2.5 17 9.5 q16 13 30.5 58 q14.5 45 26 114 q11.5 69 18.5 154 l-410 0 l-39 -43 l-83 60 q17 12 41 22 q8 33 16 75 q8 42 16.5 86 q8.5 44 14.5 83.5 q6 39.5 9 66.5 l112 -29 q-3 -9 -11.5 -15.5 q-8.5 -6.5 -27.5 -5.5 q-3 -22 -8 -48.5 q-5 -26.5 -10 -56.5 l342 0 l51 64 q0 0 16 -12.5 q16 -12.5 37.5 -30 q21.5 -17.5 39.5 -34.5 q-4 -16 -27 -16 l-464 0 q-7 -37 -14 -72 q-7 -35 -13 -65 l403 0 ZM871 808 l88 -84 q-5 -6 -13.5 -8 q-8.5 -2 -23.5 -4 q-14 -18 -35 -41 q-21 -23 -43.5 -45 q-22.5 -22 -42.5 -39 l-12 8 q9 26 20 64.5 q11 38.5 19 69.5 l-639 0 q6 -55 -11 -92 q-17 -37 -40 -53 q-22 -14 -47 -12 q-25 2 -35 24 q-8 20 2 37.5 q10 17.5 29 27.5 q29 17 50.5 58.5 q21.5 41.5 15.5 90.5 l16 1 q5 -13 9 -26.5 q4 -13.5 7 -26.5 l637 0 l49 50 Z" /><glyph glyph-name="cid11054" unicode="&#x51c6;" d="M596 842 l10 7 q64 -24 94.5 -54.5 q30.5 -30.5 37 -59.5 q6.5 -29 -5 -49 q-11.5 -20 -32 -24 q-20.5 -4 -42.5 17 q1 41 -18.5 86.5 q-19.5 45.5 -43.5 76.5 ZM64 791 l10 7 q73 -19 112.5 -48 q39.5 -29 52 -58.5 q12.5 -29.5 5 -52 q-7.5 -22.5 -27.5 -29 q-20 -6.5 -45 10.5 q-6 30 -23 61 q-17 31 -39.5 59.5 q-22.5 28.5 -44.5 49.5 ZM325 729 l16 -4 q-13 -42 -29 -95 q-16 -53 -33.5 -109 q-17.5 -56 -33 -106.5 q-15.5 -50.5 -27 -88 q-11.5 -37.5 -16.5 -53.5 q-6 -27 -10.5 -51.5 q-4.5 -24.5 -4.5 -43.5 q1 -23 9 -46 q8 -23 15.5 -51.5 q7.5 -28.5 5.5 -69.5 q-1 -33 -17 -52 q-16 -19 -45 -19 q-33 0 -39 48 q11 74 7.5 127.5 q-3.5 53.5 -20.5 64.5 q-10 8 -22 11 q-12 3 -27 4 l0 21 l43 0 q10 0 14.5 3 q4.5 3 11.5 19 q5 10 9 19 q4 9 11 25 q7 16 19.5 46 q12.5 30 33 80.5 q20.5 50.5 52 129 q31.5 78.5 77.5 191.5 ZM468 208 l0 -183 l164 0 l0 183 l-164 0 ZM632 615 l-164 0 l0 -176 l164 0 l0 176 ZM632 237 l0 173 l-164 0 l0 -173 l164 0 ZM827 25 l52 66 q0 0 16 -13 q16 -13 38 -31.5 q22 -18.5 39 -35.5 q-4 -16 -26 -16 l-478 0 l0 -51 q0 -5 -17 -15.5 q-17 -10.5 -46 -10.5 l-13 0 l0 566 q-27 -43 -58.5 -83 q-31.5 -40 -67.5 -75 l-12 10 q36 54 67 118 q31 64 55.5 132.5 q24.5 68.5 42.5 133.5 q18 65 28 120 l123 -35 q-4 -9 -11.5 -14 q-7.5 -5 -26.5 -5 q-10 -31 -24 -67 q-14 -36 -31 -73 l4 -2 l331 0 l50 65 q0 0 16 -12.5 q16 -12.5 38 -30.5 q22 -18 39 -35 q-4 -16 -26 -16 l-220 0 l0 -176 l83 0 l49 65 q0 0 15 -12.5 q15 -12.5 36 -30.5 q21 -18 38 -35 q-4 -16 -27 -16 l-194 0 l0 -173 l83 0 l49 65 q0 0 15 -12.5 q15 -12.5 36 -30.5 q21 -18 38 -35 q-4 -16 -27 -16 l-194 0 l0 -183 l118 0 Z" /><glyph glyph-name="cid11139" unicode="&#x51fa;" d="M809 341 l113 -12 q-1 -10 -9 -16.5 q-8 -6.5 -26 -9.5 l0 -350 q0 -7 -21 -15.5 q-21 -8.5 -43 -8.5 l-14 0 l0 80 l-611 0 l-29 -46 l-86 58 q5 6 13.5 12.5 q8.5 6.5 16.5 11.5 l0 301 l118 -11 q-1 -9 -9.5 -15.5 q-8.5 -6.5 -30.5 -9.5 l0 -272 l265 0 l0 389 l-210 0 l-28 -43 l-85 55 q12 13 30 24 l0 285 l117 -12 q-1 -8 -9.5 -14.5 q-8.5 -6.5 -31.5 -9.5 l0 -256 l217 0 l0 380 l117 -13 q-2 -10 -9.5 -17.5 q-7.5 -7.5 -26.5 -10.5 l0 -339 l222 0 l0 291 l113 -12 q-1 -10 -8.5 -16.5 q-7.5 -6.5 -26.5 -9.5 l0 -313 q0 -5 -21 -13.5 q-21 -8.5 -43 -8.5 l-14 0 l0 53 l-222 0 l0 -389 l272 0 l0 303 Z" /><glyph glyph-name="cid11140" unicode="&#x51fb;" d="M809 425 l56 70 q0 0 17.5 -13.5 q17.5 -13.5 42 -33 q24.5 -19.5 44.5 -37.5 q-4 -16 -28 -16 l-393 0 l0 -383 l234 0 l0 310 l117 -13 q-1 -10 -9 -17 q-8 -7 -27 -10 l0 -338 q0 -7 -21.5 -15 q-21.5 -8 -44.5 -8 l-15 0 l0 62 l-540 0 l-31 -42 l-93 54 q7 7 17.5 14.5 q10.5 7.5 20.5 11.5 l0 302 l116 -12 q-1 -11 -9.5 -18.5 q-8.5 -7.5 -28.5 -10.5 l0 -270 l233 0 l0 383 l-417 0 l-9 30 l426 0 l0 209 l-334 0 l-8 29 l342 0 l0 176 l118 -12 q-2 -11 -9.5 -18.5 q-7.5 -7.5 -27.5 -10.5 l0 -135 l191 0 l57 71 q0 0 17.5 -13.5 q17.5 -13.5 42 -33 q24.5 -19.5 44.5 -37.5 q-4 -16 -27 -16 l-325 0 l0 -209 l261 0 Z" /><glyph glyph-name="cid11157" unicode="&#x5206;" d="M344 839 l118 -45 q-4 -8 -12.5 -11.5 q-8.5 -3.5 -26.5 -2.5 q-34 -72 -88 -149.5 q-54 -77.5 -127.5 -146.5 q-73.5 -69 -167.5 -118 l-10 12 q77 58 139 136 q62 78 106.5 163 q44.5 85 68.5 162 ZM684 435 l46 48 l84 -73 q-5 -5 -14.5 -9 q-9.5 -4 -26.5 -6 q-7 -177 -27 -289.5 q-20 -112.5 -55 -146.5 q-43 -39 -121 -39 q0 18 -4 33 q-4 15 -17 24 q-12 10 -43 19 q-31 9 -63 13 l1 17 q24 -2 55 -4.5 q31 -2.5 58 -4.5 q27 -2 38 -2 q27 0 39 11 q15 14 26.5 65 q11.5 51 20 132 q8.5 81 13.5 183 l-219 0 q-7 -61 -25 -125.5 q-18 -64.5 -58 -128.5 q-40 -64 -113 -123.5 q-73 -59.5 -190 -110.5 l-13 15 q99 57 159.5 117.5 q60.5 60.5 91.5 121.5 q31 61 43.5 120.5 q12.5 59.5 15.5 113.5 l-203 0 l-9 29 l510 0 ZM605 848 l71 -23 q-5 -10 -14 -22.5 q-9 -12.5 -19 -25.5 q29 -69 78 -132.5 q49 -63.5 114 -114 q65 -50.5 142 -80.5 l-2 -11 q-22 -5 -41.5 -24 q-19.5 -19 -29.5 -43 q-122 74 -196.5 187.5 q-74.5 113.5 -112.5 282.5 l10 6 Z" /><glyph glyph-name="cid11211" unicode="&#x522b;" d="M431 740 l-250 0 l0 -210 l250 0 l0 210 ZM181 500 l0 -29 q0 -4 -17 -15 q-17 -11 -45 -11 l-12 0 l0 359 l86 -35 l229 0 l40 43 l86 -66 q-11 -13 -40 -19 l0 -250 q0 -3 -11 -8 q-11 -5 -26 -9 q-15 -4 -28 -4 l-12 0 l0 44 l-250 0 ZM432 352 l43 43 l81 -67 q-10 -12 -39 -16 q-7 -159 -24 -245 q-17 -86 -49 -114 q-20 -17 -46.5 -25 q-26.5 -8 -55.5 -8 q0 17 -3.5 31 q-3.5 14 -13.5 22 q-9 9 -30.5 16.5 q-21.5 7.5 -45.5 11.5 l1 16 q16 -1 37.5 -3 q21.5 -2 41.5 -3.5 q20 -1.5 30 -1.5 q22 0 32 10 q19 17 31 93.5 q12 76.5 19 209.5 l-146 0 q-11 -78 -36.5 -153.5 q-25.5 -75.5 -76.5 -140.5 q-51 -65 -138 -113 l-12 15 q63 47 101.5 109.5 q38.5 62.5 59 134.5 q20.5 72 28.5 148 l-165 0 l-9 30 l177 0 q3 32 4.5 65.5 q1.5 33.5 2.5 66.5 l110 -11 q-2 -10 -9.5 -17 q-7.5 -7 -24.5 -9 q-1 -24 -3 -47.5 q-2 -23.5 -5 -47.5 l133 0 ZM708 712 l0 -560 q0 -7 -20 -16 q-20 -9 -41 -9 l-15 0 l0 625 l113 -12 q-2 -10 -10 -17.5 q-8 -7.5 -27 -10.5 ZM832 824 l117 -13 q-2 -10 -10.5 -17.5 q-8.5 -7.5 -26.5 -9.5 l0 -752 q0 -32 -8 -55 q-8 -23 -33.5 -36.5 q-25.5 -13.5 -79.5 -19.5 q-3 20 -8 34.5 q-5 14.5 -15 24.5 q-13 10 -34 17 q-21 7 -58 13 l0 15 q0 0 17 -1 q17 -1 40.5 -3 q23.5 -2 45 -3 q21.5 -1 29.5 -1 q14 0 19 5 q5 5 5 16 l0 786 Z" /><glyph glyph-name="cid11218" unicode="&#x5230;" d="M260 721 l-205 0 l-8 29 l417 0 l50 65 q0 0 15.5 -12.5 q15.5 -12.5 37.5 -30.5 q22 -18 39 -35 q-3 -16 -27 -16 l-312 0 l105 -37 q-3 -7 -11.5 -12.5 q-8.5 -5.5 -24.5 -4.5 q-23 -26 -55 -57 q-32 -31 -68 -60.5 q-36 -29.5 -71 -54.5 q59 3 146.5 9.5 q87.5 6.5 187.5 14.5 q-18 34 -42 65.5 q-24 31.5 -49 54.5 l11 7 q76 -29 116.5 -65 q40.5 -36 53.5 -70 q13 -34 7 -58.5 q-6 -24.5 -25 -31.5 q-19 -7 -42 12 q-4 31 -20 65 q-65 -15 -154.5 -35 q-89.5 -20 -193.5 -40 q-8 -18 -22 -25 l-46 102 q0 0 11 2.5 q11 2.5 17 6.5 q22 16 46 42.5 q24 26.5 46.5 57 q22.5 30.5 40.5 60.5 q18 30 29 52 ZM350 265 l0 -175 q59 11 123.5 22 q64.5 11 129.5 23 l4 -16 q-85 -31 -207 -70 q-122 -39 -289 -87 q-7 -19 -25 -24 l-46 104 q37 5 96.5 13.5 q59.5 8.5 135.5 21.5 l0 188 l-199 0 l-8 29 l207 0 l0 144 l114 -11 q-2 -10 -9.5 -17 q-7.5 -7 -26.5 -10 l0 -106 l88 0 l50 65 q0 0 15.5 -12.5 q15.5 -12.5 36.5 -30.5 q21 -18 38 -35 q-4 -16 -27 -16 l-201 0 ZM724 709 l0 -551 q0 -7 -20 -15.5 q-20 -8.5 -40 -8.5 l-15 0 l0 615 l112 -12 q-2 -10 -9.5 -17.5 q-7.5 -7.5 -27.5 -10.5 ZM839 825 l113 -12 q-1 -10 -9.5 -17.5 q-8.5 -7.5 -26.5 -10.5 l0 -760 q0 -30 -7.5 -52.5 q-7.5 -22.5 -32 -36 q-24.5 -13.5 -76.5 -18.5 q-2 19 -7 33.5 q-5 14.5 -15 23.5 q-12 10 -31.5 17 q-19.5 7 -54.5 12 l0 15 q0 0 16 -1 q16 -1 38 -3 q22 -2 42 -3 q20 -1 28 -1 q14 0 18.5 5 q4.5 5 4.5 17 l0 792 Z" /><glyph glyph-name="cid11228" unicode="&#x5236;" d="M488 508 l49 62 q0 0 15.5 -12.5 q15.5 -12.5 36.5 -30 q21 -17.5 39 -33.5 q-4 -16 -27 -16 l-242 0 l0 -119 l115 0 l37 44 l90 -66 q-11 -15 -42 -21 l0 -224 q0 -28 -6 -48.5 q-6 -20.5 -25.5 -33 q-19.5 -12.5 -60.5 -17.5 q-1 17 -3.5 31.5 q-2.5 14.5 -9.5 24.5 q-5 7 -16.5 13 q-11.5 6 -31.5 10 l0 16 q0 0 12.5 -1 q12.5 -1 27.5 -2 q15 -1 22 -1 q10 0 13 3.5 q3 3.5 3 12.5 l0 231 l-125 0 l0 -381 q0 -8 -19 -19 q-19 -11 -41 -11 l-15 0 l0 411 l-123 0 l0 -319 q0 -5 -19.5 -14.5 q-19.5 -9.5 -42.5 -9.5 l-11 0 l0 406 l79 -35 l117 0 l0 119 l-245 0 l-8 30 l253 0 l0 133 l-128 0 q-40 -64 -91 -110 l-14 9 q27 50 51.5 122 q24.5 72 39.5 147 l110 -33 q-3 -8 -11.5 -14 q-8.5 -6 -25.5 -6 q-19 -47 -42 -86 l111 0 l0 167 l112 -13 q-2 -10 -9.5 -17.5 q-7.5 -7.5 -27.5 -10.5 l0 -126 l100 0 l49 63 q0 0 15 -12.5 q15 -12.5 36 -30.5 q21 -18 38 -34 q-4 -15 -27 -15 l-211 0 l0 -133 l129 0 ZM733 721 l0 -568 q0 -7 -19 -16 q-19 -9 -39 -9 l-14 0 l0 630 l107 -11 q-2 -10 -9.5 -17 q-7.5 -7 -25.5 -9 ZM841 823 l111 -12 q-2 -10 -10 -17.5 q-8 -7.5 -26 -9.5 l0 -759 q0 -30 -7 -52 q-7 -22 -30.5 -35.5 q-23.5 -13.5 -73.5 -18.5 q-1 19 -5.5 32.5 q-4.5 13.5 -15.5 23.5 q-10 10 -28.5 17 q-18.5 7 -51.5 11 l0 15 q0 0 14.5 -1 q14.5 -1 35.5 -2.5 q21 -1.5 39.5 -2.5 q18.5 -1 25.5 -1 q13 0 17.5 5 q4.5 5 4.5 15 l0 792 Z" /><glyph glyph-name="cid11318" unicode="&#x526f;" d="M355 24 l136 0 l0 140 l-136 0 l0 -140 ZM153 164 l0 -140 l133 0 l0 140 l-133 0 ZM286 329 l-133 0 l0 -136 l133 0 l0 136 ZM491 329 l-136 0 l0 -136 l136 0 l0 136 ZM481 357 l41 46 l90 -68 q-5 -6 -16.5 -12 q-11.5 -6 -26.5 -9 l0 -356 q0 -3 -11 -8.5 q-11 -5.5 -26 -10 q-15 -4.5 -29 -4.5 l-12 0 l0 60 l-338 0 l0 -51 q0 -6 -20 -16 q-20 -10 -45 -10 l-12 0 l0 475 l81 -36 l324 0 ZM197 490 l248 0 l0 132 l-248 0 l0 -132 ZM457 425 l-12 0 l0 35 l-248 0 l0 -25 q0 -5 -21 -14.5 q-21 -9.5 -44 -9.5 l-11 0 l0 275 l81 -35 l233 0 l40 44 l90 -67 q-12 -14 -42 -20 l0 -162 q0 -3 -11.5 -8 q-11.5 -5 -26.5 -9 q-15 -4 -28 -4 ZM476 765 l50 63 q0 0 15.5 -12.5 q15.5 -12.5 37 -30 q21.5 -17.5 38.5 -33.5 q-4 -15 -27 -15 l-544 0 l-8 28 l438 0 ZM733 721 l0 -568 q0 -7 -19 -16 q-19 -9 -40 -9 l-14 0 l0 630 l108 -11 q-2 -10 -9.5 -17 q-7.5 -7 -25.5 -9 ZM843 823 l110 -12 q-1 -10 -9 -17.5 q-8 -7.5 -27 -9.5 l0 -759 q0 -30 -7 -52 q-7 -22 -30.5 -35.5 q-23.5 -13.5 -72.5 -18.5 q-2 19 -6.5 32.5 q-4.5 13.5 -15.5 23.5 q-10 10 -29 17 q-19 7 -51 11 l0 15 q0 0 15 -1 q15 -1 35.5 -2.5 q20.5 -1.5 39.5 -2.5 q19 -1 26 -1 q13 0 17.5 5 q4.5 5 4.5 15 l0 792 Z" /><glyph glyph-name="cid11399" unicode="&#x2f12;&#x529b;&#xf98a;" d="M819 636 l88 -76 q-11 -11 -44 -17 q-4 -150 -14 -268.5 q-10 -118.5 -27 -195.5 q-17 -77 -43 -105 q-44 -47 -133 -47 q1 19 -4 34.5 q-5 15.5 -18 25.5 q-15 11 -49.5 21 q-34.5 10 -72.5 16 l1 17 q28 -3 63 -6 q35 -3 65 -5 q30 -2 43 -2 q16 0 24.5 3 q8.5 3 16.5 10 q19 17 32 87.5 q13 70.5 21.5 181 q8.5 110.5 12.5 245.5 l-282 0 q-7 -96 -29 -185 q-22 -89 -69.5 -169.5 q-47.5 -80.5 -131 -151.5 q-83.5 -71 -213.5 -130 l-11 17 q107 62 175.5 132.5 q68.5 70.5 108.5 148 q40 77.5 59 162.5 q19 85 25 176 l-312 0 l-9 30 l322 0 q4 61 4 125 q0 64 0 130 l125 -13 q-2 -11 -9.5 -18.5 q-7.5 -7.5 -26.5 -9.5 q-1 -55 -2 -108.5 q-1 -53.5 -4 -105.5 l270 0 l48 51 Z" /><glyph glyph-name="cid11405" unicode="&#x529f;" d="M480 323 l5 -14 q-63 -35 -155 -84 q-92 -49 -218 -110 q-1 -9 -7 -15.5 q-6 -6.5 -14 -10.5 l-56 94 q26 7 69.5 20 q43.5 13 97.5 29 l0 436 l-142 0 l-7 29 l277 0 l51 64 q0 0 15 -12.5 q15 -12.5 36.5 -30 q21.5 -17.5 38.5 -34.5 q-4 -16 -27 -16 l-163 0 l0 -411 q47 16 97.5 32.5 q50.5 16.5 101.5 33.5 ZM878 637 l85 -72 q-11 -13 -43 -17 q-8 -246 -29 -391.5 q-21 -145.5 -60 -186.5 q-23 -25 -54 -36 q-31 -11 -70 -11 q1 19 -3.5 34 q-4.5 15 -15.5 24 q-12 10 -40 18.5 q-28 8.5 -60 14.5 l1 17 q23 -2 51.5 -5 q28.5 -3 53.5 -4.5 q25 -1.5 36 -1.5 q15 0 23.5 3 q8.5 3 17.5 10 q19 18 33 86.5 q14 68.5 23.5 180.5 q9.5 112 14.5 259 l-192 0 q-6 -99 -24 -189.5 q-18 -90.5 -59.5 -171.5 q-41.5 -81 -115.5 -151 q-74 -70 -193 -128 l-13 16 q97 61 159 131 q62 70 97 148 q35 78 50.5 164.5 q15.5 86.5 20.5 180.5 l-172 0 l-9 30 l182 0 q2 59 2 120 q0 61 0 126 l117 -12 q-1 -11 -9.5 -18.5 q-8.5 -7.5 -26.5 -9.5 q-1 -53 -1.5 -104.5 q-0.5 -51.5 -2.5 -101.5 l180 0 l46 48 Z" /><glyph glyph-name="cid11406" unicode="&#x52a0;" d="M403 623 l46 49 l85 -72 q-11 -14 -42 -18 q-6 -270 -22 -414 q-16 -144 -52 -185 q-22 -23 -52 -34.5 q-30 -11.5 -65 -11.5 q0 19 -3 34 q-3 15 -14 24 q-11 11 -35.5 19 q-24.5 8 -53.5 13 l1 17 q20 -2 44.5 -4.5 q24.5 -2.5 46.5 -4 q22 -1.5 32 -1.5 q14 0 22 3 q8 3 15 10 q27 26 39.5 166 q12.5 140 18.5 381 l-131 0 q-4 -88 -15.5 -178 q-11.5 -90 -37.5 -177 q-26 -87 -72 -167.5 q-46 -80.5 -118 -150.5 l-16 14 q71 97 108 205.5 q37 108.5 52.5 223.5 q15.5 115 18.5 230 l-146 0 l-8 29 l155 0 q2 55 1.5 108.5 q-0.5 53.5 -0.5 105.5 l119 -12 q-2 -10 -9.5 -17.5 q-7.5 -7.5 -26.5 -10.5 q-1 -42 -1.5 -86 q-0.5 -44 -2.5 -88 l119 0 ZM663 75 l167 0 l0 567 l-167 0 l0 -567 ZM862 721 l93 -73 q-12 -16 -44 -22 l0 -640 q-1 -4 -12 -11 q-11 -7 -26.5 -13 q-15.5 -6 -30.5 -6 l-12 0 l0 90 l-167 0 l0 -75 q0 -7 -19 -18 q-19 -11 -46 -11 l-14 0 l0 767 l83 -39 l152 0 l43 51 Z" /><glyph glyph-name="cid11416" unicode="&#x52a8;" d="M439 692 l-351 0 l-8 29 l244 0 l49 64 q0 0 15.5 -12.5 q15.5 -12.5 37.5 -30 q22 -17.5 39 -34.5 q-4 -16 -26 -16 ZM319 342 l14 5 q63 -48 94.5 -95.5 q31.5 -47.5 38 -88 q6.5 -40.5 -3.5 -66.5 q-10 -26 -30 -31.5 q-20 -5.5 -42 17.5 q1 15 -0.5 31 q-1.5 16 -3.5 32 q-53 -19 -123 -43 q-70 -24 -150 -48 q-10 -16 -25 -21 l-46 111 q0 0 12.5 3.5 q12.5 3.5 17.5 7.5 q20 25 40.5 64.5 q20.5 39.5 40 85 q19.5 45.5 34.5 89 q15 43.5 23 76.5 l-169 0 l-7 30 l342 0 l51 64 q0 0 15.5 -12.5 q15.5 -12.5 37 -30.5 q21.5 -18 38.5 -35 q-4 -16 -26 -16 l-279 0 l116 -40 q-3 -7 -11.5 -12.5 q-8.5 -5.5 -24.5 -5.5 q-21 -42 -52.5 -91 q-31.5 -49 -66.5 -96.5 q-35 -47.5 -69 -85.5 q50 5 122.5 14 q72.5 9 152.5 20 q-10 45 -27 89.5 q-17 44.5 -34 78.5 ZM883 651 l84 -71 q-6 -6 -16 -10.5 q-10 -4.5 -27 -6.5 q-3 -184 -11 -306.5 q-8 -122.5 -22 -192 q-14 -69.5 -38 -95.5 q-22 -24 -50.5 -35 q-28.5 -11 -61.5 -11 q0 19 -3 33.5 q-3 14.5 -13 23.5 q-10 9 -33 17 q-23 8 -49 13 l1 17 q18 -2 40.5 -4 q22.5 -2 43 -3 q20.5 -1 30.5 -1 q13 0 20.5 2.5 q7.5 2.5 14.5 9.5 q26 24 38 160 q12 136 17 384 l-157 0 q-4 -105 -18 -199 q-14 -94 -48.5 -177.5 q-34.5 -83.5 -98 -154.5 q-63.5 -71 -167.5 -130 l-12 16 q82 61 133 132 q51 71 79 151.5 q28 80.5 39.5 171 q11.5 90.5 14.5 190.5 l-155 0 l-9 29 l164 0 q2 56 1.5 115.5 q-0.5 59.5 -0.5 121.5 l117 -12 q-2 -11 -10 -18 q-8 -7 -27 -10 q-1 -51 -1 -100.5 q0 -49.5 -1 -96.5 l146 0 l45 47 Z" /><glyph glyph-name="cid11417" unicode="&#x52a9;" d="M186 322 l0 -198 q38 7 79.5 15 q41.5 8 85.5 17 l0 166 l-165 0 ZM351 729 l-165 0 l0 -174 l165 0 l0 174 ZM351 351 l0 176 l-165 0 l0 -176 l165 0 ZM511 188 l3 -15 q-73 -29 -177.5 -69 q-104.5 -40 -247.5 -88 q-6 -19 -25 -24 l-39 104 q17 2 39 6 q22 4 49 8 l0 686 l86 -39 l142 0 l42 46 l84 -68 q-10 -14 -41 -20 l0 -544 l85 17 ZM879 629 l83 -72 q-10 -12 -41 -16 q-7 -248 -24.5 -389.5 q-17.5 -141.5 -54.5 -182.5 q-22 -23 -52.5 -34 q-30.5 -11 -66.5 -11 q1 19 -2.5 33.5 q-3.5 14.5 -14.5 22.5 q-12 11 -39.5 19.5 q-27.5 8.5 -56.5 13.5 l0 17 q22 -2 49 -4.5 q27 -2.5 51 -4.5 q24 -2 35 -2 q24 0 38 14 q27 25 41 161 q14 136 21 357 l-162 0 q-5 -100 -21 -190 q-16 -90 -54 -169 q-38 -79 -106 -147.5 q-68 -68.5 -176 -124.5 l-13 16 q87 59 142.5 126.5 q55.5 67.5 86.5 144.5 q31 77 44.5 163 q13.5 86 17.5 181 l-145 0 l-8 30 l154 0 q2 59 1.5 121 q-0.5 62 -0.5 127 l117 -12 q-1 -11 -9 -18 q-8 -7 -26 -10 q-1 -54 -1.5 -106 q-0.5 -52 -2.5 -102 l151 0 l44 48 Z" /><glyph glyph-name="cid11668" unicode="&#x533a;" d="M808 1 l53 71 q0 0 17 -13.5 q17 -13.5 40 -33 q23 -19.5 41 -37.5 q-4 -16 -27 -16 l-741 0 l-28 -45 l-88 56 q9 12 28 24 l0 791 l93 -38 l590 0 l47 62 q0 0 15.5 -12 q15.5 -12 36.5 -29.5 q21 -17.5 38 -34.5 q-4 -16 -27 -16 l-713 0 l0 -729 l625 0 ZM684 674 l115 -55 q-4 -8 -15 -13 q-11 -5 -28 -2 q-28 -57 -61 -108 q-33 -51 -69 -98 q80 -69 117 -124 q37 -55 41.5 -91 q4.5 -36 -14.5 -47 q-19 -11 -51 7 q-24 43 -62.5 91.5 q-38.5 48.5 -84.5 98.5 q-68 -76 -145 -135 q-77 -59 -160 -102 l-12 12 q68 50 137.5 120.5 q69.5 70.5 131.5 155.5 q-58 59 -117 113 q-59 54 -109 97 l13 10 q79 -41 142 -80.5 q63 -39.5 112 -77.5 q35 53 64.5 110 q29.5 57 54.5 118 Z" /><glyph glyph-name="cid11685" unicode="&#x2f17;&#x5341;" d="M795 472 l59 77 q0 0 18.5 -15 q18.5 -15 44 -36 q25.5 -21 44.5 -40 q-4 -15 -26 -15 l-394 0 l0 -489 q0 -7 -22 -19.5 q-22 -12.5 -48 -12.5 l-16 0 l0 521 l-404 0 l-9 29 l413 0 l0 365 l125 -13 q-2 -11 -10 -19 q-8 -8 -29 -12 l0 -321 l254 0 Z" /><glyph glyph-name="cid11702" unicode="&#x534e;" d="M348 454 l-8 13 q105 43 208 101 l0 271 l112 -11 q-2 -22 -32 -26 l0 -185 q62 40 114.5 82 q52.5 42 89.5 81 l96 -72 q-7 -7 -15 -8.5 q-8 -1.5 -25 4.5 q-47 -39 -114 -78.5 q-67 -39.5 -146 -74.5 l0 -120 q0 -13 7.5 -18 q7.5 -5 35.5 -5 l96 0 q30 0 53.5 0.5 q23.5 0.5 34.5 1.5 q13 0 21 12 q7 13 16.5 49 q9.5 36 19.5 80 l12 0 l3 -133 q20 -7 26.5 -14.5 q6.5 -7.5 6.5 -18.5 q0 -17 -16 -27 q-16 -10 -59 -13.5 q-43 -3.5 -123 -3.5 l-107 0 q-65 0 -86 16.5 q-21 16.5 -21 59.5 l0 100 q-48 -19 -99 -35 q-51 -16 -101 -28 ZM230 306 l0 284 q-39 -37 -82.5 -71.5 q-43.5 -34.5 -90.5 -61.5 l-11 11 q56 52 107 117.5 q51 65.5 91.5 133.5 q40.5 68 64.5 125 l119 -46 q-4 -8 -11.5 -12 q-7.5 -4 -26.5 -3 q-16 -26 -38 -55.5 q-22 -29.5 -48 -59.5 l36 -14 q-5 -12 -30 -17 l0 -307 q-1 -5 -21.5 -14.5 q-20.5 -9.5 -43.5 -9.5 l-15 0 ZM825 213 l50 67 q0 0 16 -13 q16 -13 38 -32 q22 -19 39 -36 q-4 -16 -27 -16 l-399 0 l0 -242 q0 -5 -22.5 -14 q-22.5 -9 -45.5 -9 l-15 0 l0 265 l-413 0 l-9 30 l422 0 l0 146 l119 -12 q-1 -10 -9 -17 q-8 -7 -27 -10 l0 -107 l283 0 Z" /><glyph glyph-name="cid11703" unicode="&#x534f;" d="M351 527 l-130 0 l0 -577 q0 -8 -20.5 -19 q-20.5 -11 -41.5 -11 l-15 0 l0 607 l-106 0 l-8 29 l114 0 l0 284 l109 -11 q-1 -10 -8 -17 q-7 -7 -24 -9 l0 -247 l27 0 l45 59 q0 0 14.5 -11.5 q14.5 -11.5 34.5 -28.5 q20 -17 35 -32 q-4 -16 -26 -16 ZM389 474 l16 -2 q14 -57 10 -104.5 q-4 -47.5 -18 -81.5 q-14 -34 -33 -54 q-16 -20 -43 -22.5 q-27 -2.5 -39 16.5 q-11 17 -3.5 35.5 q7.5 18.5 24.5 31.5 q18 15 36.5 43 q18.5 28 32.5 64 q14 36 17 74 ZM775 670 l84 -73 q-11 -11 -41 -17 q-4 -274 -18 -420 q-14 -146 -49 -187 q-22 -25 -52 -36.5 q-30 -11.5 -65 -10.5 q0 20 -3.5 35 q-3.5 15 -14.5 23 q-11 11 -37.5 19 q-26.5 8 -55.5 13 l1 17 q20 -2 46 -4 q26 -2 48.5 -3.5 q22.5 -1.5 33.5 -1.5 q14 0 21.5 2.5 q7.5 2.5 14.5 9.5 q26 25 37 168.5 q11 143.5 15 387.5 l-150 0 q-3 -102 -16 -197 q-13 -95 -45 -180.5 q-32 -85.5 -91.5 -160 q-59.5 -74.5 -156.5 -136.5 l-13 16 q75 65 121.5 139 q46.5 74 72 156.5 q25.5 82.5 36 173 q10.5 90.5 13.5 189.5 l-159 0 l-8 30 l168 0 q1 53 0.5 107.5 q-0.5 54.5 -0.5 112.5 l119 -13 q-2 -10 -10 -17.5 q-8 -7.5 -27 -10.5 q-1 -46 -1 -90.5 q0 -44.5 -2 -88.5 l138 0 l46 48 ZM823 458 l13 6 q61 -41 91.5 -82.5 q30.5 -41.5 37 -76.5 q6.5 -35 -2.5 -57.5 q-9 -22.5 -28 -27 q-19 -4.5 -40 16.5 q0 36 -11 75.5 q-11 39.5 -27 77.5 q-16 38 -33 68 Z" /><glyph glyph-name="cid11711" unicode="&#x5355;" d="M239 823 l11 7 q74 -21 113.5 -51.5 q39.5 -30.5 52.5 -61 q13 -30.5 6 -53.5 q-7 -23 -26.5 -30 q-19.5 -7 -44.5 10 q-6 30 -24 62.5 q-18 32.5 -41.5 63 q-23.5 30.5 -46.5 53.5 ZM249 300 l210 0 l0 134 l-210 0 l0 -134 ZM459 593 l-210 0 l0 -130 l210 0 l0 130 ZM746 593 l-206 0 l0 -130 l206 0 l0 130 ZM540 300 l206 0 l0 134 l-206 0 l0 -134 ZM804 149 l58 71 q0 0 17.5 -13.5 q17.5 -13.5 42.5 -33 q25 -19.5 45 -37.5 q-4 -16 -28 -16 l-399 0 l0 -178 q0 -4 -18 -14.5 q-18 -10.5 -50 -10.5 l-13 0 l0 203 l-418 0 l-9 29 l427 0 l0 122 l-210 0 l0 -26 q0 -6 -21.5 -16.5 q-21.5 -10.5 -45.5 -10.5 l-13 0 l0 443 l87 -38 l293 0 q29 38 62.5 98 q33.5 60 61.5 121 l111 -54 q-4 -7 -13.5 -11.5 q-9.5 -4.5 -26.5 -2.5 q-37 -43 -80.5 -82.5 q-43.5 -39.5 -84.5 -68.5 l157 0 l42 45 l89 -69 q-4 -5 -15 -10.5 q-11 -5.5 -26 -8.5 l0 -324 q0 -4 -11.5 -10.5 q-11.5 -6.5 -26.5 -11.5 q-15 -5 -29 -5 l-13 0 l0 42 l-206 0 l0 -122 l264 0 Z" /><glyph glyph-name="cid11714" unicode="&#x5357;" d="M735 147 l-198 0 l0 -186 q0 -4 -17.5 -12.5 q-17.5 -8.5 -47.5 -8.5 l-13 0 l0 207 l-201 0 l-8 29 l209 0 l0 124 l-176 0 l-7 29 l256 0 q16 37 32 84.5 q16 47.5 26 84.5 l106 -31 q-7 -19 -37 -18 q-19 -27 -46 -59 q-27 -32 -54 -61 l64 0 l43 52 q0 0 13.5 -10.5 q13.5 -10.5 32.5 -25.5 q19 -15 34 -29 q-4 -16 -26 -16 l-183 0 l0 -124 l89 0 l47 58 q0 0 15 -11.5 q15 -11.5 35.5 -28 q20.5 -16.5 36.5 -31.5 q-4 -16 -25 -16 ZM320 488 l11 6 q56 -19 83 -44.5 q27 -25.5 32.5 -50 q5.5 -24.5 -4 -41.5 q-9.5 -17 -27.5 -20.5 q-18 -3.5 -38 13.5 q-2 35 -20 73.5 q-18 38.5 -37 63.5 ZM795 702 l56 70 q0 0 18 -13.5 q18 -13.5 42.5 -33 q24.5 -19.5 43.5 -37.5 q-4 -16 -27 -16 l-389 0 l0 -129 l248 0 l40 46 l93 -71 q-4 -5 -15.5 -11 q-11.5 -6 -26.5 -8 l0 -474 q0 -30 -8 -52 q-8 -22 -34 -36 q-26 -14 -81 -19 q-1 19 -6.5 34 q-5.5 15 -16.5 23 q-13 10 -34 17.5 q-21 7.5 -58 12.5 l0 15 q0 0 17 -1 q17 -1 40.5 -3 q23.5 -2 45 -3 q21.5 -1 30.5 -1 q24 0 24 22 l0 479 l-581 0 l0 -565 q0 -7 -21 -18.5 q-21 -11.5 -46 -11.5 l-14 0 l0 663 l88 -38 l235 0 l0 129 l-399 0 l-8 30 l407 0 l0 143 l118 -11 q-1 -10 -9.5 -17.5 q-8.5 -7.5 -27.5 -10.5 l0 -104 l256 0 Z" /><glyph glyph-name="cid11719" unicode="&#x535a;" d="M710 822 l8 9 q53 -3 81.5 -17 q28.5 -14 37 -32 q8.5 -18 2.5 -33 q-6 -15 -21.5 -20 q-15.5 -5 -35.5 6 q-7 24 -28.5 48.5 q-21.5 24.5 -43.5 38.5 ZM346 526 l-119 0 l0 -576 q0 -8 -20.5 -19.5 q-20.5 -11.5 -42.5 -11.5 l-15 0 l0 607 l-109 0 l-8 29 l117 0 l0 287 l114 -13 q-2 -10 -9 -17.5 q-7 -7.5 -27 -10.5 l0 -246 l25 0 l42 60 q0 0 13.5 -12 q13.5 -12 31.5 -29 q18 -17 32 -32 q-3 -16 -25 -16 ZM419 154 l9 8 q65 -12 99.5 -34.5 q34.5 -22.5 45 -47 q10.5 -24.5 4 -43.5 q-6.5 -19 -24.5 -25 q-18 -6 -41 10 q-7 34 -35 71.5 q-28 37.5 -57 60.5 ZM669 391 l140 0 l0 80 l-140 0 l0 -80 ZM454 391 l138 0 l0 80 l-138 0 l0 -80 ZM592 580 l-138 0 l0 -80 l138 0 l0 80 ZM809 580 l-140 0 l0 -80 l140 0 l0 80 ZM835 213 l45 57 q0 0 14 -11.5 q14 -11.5 33.5 -27.5 q19.5 -16 35.5 -32 q-4 -16 -27 -16 l-160 0 l0 -165 q0 -28 -7 -48.5 q-7 -20.5 -29.5 -32.5 q-22.5 -12 -71.5 -17 q-2 16 -6.5 28.5 q-4.5 12.5 -14.5 20.5 q-10 8 -28 14.5 q-18 6.5 -50 10.5 l0 16 q0 0 14.5 -1 q14.5 -1 34.5 -3 q20 -2 38 -3 q18 -1 25 -1 q21 0 21 19 l0 162 l-399 0 l-8 30 l407 0 l0 86 l107 -11 l0 73 l-140 0 l0 -68 q0 -6 -21 -15.5 q-21 -9.5 -41 -9.5 l-15 0 l0 93 l-138 0 l0 -86 q0 -6 -20 -15.5 q-20 -9.5 -43 -9.5 l-12 0 l0 395 l81 -35 l132 0 l0 74 l-264 0 l-8 30 l272 0 l0 127 l108 -11 q-2 -9 -8.5 -15.5 q-6.5 -6.5 -22.5 -9.5 l0 -91 l175 0 l42 55 q0 0 13 -11 q13 -11 31 -27 q18 -16 33 -31 q-4 -16 -26 -16 l-268 0 l0 -74 l132 0 l38 39 l81 -61 q-4 -4 -13 -9.5 q-9 -5.5 -21 -7.5 l0 -265 q0 -3 -11 -8.5 q-11 -5.5 -25.5 -10 q-14.5 -4.5 -27.5 -4.5 l-12 0 q-6 -16 -34 -20 l0 -50 l59 0 Z" /><glyph glyph-name="cid11751" unicode="&#x5370;" d="M180 456 l145 0 l51 66 q0 0 16 -13 q16 -13 38.5 -31 q22.5 -18 39.5 -35 q-4 -16 -27 -16 l-263 0 l0 -248 q60 12 137.5 30.5 q77.5 18.5 158.5 37.5 l3 -14 q-55 -26 -148.5 -68 q-93.5 -42 -206.5 -86 q-5 -6 -11 -10 q-6 -4 -11 -6 l-40 93 q26 11 33 19.5 q7 8.5 7 22.5 l0 567 l85 -46 q53 20 114.5 47.5 q61.5 27.5 116.5 58.5 l77 -80 q-7 -5 -16 -6 q-9 -1 -22 5 q-41 -13 -90.5 -23.5 q-49.5 -10.5 -98 -17.5 q-48.5 -7 -88.5 -10 l0 -237 ZM864 780 l93 -71 q-10 -14 -42 -20 l0 -495 q0 -29 -8 -51.5 q-8 -22.5 -35 -36.5 q-27 -14 -84 -19 q-3 19 -8.5 33.5 q-5.5 14.5 -16.5 22.5 q-13 11 -36.5 18.5 q-23.5 7.5 -62.5 12.5 l0 16 q0 0 18.5 -1.5 q18.5 -1.5 44 -3 q25.5 -1.5 49 -3 q23.5 -1.5 32.5 -1.5 q16 0 21.5 5.5 q5.5 5.5 5.5 17.5 l0 499 l-226 0 l0 -757 q0 -5 -18 -15.5 q-18 -10.5 -48 -10.5 l-13 0 l0 859 l92 -46 l203 0 l39 47 Z" /><glyph glyph-name="cid11756" unicode="&#x5373;" d="M190 408 l218 0 l0 150 l-218 0 l0 -150 ZM190 738 l0 -151 l218 0 l0 151 l-218 0 ZM398 767 l42 45 l88 -68 q-5 -6 -16.5 -12 q-11.5 -6 -26.5 -9 l0 -383 q0 -3 -11 -8 q-11 -5 -25.5 -9.5 q-14.5 -4.5 -27.5 -4.5 l-13 0 l0 60 l-218 0 l0 -292 q42 17 94 38 q52 21 107 45 q-17 37 -38.5 71 q-21.5 34 -43.5 62 l13 7 q80 -50 123 -102 q43 -52 57 -97 q14 -45 7 -75 q-7 -30 -27 -38 q-20 -8 -44 15 q-1 32 -11 66 q-10 34 -25 68 q-43 -30 -105 -71 q-62 -41 -134 -85 q-5 -11 -12 -18.5 q-7 -7.5 -14 -11.5 l-50 95 q17 11 22 19 q5 8 5 25 l0 706 l88 -38 l196 0 ZM866 811 l90 -68 q-10 -13 -41 -20 l0 -521 q0 -29 -7 -51.5 q-7 -22.5 -31 -36.5 q-24 -14 -74 -19 q-1 20 -5.5 35 q-4.5 15 -14.5 23 q-10 11 -28.5 18 q-18.5 7 -50.5 12 l0 15 q0 0 14.5 -1 q14.5 -1 34 -2.5 q19.5 -1.5 38 -2.5 q18.5 -1 25.5 -1 q13 0 17.5 5 q4.5 5 4.5 16 l0 524 l-185 0 l0 -791 q0 -7 -18 -18.5 q-18 -11.5 -44 -11.5 l-14 0 l0 889 l81 -39 l170 0 l38 46 Z" /><glyph glyph-name="cid11785" unicode="&#x5386;" d="M794 486 l46 47 l84 -71 q-11 -13 -41 -17 q-7 -203 -26 -319 q-19 -116 -54 -151 q-22 -22 -51 -31.5 q-29 -9.5 -65 -9.5 q0 19 -3.5 33.5 q-3.5 14.5 -14.5 23.5 q-12 9 -38 17.5 q-26 8.5 -55 13.5 l0 16 q21 -1 47.5 -3.5 q26.5 -2.5 50 -4 q23.5 -1.5 34.5 -1.5 q25 0 37 11 q23 22 37.5 131 q14.5 109 21.5 286 l-216 0 q-6 -77 -24.5 -154 q-18.5 -77 -60 -148 q-41.5 -71 -114.5 -131 q-73 -60 -187 -103 l-9 14 q93 50 152 110.5 q59 60.5 92 128.5 q33 68 48 139.5 q15 71.5 19 143.5 l-225 0 l-8 29 l235 0 q1 20 1 40 q0 20 0 39 l0 124 l120 -13 q-1 -10 -8 -17 q-7 -7 -27 -9 l0 -88 q0 -19 -0.5 -37.5 q-0.5 -18.5 -1.5 -38.5 l204 0 ZM811 751 l52 66 q0 0 16.5 -13 q16.5 -13 39 -31 q22.5 -18 39.5 -35 q-4 -16 -26 -16 l-698 0 l0 -234 q0 -67 -5.5 -141.5 q-5.5 -74.5 -24 -149.5 q-18.5 -75 -57 -145 q-38.5 -70 -105.5 -127 l-14 9 q56 81 82.5 172.5 q26.5 91.5 34.5 188.5 q8 97 8 192 l0 307 l95 -43 l563 0 Z" /><glyph glyph-name="cid11890" unicode="&#x53c9;" d="M375 622 l9 7 q77 -19 118 -48.5 q41 -29.5 55 -59 q14 -29.5 7 -52 q-7 -22.5 -26.5 -29.5 q-19.5 -7 -44.5 10 q-7 29 -26.5 60.5 q-19.5 31.5 -43.5 61 q-24 29.5 -48 50.5 ZM730 710 l-487 0 q33 -145 96 -260 q63 -115 153 -201 q86 99 145 215.5 q59 116.5 93 245.5 ZM779 792 l89 -84 q-5 -8 -15 -11.5 q-10 -3.5 -28 -5.5 q-41 -139 -107.5 -263.5 q-66.5 -124.5 -169.5 -228.5 q88 -70 195 -119.5 q107 -49.5 231 -80.5 l-3 -11 q-31 -2 -56 -19.5 q-25 -17.5 -38 -46.5 q-116 38 -213.5 92.5 q-97.5 54.5 -174.5 130.5 q-85 -72 -194 -129 q-109 -57 -247 -97 l-10 15 q123 48 223.5 114 q100.5 66 180.5 147 q-82 97 -137.5 224.5 q-55.5 127.5 -83.5 290.5 l-119 0 l-9 30 l633 0 l53 52 Z" /><glyph glyph-name="cid11892" unicode="&#x53ca;" d="M662 748 l-297 0 q-1 -27 -1.5 -52.5 q-0.5 -25.5 -2.5 -51.5 q28 -153 88 -267 q60 -114 151 -195 q59 64 100 140 q41 76 67 163 l-129 0 l-29 -30 l-76 54 q13 10 34 18 q16 30 33 69.5 q17 39.5 33.5 79.5 q16.5 40 28.5 72 ZM815 562 l84 -78 q-10 -12 -43 -15 q-34 -96 -84 -178.5 q-50 -82.5 -121 -150.5 q68 -50 150 -86 q82 -36 177 -61 l-3 -11 q-63 -5 -89 -65 q-179 60 -298 170 q-76 -57 -175.5 -99.5 q-99.5 -42.5 -226.5 -68.5 l-7 15 q113 34 205 83 q92 49 162 113 q-70 80 -118 185 q-48 105 -74 241 q-12 -130 -43 -245 q-31 -115 -95 -212.5 q-64 -97.5 -175 -177.5 l-10 10 q78 82 127 174.5 q49 92.5 76 195 q27 102.5 37 214.5 q10 112 10 233 l-199 0 l-9 29 l586 0 l41 41 l81 -73 q-12 -12 -42 -15 q-11 -28 -27.5 -66.5 q-16.5 -38.5 -34 -77.5 q-17.5 -39 -33.5 -72 l120 0 l51 48 Z" /><glyph glyph-name="cid11903" unicode="&#x53d1;" d="M612 804 l9 8 q75 -21 115 -50.5 q40 -29.5 53 -59 q13 -29.5 6.5 -51.5 q-6.5 -22 -26.5 -28 q-20 -6 -45 11 q-8 29 -26.5 60 q-18.5 31 -41 60 q-22.5 29 -44.5 50 ZM394 394 l-10 -23 q20 -55 62.5 -108.5 q42.5 -53.5 114.5 -102.5 q49 50 85 108.5 q36 58.5 61 125.5 l-313 0 ZM758 470 l82 -78 q-10 -12 -44 -13 q-31 -74 -75 -137.5 q-44 -63.5 -102 -116.5 q65 -35 150.5 -66 q85.5 -31 196.5 -57 l-2 -12 q-34 -4 -55 -18.5 q-21 -14.5 -27 -47.5 q-106 32 -185 71 q-79 39 -135 82 q-77 -55 -178 -95.5 q-101 -40.5 -229 -63.5 l-7 16 q226 62 367 183 q-58 54 -92 111.5 q-34 57.5 -53 115.5 q-52 -113 -132.5 -209.5 q-80.5 -96.5 -195.5 -165.5 l-12 10 q86 70 149.5 159.5 q63.5 89.5 108 192 q44.5 102.5 72.5 211.5 l-155 0 l-38 -40 l-85 63 q18 11 42 21 q13 31 26 69.5 q13 38.5 24.5 75 q11.5 36.5 17.5 60.5 l115 -39 q-4 -8 -13.5 -13.5 q-9.5 -5.5 -27.5 -2.5 q-10 -33 -26.5 -80 q-16.5 -47 -31.5 -85 l159 0 q17 68 28 137.5 q11 69.5 18 137.5 l123 -21 q-5 -24 -39 -25 q-8 -58 -19 -115.5 q-11 -57.5 -26 -113.5 l353 0 l53 67 q0 0 16.5 -13 q16.5 -13 39.5 -31.5 q23 -18.5 42 -35.5 q-4 -16 -28 -16 l-484 0 q-8 -30 -18.5 -60 q-10.5 -30 -21.5 -59 l302 0 l52 47 Z" /><glyph glyph-name="cid11910" unicode="&#x53d6;" d="M215 341 l0 -173 q38 8 81 17 q43 9 88 19 l0 137 l-169 0 ZM384 725 l-169 0 l0 -162 l169 0 l0 162 ZM215 534 l0 -164 l169 0 l0 164 l-169 0 ZM588 251 l4 -16 q-29 -11 -61 -23.5 q-32 -12.5 -70 -26.5 l0 -239 q0 -5 -17.5 -16.5 q-17.5 -11.5 -46.5 -11.5 l-13 0 l0 238 q-59 -22 -129 -46.5 q-70 -24.5 -150 -50.5 q-8 -19 -23 -24 l-48 97 q20 3 46 8 q26 5 59 12 l0 573 l-90 0 l-8 29 l417 0 l52 64 q0 0 16 -12.5 q16 -12.5 37.5 -30 q21.5 -17.5 39.5 -34.5 q-4 -16 -27 -16 l-115 0 l0 -503 l127 29 ZM826 622 l-243 0 q34 -214 130 -370 q43 87 70.5 181 q27.5 94 42.5 189 ZM868 700 l84 -77 q-6 -7 -14.5 -10.5 q-8.5 -3.5 -26.5 -5.5 q-20 -108 -56.5 -215 q-36.5 -107 -98.5 -202 q46 -61 102.5 -109.5 q56.5 -48.5 120.5 -85.5 l-3 -10 q-26 -4 -45.5 -20 q-19.5 -16 -24.5 -40 q-57 41 -104.5 92.5 q-47.5 51.5 -87.5 113.5 q-45 -59 -104 -111.5 q-59 -52.5 -134 -95.5 l-12 13 q68 52 121.5 116.5 q53.5 64.5 95.5 137.5 q-46 90 -76.5 198.5 q-30.5 108.5 -46.5 232.5 l-64 0 l-9 29 l335 0 l48 49 Z" /><glyph glyph-name="cid11938" unicode="&#x53ea;" d="M745 722 l-483 0 l0 -367 l483 0 l0 367 ZM262 326 l0 -48 q0 -7 -21.5 -17.5 q-21.5 -10.5 -48.5 -10.5 l-13 0 l0 539 l89 -39 l467 0 l42 49 l93 -71 q-12 -13 -42 -21 l0 -419 q0 -4 -12 -10 q-12 -6 -28.5 -11 q-16.5 -5 -30.5 -5 l-12 0 l0 64 l-483 0 ZM39 -81 l-9 12 q64 42 125 97.5 q61 55.5 111 114 q50 58.5 81 109.5 l107 -58 q-4 -7 -12 -10.5 q-8 -3.5 -25 0.5 q-39 -46 -98 -95.5 q-59 -49.5 -130.5 -94 q-71.5 -44.5 -149.5 -75.5 ZM595 229 l10 9 q99 -34 163.5 -73.5 q64.5 -39.5 101 -78 q36.5 -38.5 50 -71.5 q13.5 -33 8.5 -55.5 q-5 -22.5 -22.5 -29 q-17.5 -6.5 -43.5 7.5 q-16 36 -45.5 76 q-29.5 40 -67.5 79 q-38 39 -78 74 q-40 35 -76 62 Z" /><glyph glyph-name="cid11946" unicode="&#x53ef;" d="M233 265 l223 0 l0 267 l-223 0 l0 -267 ZM535 517 l0 -336 q0 -3 -11.5 -9 q-11.5 -6 -27 -10.5 q-15.5 -4.5 -28.5 -4.5 l-12 0 l0 79 l-223 0 l0 -91 q0 -6 -20 -16 q-20 -10 -46 -10 l-12 0 l0 477 l83 -36 l209 0 l40 46 l89 -68 q-5 -6 -16 -12 q-11 -6 -25 -9 ZM802 761 l57 72 q0 0 18 -14 q18 -14 42.5 -33.5 q24.5 -19.5 43.5 -37.5 q-4 -15 -27 -15 l-129 0 l0 -697 q0 -31 -9 -55.5 q-9 -24.5 -38.5 -40 q-29.5 -15.5 -89.5 -20.5 q-1 19 -8.5 34 q-7.5 15 -21.5 24 q-16 11 -42.5 18.5 q-26.5 7.5 -73.5 14.5 l0 14 q0 0 22.5 -1.5 q22.5 -1.5 53.5 -3.5 q31 -2 59 -3.5 q28 -1.5 39 -1.5 q17 0 22.5 6 q5.5 6 5.5 19 l0 693 l-678 0 l-9 28 l763 0 Z" /><glyph glyph-name="cid11957" unicode="&#x53f7;" d="M710 758 l-415 0 l0 -196 l415 0 l0 196 ZM295 533 l0 -42 q0 -6 -22 -16 q-22 -10 -47 -10 l-11 0 l0 358 l86 -36 l399 0 l41 45 l91 -69 q-10 -14 -42 -20 l0 -238 q0 -3 -11.5 -8 q-11.5 -5 -27 -9.5 q-15.5 -4.5 -29.5 -4.5 l-12 0 l0 50 l-415 0 ZM816 417 l51 67 q0 0 16.5 -13 q16.5 -13 38.5 -31.5 q22 -18.5 40 -35.5 q-4 -16 -27 -16 l-560 0 q-13 -29 -29 -67.5 q-16 -38.5 -30 -69.5 l416 0 l44 43 l82 -68 q-11 -12 -40 -15 q-13 -93 -41 -164 q-28 -71 -66 -97 q-22 -15 -52.5 -23 q-30.5 -8 -70.5 -7 q0 17 -4.5 31 q-4.5 14 -17.5 22 q-13 10 -47 19 q-34 9 -69 14 l1 16 q27 -2 62.5 -5 q35.5 -3 66.5 -5 q31 -2 43 -2 q27 0 41 9 q21 15 41 71.5 q20 56.5 33 131.5 l-427 0 l-37 -39 l-83 62 q9 7 21.5 12 q12.5 5 24.5 9 q14 29 27.5 63 q13.5 34 23.5 59 l-235 0 l-8 29 l771 0 Z" /><glyph glyph-name="cid11977" unicode="&#x5408;" d="M293 26 l417 0 l0 236 l-417 0 l0 -236 ZM699 291 l44 48 l93 -72 q-12 -14 -43 -20 l0 -295 q0 -3 -12.5 -8.5 q-12.5 -5.5 -28.5 -10 q-16 -4.5 -29 -4.5 l-13 0 l0 68 l-417 0 l0 -50 q0 -5 -22 -15.5 q-22 -10.5 -48 -10.5 l-13 0 l0 409 l89 -39 l400 0 ZM594 474 l53 67 q0 0 16.5 -13 q16.5 -13 39 -31.5 q22.5 -18.5 40.5 -35.5 q-4 -15 -27 -15 l-443 0 l-8 28 l329 0 ZM451 846 l133 -32 q-4 -16 -42 -19 q45 -63 112.5 -116 q67.5 -53 149 -95.5 q81.5 -42.5 166.5 -73.5 l-1 -14 q-27 -7 -45.5 -26.5 q-18.5 -19.5 -23.5 -42.5 q-80 40 -153.5 94.5 q-73.5 54.5 -131 120.5 q-57.5 66 -91.5 140 q-35 -55 -87.5 -111 q-52.5 -56 -117 -108.5 q-64.5 -52.5 -136 -97 q-71.5 -44.5 -143.5 -75.5 l-7 14 q64 36 129.5 89.5 q65.5 53.5 124 114.5 q58.5 61 102 122.5 q43.5 61.5 62.5 115.5 Z" /><glyph glyph-name="cid11982" unicode="&#x540c;" d="M617 606 l50 62 q0 0 16 -12 q16 -12 37.5 -29.5 q21.5 -17.5 38.5 -34.5 q-4 -16 -26 -16 l-475 0 l-7 30 l366 0 ZM390 231 l213 0 l0 193 l-213 0 l0 -193 ZM680 413 l0 -272 q0 -3 -11 -9.5 q-11 -6.5 -26 -11.5 q-15 -5 -28 -5 l-12 0 l0 87 l-213 0 l0 -84 q0 -5 -20 -14.5 q-20 -9.5 -43 -9.5 l-12 0 l0 393 l80 -35 l198 0 l40 43 l84 -64 q-9 -13 -37 -18 ZM844 810 l92 -71 q-5 -5 -16 -11 q-11 -6 -27 -9 l0 -694 q0 -29 -8.5 -51 q-8.5 -22 -36.5 -35.5 q-28 -13.5 -86 -19.5 q-4 18 -10 31 q-6 13 -18 22 q-16 9 -40.5 17 q-24.5 8 -67.5 12 l0 16 q0 0 20.5 -1.5 q20.5 -1.5 48.5 -3.5 q28 -2 54 -3.5 q26 -1.5 36 -1.5 q17 0 23 6.5 q6 6.5 6 19.5 l0 701 l-628 0 l0 -784 q0 -7 -19.5 -19 q-19.5 -12 -45.5 -12 l-14 0 l0 882 l86 -39 l611 0 l40 48 Z" /><glyph glyph-name="cid11984" unicode="&#x540d;" d="M400 28 l396 0 l0 246 l-396 0 l0 -246 ZM830 350 l93 -71 q-5 -6 -16.5 -12 q-11.5 -6 -27.5 -9 l0 -308 q0 -3 -11.5 -9 q-11.5 -6 -27.5 -11 q-16 -5 -31 -5 l-13 0 l0 74 l-396 0 l0 -54 q0 -4 -18.5 -15.5 q-18.5 -11.5 -49.5 -11.5 l-14 0 l0 334 q-63 -27 -131.5 -50 q-68.5 -23 -142.5 -41 l-8 16 q149 51 280.5 127 q131.5 76 234.5 172 q103 96 167 205 l-313 0 q-33 -38 -68 -77 q65 -24 99 -54 q34 -30 43.5 -58.5 q9.5 -28.5 1 -48.5 q-8.5 -20 -27.5 -24.5 q-19 -4.5 -42 12.5 q-8 38 -35 79.5 q-27 41.5 -57 74.5 q-58 -58 -123 -109.5 q-65 -51.5 -133 -89.5 l-10 12 q51 39 102 91 q51 52 97.5 112 q46.5 60 85 122 q38.5 62 64.5 120 l122 -37 q-4 -8 -12 -11.5 q-8 -3.5 -28 -1.5 q-13 -20 -26.5 -40.5 q-13.5 -20.5 -29.5 -41.5 l294 0 l57 50 l86 -83 q-11 -13 -47 -14 q-69 -107 -169 -198.5 q-100 -91.5 -229 -162.5 l366 0 l44 47 Z" /><glyph glyph-name="cid12127" unicode="&#x5468;" d="M621 448 l45 54 q0 0 14 -11 q14 -11 33.5 -26.5 q19.5 -15.5 35.5 -30.5 q-3 -16 -25 -16 l-448 0 l-8 30 l187 0 l0 119 l-159 0 l-8 30 l167 0 l0 111 l104 -11 q-1 -9 -7.5 -15 q-6.5 -6 -20.5 -8 l0 -77 l77 0 l41 50 q0 0 13.5 -10 q13.5 -10 32.5 -25 q19 -15 34 -29 q-4 -16 -27 -16 l-171 0 l0 -119 l90 0 ZM398 142 l206 0 l0 155 l-206 0 l0 -155 ZM679 288 l0 -208 q0 -4 -11 -10 q-11 -6 -25 -10.5 q-14 -4.5 -27 -4.5 l-12 0 l0 58 l-206 0 l0 -57 q0 -4 -20 -13.5 q-20 -9.5 -43 -9.5 l-11 0 l0 327 l79 -33 l193 0 l38 39 l80 -61 q-4 -4 -13 -9.5 q-9 -5.5 -22 -7.5 ZM817 814 l100 -76 q-7 -7 -20 -13.5 q-13 -6.5 -31 -9.5 l0 -686 q0 -31 -7.5 -53 q-7.5 -22 -32.5 -35.5 q-25 -13.5 -78 -18.5 q-1 19 -6 33.5 q-5 14.5 -15 23.5 q-11 10 -31 17.5 q-20 7.5 -54 12.5 l0 15 q0 0 15.5 -1 q15.5 -1 37 -2.5 q21.5 -1.5 41 -2.5 q19.5 -1 26.5 -1 q14 0 19 5 q5 5 5 17 l0 695 l-551 0 l0 -266 q0 -67 -5 -139.5 q-5 -72.5 -22.5 -145.5 q-17.5 -73 -54.5 -140 q-37 -67 -101 -123 l-15 11 q54 76 79 164.5 q25 88.5 32 183 q7 94.5 7 188.5 l0 333 l94 -38 l526 0 l42 52 Z" /><glyph glyph-name="cid12160" unicode="&#x547d;" d="M222 132 l154 0 l0 236 l-154 0 l0 -236 ZM367 398 l38 41 l82 -63 q-9 -13 -36 -18 l0 -309 q0 -3 -10.5 -9 q-10.5 -6 -25 -10.5 q-14.5 -4.5 -27.5 -4.5 l-12 0 l0 78 l-154 0 l0 -87 q0 -5 -19.5 -15 q-19.5 -10 -43.5 -10 l-11 0 l0 441 l78 -34 l141 0 ZM567 543 l51 59 q0 0 15.5 -12 q15.5 -12 36.5 -28.5 q21 -16.5 39 -32.5 q-4 -16 -26 -16 l-393 0 l-8 30 l285 0 ZM776 403 l37 43 l90 -66 q-4 -5 -15 -11 q-11 -6 -25 -8 l0 -252 q0 -28 -6.5 -48 q-6.5 -20 -28.5 -32.5 q-22 -12.5 -69 -16.5 q-1 17 -4.5 30.5 q-3.5 13.5 -11.5 21.5 q-8 8 -23.5 14.5 q-15.5 6.5 -43.5 10.5 l0 16 q0 0 19 -1.5 q19 -1.5 41 -3 q22 -1.5 31 -1.5 q11 0 15 4.5 q4 4.5 4 14.5 l0 255 l-169 0 l0 -424 q0 -5 -20 -15.5 q-20 -10.5 -44 -10.5 l-12 0 l0 515 l81 -35 l154 0 ZM451 847 l134 -31 q-4 -16 -42 -20 q46 -54 115.5 -100 q69.5 -46 152 -82 q82.5 -36 165.5 -61 l-2 -14 q-26 -7 -44.5 -27.5 q-18.5 -20.5 -23.5 -43.5 q-81 34 -154.5 82.5 q-73.5 48.5 -132 108 q-58.5 59.5 -94.5 126.5 q-36 -49 -89 -99.5 q-53 -50.5 -118.5 -97.5 q-65.5 -47 -137.5 -85.5 q-72 -38.5 -145 -65.5 l-7 13 q65 33 131.5 80.5 q66.5 47.5 125.5 102.5 q59 55 103 110.5 q44 55.5 63 103.5 Z" /><glyph glyph-name="cid12181" unicode="&#x548c;" d="M381 520 l49 65 q0 0 15.5 -13 q15.5 -13 36.5 -31 q21 -18 37 -35 q-3 -16 -26 -16 l-176 0 l0 -63 q70 -26 108 -56.5 q38 -30.5 50.5 -58.5 q12.5 -28 7 -47.5 q-5.5 -19.5 -23 -25 q-17.5 -5.5 -38.5 10.5 q-11 35 -41.5 77 q-30.5 42 -62.5 76 l0 -458 q0 -5 -18 -15 q-18 -10 -47 -10 l-13 0 l0 417 q-72 -145 -194 -255 l-13 13 q64 80 108.5 184.5 q44.5 104.5 69.5 210.5 l-160 0 l-8 30 l197 0 l0 189 q-49 -9 -99.5 -16.5 q-50.5 -7.5 -98.5 -12.5 l-5 16 q65 17 135.5 41.5 q70.5 24.5 133.5 51.5 q63 27 104 49 l92 -81 q-15 -13 -55 0 q-55 -16 -129 -33 l0 -204 l64 0 ZM614 123 l202 0 l0 530 l-202 0 l0 -530 ZM848 731 l93 -73 q-11 -14 -45 -22 l0 -622 q-1 -3 -12.5 -8 q-11.5 -5 -26.5 -9 q-15 -4 -29 -4 l-12 0 l0 101 l-202 0 l0 -90 q0 -7 -19.5 -18.5 q-19.5 -11.5 -45.5 -11.5 l-14 0 l0 746 l84 -38 l186 0 l43 49 Z" /><glyph glyph-name="cid12604" unicode="&#x559c;" d="M67 720 l-8 30 l398 0 l0 92 l119 -11 q-1 -10 -9.5 -17.5 q-8.5 -7.5 -27.5 -9.5 l0 -54 l259 0 l53 65 q0 0 16.5 -12.5 q16.5 -12.5 39.5 -31 q23 -18.5 41 -35.5 q-3 -16 -27 -16 l-382 0 l0 -88 l186 0 l50 59 q0 0 16 -11.5 q16 -11.5 37.5 -28 q21.5 -16.5 39.5 -32.5 q-3 -16 -25 -16 l-700 0 l-7 29 l321 0 l0 88 l-390 0 ZM283 397 l430 0 l0 108 l-430 0 l0 -108 ZM726 334 l-13 0 l0 34 l-430 0 l0 -22 q0 -4 -22.5 -13.5 q-22.5 -9.5 -45.5 -9.5 l-12 0 l0 246 l86 -35 l414 0 l40 42 l88 -65 q-4 -5 -14 -10.5 q-10 -5.5 -24 -7.5 l0 -137 q0 -3 -11.5 -8 q-11.5 -5 -27 -9.5 q-15.5 -4.5 -28.5 -4.5 ZM267 0 l462 0 l0 126 l-462 0 l0 -126 ZM720 156 l40 42 l87 -65 q-4 -5 -14 -10.5 q-10 -5.5 -23 -7.5 l0 -167 q0 -3 -12 -8 q-12 -5 -27.5 -9 q-15.5 -4 -28.5 -4 l-13 0 l0 44 l-462 0 l0 -28 q0 -5 -22 -14.5 q-22 -9.5 -46 -9.5 l-12 0 l0 272 l86 -35 l447 0 ZM807 251 l53 65 q0 0 16.5 -12.5 q16.5 -12.5 39 -30.5 q22.5 -18 40.5 -35 q-3 -16 -27 -16 l-874 0 l-9 29 l330 0 q-7 3 -16 10 q-1 25 -15.5 51.5 q-14.5 26.5 -29.5 44.5 l11 6 q48 -10 73.5 -26 q25.5 -16 32.5 -33.5 q7 -17.5 1 -31.5 q-6 -14 -20 -21 l146 0 q11 26 22 57 q11 31 18 56 l109 -26 q-7 -19 -37 -19 q-15 -16 -36 -33.5 q-21 -17.5 -44 -34.5 l216 0 Z" /><glyph glyph-name="cid13187" unicode="&#x56db;" d="M178 87 l641 0 l0 172 q-32 -7 -104 -7 l-70 0 q-52 0 -66 16 q-14 16 -14 54 l0 395 l-130 0 q-2 -89 -8.5 -166.5 q-6.5 -77.5 -27 -144 q-20.5 -66.5 -64 -121.5 q-43.5 -55 -120.5 -100 l-13 17 q57 47 88.5 102.5 q31.5 55.5 45.5 120 q14 64.5 17.5 137.5 q3.5 73 4.5 155 l-180 0 l0 -630 ZM819 717 l-182 0 l0 -3 l0 -373 q0 -10 4.5 -15 q4.5 -5 23.5 -5 l57 0 q18 0 33 0.5 q15 0.5 22 0.5 q5 1 9.5 1 q4.5 0 8.5 0 q5 1 10.5 2.5 q5.5 1.5 10.5 2.5 l3 0 l0 389 ZM852 795 l90 -71 q-5 -6 -16.5 -12 q-11.5 -6 -27.5 -9 l0 -733 q0 -4 -11 -10.5 q-11 -6.5 -26 -12 q-15 -5.5 -29 -5.5 l-13 0 l0 116 l-641 0 l0 -105 q0 -7 -19.5 -18.5 q-19.5 -11.5 -45.5 -11.5 l-14 0 l0 863 l86 -39 l624 0 l43 48 Z" /><glyph glyph-name="cid13315" unicode="&#x5728;" d="M291 424 l33 -12 q-4 -15 -31 -19 l0 -449 q-1 -4 -21.5 -13.5 q-20.5 -9.5 -43.5 -9.5 l-16 0 l0 419 q-76 -73 -169 -126 l-11 12 q98 76 172 178.5 q74 102.5 124 211.5 l-259 0 l-8 29 l279 0 q21 50 37.5 100 q16.5 50 28.5 97 l125 -34 q-3 -10 -11 -14 q-8 -4 -28 -4 q-24 -70 -59 -145 l357 0 l55 69 q0 0 17 -13.5 q17 -13.5 40.5 -32.5 q23.5 -19 42.5 -36 q-3 -16 -27 -16 l-500 0 q-26 -49 -57.5 -97.5 q-31.5 -48.5 -69.5 -94.5 ZM808 5 l54 67 q0 0 16.5 -13 q16.5 -13 39.5 -31.5 q23 -18.5 42 -35.5 q-4 -16 -27 -16 l-607 0 l-8 29 l254 0 l0 305 l-197 0 l-8 30 l205 0 l0 230 l113 -11 q-1 -10 -8 -16.5 q-7 -6.5 -24 -9.5 l0 -193 l96 0 l51 62 q0 0 16 -12 q16 -12 37.5 -29.5 q21.5 -17.5 39.5 -34.5 q-4 -16 -27 -16 l-213 0 l0 -305 l155 0 Z" /><glyph glyph-name="cid13324" unicode="&#x5730;" d="M236 507 l0 -310 q35 14 71 29 q36 15 73 31 l5 -11 q-49 -37 -121.5 -87.5 q-72.5 -50.5 -168.5 -109.5 q-5 -21 -21 -29 l-44 99 q21 7 54.5 19 q33.5 12 74.5 28 l0 341 l-111 0 l-8 29 l119 0 l0 284 l113 -12 q-1 -10 -8.5 -17.5 q-7.5 -7.5 -27.5 -10.5 l0 -244 l26 0 l44 66 q0 0 14 -13.5 q14 -13.5 33 -31.5 q19 -18 33 -34 q-3 -16 -26 -16 l-124 0 ZM929 194 l3 -151 q22 -7 30 -15.5 q8 -8.5 8 -20.5 q0 -20 -20.5 -32 q-20.5 -12 -77.5 -16.5 q-57 -4.5 -166 -4.5 l-148 0 q-53 0 -84.5 8 q-31.5 8 -44.5 29 q-13 21 -13 60 l0 393 l-116 -43 l-19 24 l135 50 l0 286 l113 -13 q-1 -9 -9 -16.5 q-8 -7.5 -27 -10.5 l0 -217 l121 45 l0 290 l112 -12 q-1 -10 -8.5 -17.5 q-7.5 -7.5 -27.5 -10.5 l0 -222 l121 45 l8 3 l41 44 l84 -68 q-10 -12 -39 -16 q-1 -131 -6 -210 q-5 -79 -15.5 -120 q-10.5 -41 -28.5 -59 q-16 -16 -39.5 -24 q-23.5 -8 -49.5 -8 q0 17 -2 31.5 q-2 14.5 -10 22.5 q-6 8 -19 14 q-13 6 -30 10 l0 15 q16 -1 36.5 -2.5 q20.5 -1.5 31.5 -1.5 q19 0 27 9 q9 10 14.5 46.5 q5.5 36.5 9 106.5 q3.5 70 5.5 182 l-139 -51 l0 -416 q0 -7 -20 -17 q-20 -10 -41 -10 l-15 0 l0 415 l-121 -45 l0 -404 q0 -22 14 -31.5 q14 -9.5 58 -9.5 l145 0 q48 0 83 1 q35 1 51 3 q20 3 30 15 q8 14 19 53.5 q11 39.5 24 93.5 l12 0 Z" /><glyph glyph-name="cid13386" unicode="&#x5757;" d="M419 229 l3 -13 q-55 -26 -134.5 -62.5 q-79.5 -36.5 -189.5 -81.5 q-6 -18 -24 -23 l-46 104 q23 3 60 9.5 q37 6.5 83 14.5 l0 353 l-132 0 l-8 29 l140 0 l0 264 l116 -12 q-2 -10 -9.5 -17.5 q-7.5 -7.5 -27.5 -10.5 l0 -224 l41 0 l43 66 q0 0 14 -13 q14 -13 33.5 -31 q19.5 -18 33.5 -35 q-3 -16 -26 -16 l-139 0 l0 -337 q41 8 83.5 17.5 q42.5 9.5 85.5 18.5 ZM618 632 l0 -132 q0 -79 -12 -151 l149 0 l0 283 l-137 0 ZM849 349 l45 65 q0 0 14.5 -13 q14.5 -13 33.5 -31 q19 -18 34 -34 q-3 -16 -26 -16 l-325 0 q18 -56 57.5 -114 q39.5 -58 109.5 -111 q70 -53 177 -93 l-2 -12 q-31 -5 -49.5 -20 q-18.5 -15 -23.5 -50 q-73 37 -124 86 q-51 49 -83.5 103 q-32.5 54 -52 108.5 q-19.5 54.5 -29.5 102.5 l-4 0 q-18 -87 -62 -163 q-44 -76 -125.5 -137 q-81.5 -61 -210.5 -102 l-8 16 q106 47 172.5 106.5 q66.5 59.5 103 130 q36.5 70.5 52.5 149.5 l-221 0 l-8 29 l234 0 q5 36 7.5 74 q2.5 38 2.5 77 l0 132 l-160 0 l-9 29 l169 0 l0 177 l116 -12 q-1 -10 -8.5 -17.5 q-7.5 -7.5 -27.5 -10.5 l0 -137 l127 0 l43 45 l87 -68 q-12 -14 -43 -20 l0 -269 l17 0 Z" /><glyph glyph-name="cid13640" unicode="&#x57fa;" d="M762 -28 l55 69 q0 0 17.5 -13.5 q17.5 -13.5 41.5 -32.5 q24 -19 43 -36 q-4 -15 -28 -15 l-795 0 l-8 28 l369 0 l0 144 l-206 0 l-8 30 l214 0 l0 124 l115 -11 q-1 -9 -8.5 -15.5 q-7.5 -6.5 -24.5 -9.5 l0 -88 l86 0 l46 58 q0 0 15 -11.5 q15 -11.5 35 -28.5 q20 -17 36 -32 q-4 -16 -26 -16 l-192 0 l0 -144 l223 0 ZM356 349 l289 0 l0 96 l-289 0 l0 -96 ZM645 690 l-289 0 l0 -93 l289 0 l0 93 ZM356 568 l0 -94 l289 0 l0 94 l-289 0 ZM937 319 l-266 0 q36 -37 87 -65.5 q51 -28.5 108.5 -48.5 q57.5 -20 110.5 -30 l-3 -13 q-49 -27 -56 -79 q-83 33 -157.5 96 q-74.5 63 -121.5 140 l-252 0 q-54 -82 -142 -143.5 q-88 -61.5 -199 -104.5 l-10 16 q79 44 142.5 104 q63.5 60 104.5 128 l-234 0 l-9 30 l235 0 l0 341 l-185 0 l-8 30 l193 0 l0 121 l117 -12 q-1 -10 -9 -17.5 q-8 -7.5 -27 -10.5 l0 -81 l289 0 l0 121 l118 -12 q-2 -10 -10 -17.5 q-8 -7.5 -26 -10.5 l0 -81 l62 0 l51 64 q0 0 15 -12.5 q15 -12.5 36.5 -30.5 q21.5 -18 38.5 -35 q-4 -16 -27 -16 l-176 0 l0 -341 l91 0 l51 68 q0 0 16 -13.5 q16 -13.5 38.5 -32.5 q22.5 -19 39.5 -36 q-4 -16 -26 -16 Z" /><glyph glyph-name="cid13879" unicode="&#x5883;" d="M339 513 l-8 29 l348 0 q16 34 31.5 76 q15.5 42 25.5 75 l108 -41 q-4 -8 -13 -12.5 q-9 -4.5 -25 -2.5 q-19 -21 -44.5 -46 q-25.5 -25 -51.5 -49 l121 0 l46 59 q0 0 15 -11.5 q15 -11.5 35.5 -28 q20.5 -16.5 36.5 -32.5 q-4 -16 -27 -16 l-598 0 ZM442 678 l12 7 q58 -12 87 -33 q29 -21 35.5 -43.5 q6.5 -22.5 -2.5 -39.5 q-9 -17 -27.5 -20.5 q-18.5 -3.5 -39.5 12.5 q-4 30 -23.5 63.5 q-19.5 33.5 -41.5 53.5 ZM367 699 l-8 30 l257 0 q-1 2 -4 3.5 q-3 1.5 -5 3.5 q-2 27 -17.5 58 q-15.5 31 -32.5 50 l10 6 q49 -9 75 -26 q26 -17 34.5 -35.5 q8.5 -18.5 4 -35 q-4.5 -16.5 -18.5 -24.5 l142 0 l47 61 q0 0 15 -12 q15 -12 36 -29.5 q21 -17.5 37 -33.5 q-4 -16 -26 -16 l-546 0 ZM369 288 l5 -11 q-43 -33 -107 -80 q-64 -47 -151 -104 q-3 -21 -18 -28 l-60 93 q19 6 49 17.5 q30 11.5 67 25.5 l0 362 l-107 0 l-8 29 l115 0 l0 242 l114 -12 q-1 -10 -9 -17.5 q-8 -7.5 -28 -9.5 l0 -203 l29 0 l41 62 q0 0 13.5 -12.5 q13.5 -12.5 31 -29.5 q17.5 -17 30.5 -33 q-4 -16 -26 -16 l-119 0 l0 -331 q32 14 67.5 28 q35.5 14 70.5 28 ZM467 316 l0 -77 l327 0 l0 77 l-327 0 ZM794 420 l-327 0 l0 -75 l327 0 l0 75 ZM932 132 l3 -108 q16 -6 21 -13 q5 -7 5 -18 q0 -14 -12 -23.5 q-12 -9.5 -43 -14 q-31 -4.5 -89 -4.5 l-71 0 q-52 0 -66 14 q-14 14 -14 51 l0 194 l-64 0 q-7 -42 -23.5 -82.5 q-16.5 -40.5 -53 -78 q-36.5 -37.5 -101.5 -70 q-65 -32.5 -169 -59.5 l-11 16 q86 30 138.5 63 q52.5 33 80 68 q27.5 35 39 71 q11.5 36 14.5 72 l-49 0 l0 -22 q0 -6 -21 -15 q-21 -9 -44 -9 l-12 0 l0 320 l83 -34 l312 0 l38 40 l84 -62 q-4 -5 -14 -11 q-10 -6 -24 -8 l0 -215 q-1 -4 -22.5 -12.5 q-21.5 -8.5 -40.5 -8.5 l-12 0 l0 37 l-53 0 l0 -11 l0 -168 q0 -8 4.5 -11 q4.5 -3 20.5 -3 l56 0 l52 0 q11 1 16 11 q6 10 13.5 39.5 q7.5 29.5 16.5 64.5 l12 0 Z" /><glyph glyph-name="cid14070" unicode="&#x2f20;&#x58eb;" d="M799 484 l56 72 q0 0 18 -13.5 q18 -13.5 42.5 -33.5 q24.5 -20 43.5 -38 q-4 -16 -27 -16 l-389 0 l0 -456 l203 0 l56 71 q0 0 18 -13.5 q18 -13.5 42.5 -33.5 q24.5 -20 44.5 -38 q-4 -16 -28 -16 l-772 0 l-9 30 l358 0 l0 456 l-405 0 l-8 29 l413 0 l0 342 l122 -12 q-1 -11 -9 -18.5 q-8 -7.5 -26 -10.5 l0 -301 l256 0 Z" /><glyph glyph-name="cid14071" unicode="&#x58ec;" d="M800 388 l57 71 q0 0 18 -13.5 q18 -13.5 42.5 -33 q24.5 -19.5 44.5 -38.5 q-4 -16 -26 -16 l-394 0 l0 -365 l207 0 l58 72 q0 0 18 -13.5 q18 -13.5 42.5 -33.5 q24.5 -20 44.5 -38 q-3 -16 -27 -16 l-776 0 l-8 29 l354 0 l0 365 l-409 0 l-8 30 l417 0 l0 293 q-87 -14 -177 -25 q-90 -11 -177 -17 l-4 17 q85 14 177 34.5 q92 20.5 180.5 44.5 q88.5 24 164.5 49 q76 25 130 48 l93 -84 q-17 -14 -58 1 q-51 -13 -112.5 -26.5 q-61.5 -13.5 -129.5 -26.5 l0 -308 l258 0 Z" /><glyph glyph-name="cid14104" unicode="&#x5904;" d="M694 549 l0 -455 q0 -7 -20 -15.5 q-20 -8.5 -42 -8.5 l-17 0 l0 772 l116 -13 q-1 -10 -9 -17.5 q-8 -7.5 -28 -10.5 l0 -228 q94 -28 149 -63.5 q55 -35.5 78.5 -69.5 q23.5 -34 22.5 -59.5 q-1 -25.5 -19 -35 q-18 -9.5 -45 5.5 q-16 32 -47 67.5 q-31 35.5 -67.5 69.5 q-36.5 34 -71.5 61 ZM427 603 l-194 0 q-8 -19 -16.5 -37 q-8.5 -18 -16.5 -37 q23 -94 51.5 -166 q28.5 -72 63.5 -126 q43 83 70 175.5 q27 92.5 42 190.5 ZM840 23 l130 0 l0 -13 q-22 -4 -35 -22.5 q-13 -18.5 -15 -43.5 l-90 0 q-117 0 -211 16.5 q-94 16.5 -166.5 58.5 q-72.5 42 -127.5 116 q-52 -66 -122 -121 q-70 -55 -165 -98 l-11 14 q86 51 150.5 117 q64.5 66 110.5 143 q-32 59 -57.5 135.5 q-25.5 76.5 -44.5 173.5 q-32 -67 -69 -128 q-37 -61 -75 -109 l-14 7 q29 53 56.5 123 q27.5 70 52.5 148 q25 78 45.5 155.5 q20.5 77.5 33.5 145.5 l128 -18 q-1 -10 -9 -14.5 q-8 -4.5 -30 -5.5 q-12 -40 -27.5 -83.5 q-15.5 -43.5 -32.5 -87.5 l176 0 l45 47 l82 -74 q-8 -12 -40 -16 q-20 -109 -54.5 -213.5 q-34.5 -104.5 -95.5 -195.5 q54 -61 124 -95.5 q70 -34.5 159 -48 q89 -13.5 199 -13.5 Z" /><glyph glyph-name="cid14108" unicode="&#x5907;" d="M716 333 l39 43 q-126 36 -234 93 q-133 -69 -298 -108 l61 -28 l432 0 ZM541 11 l185 0 l0 133 l-185 0 l0 -133 ZM278 144 l0 -133 l190 0 l0 133 l-190 0 ZM468 173 l0 131 l-190 0 l0 -131 l190 0 ZM726 173 l0 131 l-185 0 l0 -131 l185 0 ZM690 695 l-345 0 q-7 -7 -13.5 -14.5 q-6.5 -7.5 -12.5 -15.5 q38 -37 87 -68.5 q49 -31.5 107 -56.5 q53 35 97.5 74 q44.5 39 79.5 81 ZM760 774 l85 -82 q-6 -7 -16.5 -9.5 q-10.5 -2.5 -30.5 -4.5 q-41 -48 -93 -90 q-52 -42 -111 -79 q89 -31 187.5 -51 q98.5 -20 195.5 -30 l-2 -12 q-53 -12 -69 -75 q-36 7 -71 15 q-35 8 -69 17 l82 -63 q-10 -14 -40 -20 l0 -342 q-1 -2 -12.5 -8 q-11.5 -6 -27 -10.5 q-15.5 -4.5 -29.5 -4.5 l-13 0 l0 57 l-448 0 l0 -36 q0 -6 -21.5 -16.5 q-21.5 -10.5 -46.5 -10.5 l-13 0 l0 435 l1 0 q-38 -8 -77.5 -15.5 q-39.5 -7.5 -80.5 -13.5 l-7 16 q116 28 224.5 70 q108.5 42 200.5 95 q-45 30 -84.5 65.5 q-39.5 35.5 -70.5 76.5 q-50 -53 -108.5 -100.5 q-58.5 -47.5 -118.5 -80.5 l-11 11 q53 43 105.5 104.5 q52.5 61.5 96.5 129.5 q44 68 71 131 l122 -34 q-4 -8 -11.5 -11 q-7.5 -3 -27.5 -2 q-10 -17 -23.5 -35 q-13.5 -18 -27.5 -36 l330 0 l60 49 Z" /><glyph glyph-name="cid14121" unicode="&#x590d;" d="M357 228 l-12 -13 q32 -39 76 -70 q44 -31 97 -54 q45 29 82.5 63.5 q37.5 34.5 65.5 73.5 l-309 0 ZM317 469 l0 -86 l375 0 l0 86 l-375 0 ZM692 582 l-375 0 l0 -84 l375 0 l0 84 ZM730 303 l79 -77 q-6 -7 -16 -9.5 q-10 -2.5 -30 -3.5 q-69 -89 -171 -148 q80 -25 171.5 -38.5 q91.5 -13.5 190.5 -18.5 l0 -12 q-54 -14 -66 -76 q-109 14 -201.5 39 q-92.5 25 -167.5 66 q-95 -44 -209.5 -69.5 q-114.5 -25.5 -248.5 -36.5 l-5 17 q116 19 219 49.5 q103 30.5 187 74.5 q-82 57 -132 140 q-41 -40 -93 -77 q-52 -37 -110 -63 l-10 12 q50 36 93.5 84.5 q43.5 48.5 77 100 q33.5 51.5 53.5 97.5 l-24 0 l0 -13 q0 -6 -21.5 -16 q-21.5 -10 -45.5 -10 l-12 0 l0 317 q-39 -46 -83 -82 q-44 -36 -91 -63 l-12 11 q40 38 79.5 91.5 q39.5 53.5 74.5 118 q35 64.5 59 134.5 l113 -49 q-4 -8 -13.5 -13 q-9.5 -5 -25.5 -2 q-7 -13 -15 -26.5 q-8 -13.5 -17 -26.5 l443 0 l53 66 q0 0 17 -13 q17 -13 40 -31.5 q23 -18.5 42 -35.5 q-4 -16 -27 -16 l-588 0 q-16 -27 -39 -51 l75 -32 l360 0 l40 42 l85 -65 q-10 -13 -36 -18 l0 -225 q0 -3 -11.5 -8.5 q-11.5 -5.5 -27 -9.5 q-15.5 -4 -28.5 -4 l-13 0 l0 30 l-349 0 l105 -44 q-4 -8 -12 -12 q-8 -4 -26 -2 q-6 -10 -13.5 -19 q-7.5 -9 -15.5 -19 l292 0 l57 45 Z" /><glyph glyph-name="cid14142" unicode="&#x5916;" d="M445 663 l47 50 l85 -79 q-9 -11 -40 -14 q-18 -109 -50 -212 q-32 -103 -86.5 -194 q-54.5 -91 -140 -166 q-85.5 -75 -211.5 -129 l-10 14 q132 76 215.5 184.5 q83.5 108.5 130.5 240 q47 131.5 67 276.5 l-171 0 q-16 -40 -33.5 -76.5 q-17.5 -36.5 -37.5 -70.5 q71 -21 108 -49.5 q37 -28.5 49 -57.5 q12 -29 4.5 -50 q-7.5 -21 -27 -27 q-19.5 -6 -43.5 11 q-9 39 -39 80.5 q-30 41.5 -64 72.5 q-62 -101 -146 -171 l-14 9 q48 64 89.5 147.5 q41.5 83.5 72 182 q30.5 98.5 46.5 204.5 l122 -28 q-3 -10 -12 -16.5 q-9 -6.5 -27 -5.5 q-8 -33 -17.5 -64.5 q-9.5 -31.5 -20.5 -61.5 l154 0 ZM717 790 l0 -271 q96 -30 151 -68 q55 -38 77.5 -75 q22.5 -37 20 -64 q-2.5 -27 -22 -36.5 q-19.5 -9.5 -48.5 7.5 q-14 35 -43 73 q-29 38 -64.5 74 q-35.5 36 -70.5 65 l0 -551 q0 -7 -20.5 -17.5 q-20.5 -10.5 -43.5 -10.5 l-17 0 l0 915 l117 -13 q-1 -10 -8.5 -17.5 q-7.5 -7.5 -27.5 -10.5 Z" /><glyph glyph-name="cid14147" unicode="&#x591a;" d="M866 395 l88 -79 q-10 -11 -49 -13 q-87 -116 -204 -193.5 q-117 -77.5 -273.5 -123.5 q-156.5 -46 -363.5 -67 l-6 18 q175 33 314.5 81 q139.5 48 247.5 121 q108 73 185 180 l-287 0 q-23 -17 -48.5 -33.5 q-25.5 -16.5 -53.5 -31.5 q57 -13 88.5 -36 q31.5 -23 42.5 -47 q11 -24 5.5 -43 q-5.5 -19 -22 -26 q-16.5 -7 -39.5 5 q-10 35 -41 69 q-31 34 -65 59 q-119 -67 -260 -108 l-8 14 q88 37 168 88.5 q80 51.5 144.5 108 q64.5 56.5 105.5 108.5 q-94 -49 -208.5 -85.5 q-114.5 -36.5 -253.5 -60.5 l-8 17 q218 59 381.5 147 q163.5 88 271.5 222 l-309 0 q-36 -28 -77 -53 q57 -11 88.5 -31 q31.5 -20 43 -42.5 q11.5 -22.5 6.5 -40 q-5 -17.5 -20.5 -24 q-15.5 -6.5 -37.5 4.5 q-12 30 -43 62.5 q-31 32.5 -63 55.5 q-47 -27 -98 -51 q-51 -24 -104 -41 l-9 13 q74 38 143 89 q69 51 124 106.5 q55 55.5 88 103.5 l126 -33 q-3 -8 -13.5 -12.5 q-10.5 -4.5 -33.5 -4.5 q-17 -17 -37 -35 q-20 -18 -43 -37 l284 0 l48 44 l86 -76 q-6 -7 -18 -9 q-12 -2 -32 -4 q-107 -128 -265 -216 l123 -30 q-3 -9 -14.5 -13.5 q-11.5 -4.5 -34.5 -4.5 q-15 -14 -32.5 -29 q-17.5 -15 -37.5 -30 l260 0 l50 47 Z" /><glyph glyph-name="cid14153" unicode="&#x591f;" d="M255 492 l-90 0 l0 -237 l90 0 l0 237 ZM431 754 l82 -71 q-11 -14 -43 -18 q-2 -220 -8.5 -363.5 q-6.5 -143.5 -19 -223.5 q-12.5 -80 -35.5 -109 q-22 -25 -50.5 -37.5 q-28.5 -12.5 -62.5 -12.5 q0 20 -3 33.5 q-3 13.5 -13 22.5 q-10 10 -32 17.5 q-22 7.5 -50 12.5 l2 17 q28 -2 62.5 -5 q34.5 -3 49.5 -3 q14 0 22 3 q8 3 15 11 q26 27 36.5 187.5 q10.5 160.5 14.5 461.5 l-204 0 q-16 -36 -34 -69.5 q-18 -33.5 -38 -63.5 l55 -23 l69 0 l36 39 l78 -60 q-4 -5 -14 -10.5 q-10 -5.5 -24 -8.5 l0 -284 q-1 -5 -20.5 -13.5 q-19.5 -8.5 -36.5 -8.5 l-10 0 l0 52 l-90 0 l0 -65 q0 -4 -14 -13 q-14 -9 -40 -9 l-11 0 l0 373 q-13 -17 -27 -33 q-14 -16 -28 -30 l-15 9 q28 47 52.5 109 q24.5 62 44.5 132 q20 70 32 142 l113 -30 q-2 -9 -11 -15.5 q-9 -6.5 -25 -5.5 q-7 -22 -14.5 -43.5 q-7.5 -21.5 -15.5 -41.5 l181 0 l44 48 ZM900 401 l81 -68 q-12 -12 -43 -13 q-46 -100 -109 -176.5 q-63 -76.5 -151 -132.5 q-88 -56 -211 -94 l-10 16 q146 66 242 160.5 q96 94.5 155 237.5 l-148 0 q-16 -18 -33 -35.5 q-17 -17.5 -36 -34.5 q49 -14 72.5 -34.5 q23.5 -20.5 28.5 -41 q5 -20.5 -4 -35.5 q-9 -15 -26.5 -18.5 q-17.5 -3.5 -37.5 11.5 q-4 25 -19 52 q-15 27 -35 48 q-29 -24 -60.5 -45 q-31.5 -21 -63.5 -38 l-11 12 q62 47 118 118 q56 71 91 145 q-42 -31 -90.5 -58.5 q-48.5 -27.5 -106.5 -49.5 l-12 14 q116 64 197 151 q81 87 135 204 l-144 0 q-13 -18 -27.5 -35 q-14.5 -17 -30.5 -33 q47 -10 71 -27.5 q24 -17.5 29.5 -36.5 q5.5 -19 -2 -34 q-7.5 -15 -24 -19.5 q-16.5 -4.5 -36.5 8.5 q-4 23 -21 46.5 q-17 23.5 -38 42.5 q-43 -41 -95 -72 l-11 11 q38 34 71.5 82.5 q33.5 48.5 59.5 103.5 q26 55 40 107 l116 -22 q-2 -7 -9.5 -11 q-7.5 -4 -25.5 -4 q-10 -19 -21 -38.5 q-11 -19.5 -25 -39.5 l129 0 l39 40 l81 -66 q-10 -11 -43 -14 q-31 -61 -71 -114 q-40 -53 -90 -99 l87 -22 q-4 -7 -11.5 -10 q-7.5 -3 -26.5 -1 q-11 -20 -25 -40 q-14 -20 -30 -40 l129 0 l42 42 Z" /><glyph glyph-name="cid14165" unicode="&#x2f24;&#x5927;" d="M935 516 l-398 0 q13 -70 42 -141 q29 -71 79.5 -138 q50.5 -67 128 -127 q77.5 -60 186.5 -108 l-1 -12 q-32 -4 -52.5 -20.5 q-20.5 -16.5 -28.5 -51.5 q-99 56 -166 126.5 q-67 70.5 -108.5 149 q-41.5 78.5 -64 158.5 q-22.5 80 -33.5 155 q-11 -88 -37.5 -170 q-26.5 -82 -78.5 -156.5 q-52 -74.5 -138 -140 q-86 -65.5 -216 -121.5 l-12 16 q108 60 180.5 126.5 q72.5 66.5 117 139.5 q44.5 73 67.5 152 q23 79 32 163 l-379 0 l-7 29 l389 0 q6 70 6.5 144 q0.5 74 0.5 150 l124 -13 q-2 -11 -9.5 -18.5 q-7.5 -7.5 -24.5 -9.5 q-1 -65 -3 -128 q-2 -63 -8 -125 l270 0 l59 74 q0 0 19 -14.5 q19 -14.5 44.5 -34.5 q25.5 -20 45.5 -38 q-1 -8 -8.5 -12 q-7.5 -4 -17.5 -4 Z" /><glyph glyph-name="cid14191" unicode="&#x5939;" d="M934 312 l-387 0 q21 -59 69 -116 q48 -57 132 -107 q84 -50 214 -88 l-1 -12 q-33 -5 -52.5 -20.5 q-19.5 -15.5 -25.5 -50.5 q-91 36 -153.5 82 q-62.5 46 -103 98.5 q-40.5 52.5 -64 107 q-23.5 54.5 -36.5 106.5 l-19 0 q-22 -87 -73.5 -162.5 q-51.5 -75.5 -145 -133.5 q-93.5 -58 -240.5 -96 l-7 17 q122 44 200 101 q78 57 122 126 q44 69 63 148 l-380 0 l-9 30 l395 0 q8 41 11.5 84.5 q3.5 43.5 3.5 89.5 l0 132 l-357 0 l-8 29 l365 0 l0 161 l119 -12 q-2 -10 -9.5 -17.5 q-7.5 -7.5 -26.5 -10.5 l0 -121 l228 0 l54 68 q0 0 17.5 -13 q17.5 -13 41.5 -32 q24 -19 43 -36 q-4 -16 -28 -16 l-356 0 l0 -132 q0 -45 -4 -89 q-4 -44 -12 -85 l20 0 l3 1 l0 -1 l271 0 l54 68 q0 0 17 -13 q17 -13 40.5 -32 q23.5 -19 41.5 -37 q-3 -16 -27 -16 ZM160 608 l12 6 q71 -32 107.5 -69.5 q36.5 -37.5 47 -72 q10.5 -34.5 1.5 -59 q-9 -24.5 -30 -30.5 q-21 -6 -45 14 q-3 35 -17.5 73 q-14.5 38 -34.5 74 q-20 36 -41 64 ZM621 367 l-9 7 q20 37 40.5 83.5 q20.5 46.5 38.5 90.5 q18 44 28 72 l116 -57 q-3 -6 -13 -11 q-10 -5 -25 -2 q-17 -23 -46 -55 q-29 -32 -62.5 -65.5 q-33.5 -33.5 -67.5 -62.5 Z" /><glyph glyph-name="cid14239" unicode="&#x5957;" d="M603 676 l-172 0 q-40 -57 -96 -111 l45 -19 l236 0 l39 47 q-15 20 -28 40.5 q-13 20.5 -24 42.5 ZM710 517 l-343 0 l0 -88 l243 0 l44 52 q0 0 14 -10 q14 -10 33.5 -25 q19.5 -15 35.5 -30 q-4 -16 -26 -16 l-344 0 l0 -90 l255 0 l46 53 q0 0 14 -10.5 q14 -10.5 34 -25.5 q20 -15 36 -30 q-3 -16 -26 -16 l-359 0 l0 -95 l419 0 l54 66 q0 0 17.5 -12.5 q17.5 -12.5 41 -31 q23.5 -18.5 42.5 -35.5 q-4 -16 -27 -16 l-449 0 q-43 -35 -103.5 -73.5 q-60.5 -38.5 -119.5 -67.5 q55 1 129 4.5 q74 3.5 159.5 9 q85.5 5.5 174.5 11.5 q-23 24 -48 46 q-25 22 -46 38 l9 9 q90 -24 142.5 -56.5 q52.5 -32.5 75 -65 q22.5 -32.5 21.5 -57 q-1 -24.5 -19 -34 q-18 -9.5 -44 3.5 q-11 23 -30.5 47.5 q-19.5 24.5 -42.5 48.5 q-91 -17 -219 -38 q-128 -21 -280 -40 q-11 -16 -23 -19 l-38 96 q0 0 10 2 q10 2 16 4 q27 13 56.5 35.5 q29.5 22.5 56 48 q26.5 25.5 45.5 47.5 l-282 0 l-9 29 l230 0 l0 334 q-51 -42 -112.5 -79 q-61.5 -37 -135.5 -67 l-9 12 q102 56 178.5 132 q76.5 76 129.5 158 l-282 0 l-9 30 l310 0 q22 35 39 70 q17 35 30 69 l113 -40 q-8 -20 -39 -17 q-10 -20 -22 -40.5 q-12 -20.5 -26 -41.5 l342 0 l57 69 q0 0 17.5 -13.5 q17.5 -13.5 42.5 -32.5 q25 -19 45 -37 q-4 -16 -27 -16 l-296 0 q38 -49 94 -89 q56 -40 120.5 -69 q64.5 -29 124.5 -45 l-2 -12 q-28 -9 -45.5 -25 q-17.5 -16 -22.5 -41 q-49 22 -95 53.5 q-46 31.5 -86 69.5 q-3 -1 -10 -1 Z" /><glyph glyph-name="cid14337" unicode="&#x5982;" d="M363 594 l-127 0 q-22 -82 -46.5 -167.5 q-24.5 -85.5 -48.5 -154.5 q42 -15 77.5 -31 q35.5 -16 64.5 -32 q38 85 55.5 181.5 q17.5 96.5 24.5 203.5 ZM355 623 l44 46 l81 -73 q-6 -11 -36 -15 q-11 -111 -33 -214 q-22 -103 -71 -191 q69 -45 95.5 -83 q26.5 -38 24.5 -63.5 q-2 -25.5 -22 -34 q-20 -8.5 -46 5.5 q-16 26 -41 53.5 q-25 27.5 -55 55.5 q-43 -57 -105.5 -105 q-62.5 -48 -150.5 -84 l-10 14 q77 42 131.5 95.5 q54.5 53.5 91.5 117.5 q-46 38 -94 71 q-48 33 -91 58 q13 37 28.5 88.5 q15.5 51.5 31.5 110.5 q16 59 30 118 l-115 0 l-9 29 l131 0 q14 65 26 122 q12 57 18 96 l115 -19 q-3 -9 -10 -16 q-7 -7 -29 -9 q-7 -34 -17.5 -79 q-10.5 -45 -24.5 -95 l112 0 ZM608 117 l204 0 l0 537 l-204 0 l0 -537 ZM845 734 l93 -74 q-5 -7 -17 -13 q-12 -6 -28 -8 l0 -631 q-1 -4 -12 -11 q-11 -7 -26.5 -13 q-15.5 -6 -29.5 -6 l-13 0 l0 110 l-204 0 l0 -106 q0 -7 -19 -18 q-19 -11 -45 -11 l-14 0 l0 769 l83 -38 l188 0 l44 50 Z" /><glyph glyph-name="cid14566" unicode="&#x59da;" d="M380 659 l13 4 q55 -35 82.5 -71 q27.5 -36 34 -66.5 q6.5 -30.5 -2 -50.5 q-8.5 -20 -25 -24 q-16.5 -4 -35.5 13 q-1 32 -11.5 67 q-10.5 35 -25.5 68.5 q-15 33.5 -30 59.5 ZM285 580 l-84 0 q-18 -76 -39 -153.5 q-21 -77.5 -41 -140.5 q29 -14 54 -27.5 q25 -13.5 46 -27.5 q28 82 42.5 170 q14.5 88 21.5 179 ZM320 655 l78 -71 q-9 -12 -38 -15 q-10 -97 -29 -192.5 q-19 -95.5 -58 -183.5 q55 -43 75 -78.5 q20 -35.5 15.5 -58.5 q-4.5 -23 -23 -29.5 q-18.5 -6.5 -40.5 8.5 q-10 21 -26.5 44 q-16.5 23 -36.5 47 q-34 -58 -82 -109 q-48 -51 -115 -93 l-10 13 q57 48 98 107 q41 59 70 125 q-35 36 -72.5 68 q-37.5 32 -71.5 57 q17 50 36.5 127 q19.5 77 37.5 159 l-87 0 l-8 29 l101 0 q14 69 25 131.5 q11 62.5 16 104.5 l113 -22 q-3 -8 -10.5 -15 q-7.5 -7 -28.5 -8 q-7 -37 -17 -86.5 q-10 -49.5 -24 -104.5 l68 0 l44 46 ZM527 394 l0 442 l107 -11 q-1 -10 -8.5 -17.5 q-7.5 -7.5 -27.5 -10.5 l0 -445 q0 -102 -27 -184 q-27 -82 -90.5 -144 q-63.5 -62 -173.5 -107 l-10 13 q86 48 136 108.5 q50 60.5 72 138 q22 77.5 22 174.5 l0 6 q-22 -26 -50 -59 q-28 -33 -61 -70 q0 -20 -13 -31 l-63 77 q26 14 77.5 47.5 q51.5 33.5 109.5 72.5 ZM939 135 l4 -113 q30 -12 30 -31 q0 -22 -30.5 -32.5 q-30.5 -10.5 -115.5 -10.5 l-66 0 q-51 0 -67.5 17 q-16.5 17 -16.5 57 l0 816 l106 -12 q-1 -10 -9 -17.5 q-8 -7.5 -27 -10.5 l0 -313 q21 31 42 65.5 q21 34.5 38.5 66 q17.5 31.5 27.5 53.5 l97 -61 q-4 -6 -14 -10 q-10 -4 -25 0 q-27 -28 -73 -70 q-46 -42 -93 -78 l0 -55 q74 -27 115.5 -59 q41.5 -32 57.5 -62.5 q16 -30.5 12 -52.5 q-4 -22 -21 -29.5 q-17 -7.5 -41 7.5 q-13 41 -49 88 q-36 47 -74 83 l0 -328 q0 -15 6 -21.5 q6 -6.5 25 -6.5 l52 0 q17 0 31 0.5 q14 0.5 21 0.5 q11 2 17 10 q3 6 8 23.5 q5 17.5 10.5 40.5 q5.5 23 9.5 45 l12 0 Z" /><glyph glyph-name="cid15539" unicode="&#x2f26;&#x5b50;" d="M794 400 l58 73 q0 0 18.5 -14 q18.5 -14 43.5 -34 q25 -20 45 -38 q-1 -8 -8.5 -12 q-7.5 -4 -17.5 -4 l-387 0 l0 -338 q0 -31 -9 -54.5 q-9 -23.5 -39 -38 q-30 -14.5 -93 -20.5 q-4 20 -11 34 q-7 14 -21 24 q-16 11 -43.5 18.5 q-27.5 7.5 -75.5 13.5 l0 16 q0 0 15.5 -1 q15.5 -1 39.5 -2.5 q24 -1.5 49.5 -3.5 q25.5 -2 46 -3 q20.5 -1 29.5 -1 q16 0 22 5.5 q6 5.5 6 18.5 l0 332 l-409 0 l-9 29 l418 0 l0 167 l68 -7 q50 35 100.5 80.5 q50.5 45.5 85.5 83.5 l-562 0 l-8 29 l584 0 l54 51 l90 -80 q-12 -11 -43 -12 q-53 -37 -125 -80 q-72 -43 -146 -75 l20 -2 q-3 -21 -34 -25 l0 -130 l248 0 Z" /><glyph glyph-name="cid15548" unicode="&#x5b57;" d="M421 834 l9 7 q67 -10 101 -32.5 q34 -22.5 42.5 -48.5 q8.5 -26 -1.5 -46 q-10 -20 -31.5 -26 q-21.5 -6 -46.5 13 q-3 35 -25 73 q-22 38 -48 60 ZM827 651 l-641 0 q2 -51 -14.5 -84.5 q-16.5 -33.5 -40.5 -49.5 q-21 -15 -47.5 -11.5 q-26.5 3.5 -37.5 25.5 q-7 21 4 38.5 q11 17.5 30 27.5 q19 11 36.5 31.5 q17.5 20.5 28.5 47.5 q11 27 8 57 l17 1 q5 -14 8.5 -27.5 q3.5 -13.5 4.5 -26.5 l642 0 l49 49 l87 -84 q-9 -9 -38 -10 q-23 -27 -60 -58.5 q-37 -31.5 -69 -52.5 l-11 8 q11 23 23.5 56.5 q12.5 33.5 20.5 62.5 ZM806 286 l54 67 q0 0 16.5 -13 q16.5 -13 39.5 -32 q23 -19 41 -36 q-4 -16 -27 -16 l-390 0 l0 -229 q0 -31 -8.5 -53.5 q-8.5 -22.5 -35.5 -36 q-27 -13.5 -85 -18.5 q-2 19 -7.5 33 q-5.5 14 -18.5 23 q-14 10 -37 17.5 q-23 7.5 -64 12.5 l-1 15 q0 0 19.5 -1.5 q19.5 -1.5 46.5 -3 q27 -1.5 51.5 -3 q24.5 -1.5 33.5 -1.5 q14 0 19.5 5 q5.5 5 5.5 16 l0 224 l-405 0 l-9 30 l414 0 l0 124 l77 -8 q30 23 58.5 50.5 q28.5 27.5 50.5 52.5 l-420 0 l-9 29 l440 0 l49 51 l88 -79 q-10 -10 -40 -11 q-37 -24 -84 -50 q-47 -26 -96 -47 l3 0 q-4 -21 -36 -26 l0 -86 l266 0 Z" /><glyph glyph-name="cid15550" unicode="&#x5b58;" d="M789 282 l51 65 q0 0 16.5 -12.5 q16.5 -12.5 39.5 -30.5 q23 -18 40 -35 q-1 -8 -8.5 -12 q-7.5 -4 -17.5 -4 l-238 0 l0 -226 q0 -31 -8 -53.5 q-8 -22.5 -34 -36 q-26 -13.5 -80 -18.5 q-2 19 -7 33.5 q-5 14.5 -16 23.5 q-12 9 -33 16.5 q-21 7.5 -57 12.5 l0 15 q0 0 17 -1 q17 -1 40.5 -3 q23.5 -2 44.5 -3 q21 -1 29 -1 q14 0 18.5 4.5 q4.5 4.5 4.5 15.5 l0 221 l-237 0 l-7 29 l244 0 l0 103 l54 -6 q26 26 54 58.5 q28 32.5 48 60.5 l-335 0 l-9 30 l352 0 l50 47 l83 -80 q-6 -6 -15.5 -8 q-9.5 -2 -25.5 -3 q-29 -26 -75.5 -55.5 q-46.5 -29.5 -90.5 -52.5 l26 -3 q-4 -21 -35 -25 l0 -66 l117 0 ZM786 677 l56 70 q0 0 18 -13.5 q18 -13.5 42 -32.5 q24 -19 43 -37 q-4 -16 -27 -16 l-507 0 q-24 -49 -53 -97.5 q-29 -48.5 -64 -95.5 l35 -13 q-5 -14 -30 -18 l0 -465 q-1 -7 -20 -23 q-19 -16 -46 -16 l-14 0 l0 447 q-37 -38 -77.5 -72.5 q-40.5 -34.5 -87.5 -63.5 l-11 12 q95 80 165 187 q70 107 117 218 l-248 0 l-8 29 l268 0 q16 43 29 84.5 q13 41.5 23 81.5 l120 -37 q-3 -9 -11.5 -14 q-8.5 -5 -28.5 -4 q-10 -27 -20.5 -55 q-10.5 -28 -23.5 -56 l361 0 Z" /><glyph glyph-name="cid15564" unicode="&#x5b63;" d="M807 204 l51 68 q0 0 16.5 -13 q16.5 -13 39 -32 q22.5 -19 40.5 -36 q-4 -16 -26 -16 l-387 0 l0 -148 q0 -31 -8 -53 q-8 -22 -33.5 -35.5 q-25.5 -13.5 -78.5 -19.5 q-2 19 -7.5 33 q-5.5 14 -16.5 24 q-12 9 -32.5 16.5 q-20.5 7.5 -57.5 12.5 l0 14 q0 0 17 -1 q17 -1 41 -2.5 q24 -1.5 45.5 -2.5 q21.5 -1 29.5 -1 q21 0 21 19 l0 144 l-406 0 l-8 29 l414 0 l0 86 l69 -7 q21 17 44 36 q23 19 42 36 l-372 0 l-9 29 l401 0 l51 48 l84 -78 q-6 -5 -15.5 -6.5 q-9.5 -1.5 -24.5 -2.5 q-33 -14 -77.5 -32 q-44.5 -18 -88.5 -33 l9 -1 q-4 -21 -33 -25 l0 -50 l266 0 ZM928 598 l-337 0 q46 -41 109.5 -75 q63.5 -34 134.5 -58 q71 -24 139 -36 l-1 -11 q-23 -4 -41 -23 q-18 -19 -25 -47 q-106 35 -196.5 98.5 q-90.5 63.5 -148.5 151.5 l-23 0 l0 -171 q0 -4 -18 -12.5 q-18 -8.5 -49 -8.5 l-13 0 l0 168 q-73 -81 -181.5 -141.5 q-108.5 -60.5 -238.5 -98.5 l-8 15 q103 45 190 110.5 q87 65.5 144 138.5 l-309 0 l-8 30 l411 0 l0 102 q-84 -5 -170.5 -8 q-86.5 -3 -169.5 -3 l-2 19 q84 6 175 17.5 q91 11.5 180 25.5 q89 14 167 29.5 q78 15.5 134 30.5 l81 -86 q-7 -5 -22 -5 q-15 0 -35 10 q-55 -7 -121 -13.5 q-66 -6.5 -137 -11.5 l0 -107 l270 0 l50 63 q0 0 16.5 -12.5 q16.5 -12.5 38.5 -30 q22 -17.5 40 -34.5 q-4 -16 -26 -16 Z" /><glyph glyph-name="cid15572" unicode="&#x5b66;" d="M416 836 l11 7 q65 -26 96.5 -58.5 q31.5 -32.5 38.5 -62.5 q7 -30 -4 -51 q-11 -21 -31.5 -25 q-20.5 -4 -42.5 16 q-1 45 -22 92.5 q-21 47.5 -46 81.5 ZM192 820 l10 7 q68 -22 103 -51.5 q35 -29.5 45 -58.5 q10 -29 1.5 -50 q-8.5 -21 -28 -27 q-19.5 -6 -42.5 12 q-4 28 -18 58.5 q-14 30.5 -33 59.5 q-19 29 -38 50 ZM805 255 l55 71 q0 0 17.5 -13.5 q17.5 -13.5 41 -33 q23.5 -19.5 41.5 -37.5 q-4 -16 -26 -16 l-388 0 l0 -195 q0 -32 -8.5 -55.5 q-8.5 -23.5 -37.5 -37.5 q-29 -14 -89 -20 q-3 20 -9 34.5 q-6 14.5 -20 24.5 q-15 10 -39.5 18 q-24.5 8 -68.5 14 l0 15 q0 0 21 -1.5 q21 -1.5 50.5 -3.5 q29.5 -2 55.5 -3.5 q26 -1.5 36 -1.5 q14 0 19.5 5 q5.5 5 5.5 17 l0 190 l-408 0 l-8 29 l416 0 l0 105 l63 -6 q27 23 57.5 51 q30.5 28 53.5 53 l-414 0 l-9 29 l436 0 l50 48 l84 -81 q-6 -5 -15.5 -6.5 q-9.5 -1.5 -25.5 -3.5 q-32 -22 -80 -47.5 q-48 -25.5 -95 -46.5 l12 -1 q-3 -21 -33 -25 l0 -69 l259 0 ZM877 678 l91 -86 q-6 -7 -15 -9 q-9 -2 -24 -3 q-17 -17 -42.5 -37 q-25.5 -20 -53 -38.5 q-27.5 -18.5 -51.5 -32.5 l-11 8 q14 23 29.5 56 q15.5 33 26.5 61 l-648 0 q3 -52 -14 -87.5 q-17 -35.5 -40 -51.5 q-22 -15 -46 -14 q-24 1 -32 20 q-9 19 0.5 35.5 q9.5 16.5 25.5 26.5 q21 13 38.5 38.5 q17.5 25.5 26.5 59 q9 33.5 5 70.5 l15 1 q13 -36 18 -68 l443 0 q32 47 63 105.5 q31 58.5 51 107.5 l116 -42 q-7 -20 -39 -17 q-28 -35 -70 -77 q-42 -42 -86 -77 l173 0 l50 51 Z" /><glyph glyph-name="cid15636" unicode="&#x5b87;" d="M421 834 l9 7 q67 -10 101 -32.5 q34 -22.5 42.5 -48.5 q8.5 -26 -1.5 -46 q-10 -20 -31.5 -26 q-21.5 -6 -46.5 13 q-3 35 -25 73 q-22 38 -48 60 ZM828 651 l-642 0 q2 -51 -14.5 -84 q-16.5 -33 -40.5 -49 q-21 -15 -47.5 -11.5 q-26.5 3.5 -37.5 25.5 q-7 20 4 38 q11 18 30 28 q19 11 36.5 31 q17.5 20 28.5 47 q11 27 8 57 l17 1 q5 -14 8.5 -27.5 q3.5 -13.5 4.5 -26.5 l642 0 l48 49 l88 -84 q-9 -9 -38 -10 q-22 -25 -57 -57 q-35 -32 -65 -53 l-12 8 q10 23 21 56.5 q11 33.5 18 61.5 ZM799 325 l53 66 q0 0 16.5 -13 q16.5 -13 39.5 -31.5 q23 -18.5 41 -35.5 q-4 -16 -27 -16 l-382 0 l0 -260 q0 -31 -8.5 -54.5 q-8.5 -23.5 -35.5 -39 q-27 -15.5 -83 -20.5 q-1 20 -6.5 35 q-5.5 15 -17.5 24 q-13 11 -35.5 18.5 q-22.5 7.5 -63.5 12.5 l0 14 q0 0 18.5 -1 q18.5 -1 44 -3 q25.5 -2 49 -3 q23.5 -1 32.5 -1 q14 0 19.5 5.5 q5.5 5.5 5.5 15.5 l0 257 l-401 0 l-8 30 l409 0 l0 170 l-259 0 l-8 30 l466 0 l50 61 q0 0 16 -12 q16 -12 38 -29 q22 -17 40 -34 q-4 -16 -26 -16 l-236 0 l0 -170 l259 0 Z" /><glyph glyph-name="cid15684" unicode="&#x5b9e;" d="M421 834 l9 7 q67 -10 101 -32.5 q34 -22.5 42.5 -48.5 q8.5 -26 -1.5 -46 q-10 -20 -31.5 -26 q-21.5 -6 -46.5 13 q-3 35 -25 73 q-22 38 -48 60 ZM829 651 l-644 0 q2 -50 -15 -84 q-17 -34 -41 -48 q-21 -14 -47.5 -10.5 q-26.5 3.5 -36.5 26.5 q-7 21 4 38.5 q11 17.5 31 27.5 q19 10 36.5 30 q17.5 20 28.5 46.5 q11 26.5 8 55.5 l16 1 q5 -13 8.5 -27 q3.5 -14 4.5 -27 l643 0 l48 50 l88 -85 q-10 -9 -38 -10 q-21 -26 -55.5 -58.5 q-34.5 -32.5 -63.5 -53.5 l-12 7 q10 25 20.5 58.5 q10.5 33.5 16.5 62.5 ZM250 595 l9 7 q72 -10 112 -32 q40 -22 54 -46.5 q14 -24.5 9 -44 q-5 -19.5 -23.5 -27 q-18.5 -7.5 -42.5 5.5 q-10 22 -30 47.5 q-20 25.5 -43.5 49 q-23.5 23.5 -44.5 40.5 ZM172 444 l9 8 q77 -12 119.5 -35.5 q42.5 -23.5 58 -50 q15.5 -26.5 10.5 -48 q-5 -21.5 -23.5 -29.5 q-18.5 -8 -44.5 6 q-10 25 -31.5 52.5 q-21.5 27.5 -47.5 53 q-26 25.5 -50 43.5 ZM791 254 l55 72 q0 0 17.5 -14 q17.5 -14 41.5 -34 q24 -20 42 -38 q-3 -16 -27 -16 l-374 0 q-7 -25 -21 -48 q112 -22 185.5 -51.5 q73.5 -29.5 114.5 -61 q41 -31.5 56.5 -60.5 q15.5 -29 12 -49 q-3.5 -20 -20.5 -27 q-17 -7 -40 5 q-23 31 -68 71 q-45 40 -108 81 q-63 41 -142 75 q-34 -53 -93 -97 q-59 -44 -151 -80 q-92 -36 -226 -65 l-8 17 q130 36 215 79.5 q85 43.5 135 96 q50 52.5 74 114.5 l-387 0 l-9 30 l407 0 q24 75 26.5 165.5 q2.5 90.5 2.5 198.5 l121 -12 q-1 -10 -9 -17.5 q-8 -7.5 -26 -9.5 q-2 -94 -6 -175 q-4 -81 -24 -150 l234 0 Z" /><glyph glyph-name="cid15690" unicode="&#x5ba2;" d="M413 836 l9 7 q63 -5 95.5 -23 q32.5 -18 41.5 -40.5 q9 -22.5 1 -41.5 q-8 -19 -27.5 -25 q-19.5 -6 -43.5 9 q-5 30 -27.5 62.5 q-22.5 32.5 -48.5 51.5 ZM665 224 l23 25 q-99 38 -178 94 q-47 -28 -99.5 -54 q-52.5 -26 -107.5 -47 l44 -18 l318 0 ZM335 16 l339 0 l0 179 l-339 0 l0 -179 ZM637 549 l-251 0 q-5 -5 -9.5 -11 q-4.5 -6 -9.5 -11 q26 -33 60 -61.5 q34 -28.5 74 -52.5 q84 66 136 136 ZM702 629 l87 -85 q-7 -6 -18.5 -8 q-11.5 -2 -33.5 -4 q-32 -40 -76 -79 q-44 -39 -96 -75 q88 -41 192 -67 q104 -26 213 -39 l-2 -12 q-56 -10 -68 -72 q-35 7 -69 15.5 q-34 8.5 -66 18.5 l28 -21 q-4 -5 -14.5 -10.5 q-10.5 -5.5 -24.5 -8.5 l0 -232 q0 -3 -11.5 -8.5 q-11.5 -5.5 -26.5 -10 q-15 -4.5 -29 -4.5 l-13 0 l0 60 l-339 0 l0 -37 q0 -4 -18 -15.5 q-18 -11.5 -47 -11.5 l-14 0 l0 300 q-52 -19 -105 -34.5 q-53 -15.5 -106 -26.5 l-7 15 q114 35 223.5 88 q109.5 53 198.5 117 q-31 29 -59 60.5 q-28 31.5 -50 68.5 q-57 -56 -121 -97.5 q-64 -41.5 -128 -68.5 l-11 14 q50 33 101.5 81.5 q51.5 48.5 98 109.5 q46.5 61 81.5 130 l-189 0 q3 -50 -14 -84 q-17 -34 -40 -48 q-20 -14 -44 -12.5 q-24 1.5 -33 21.5 q-7 18 2.5 34 q9.5 16 26.5 25 q29 17 51.5 55.5 q22.5 38.5 19.5 85.5 l16 0 q9 -25 12 -48 l644 0 l47 47 l85 -81 q-11 -10 -39 -11 q-18 -26 -48 -58.5 q-30 -32.5 -56 -55.5 l-11 7 q6 25 14 59 q8 34 14 64 l-454 0 l103 -53 q-4 -7 -14.5 -11.5 q-10.5 -4.5 -26.5 -0.5 q-14 -20 -28 -37 l233 0 l59 51 Z" /><glyph glyph-name="cid15734" unicode="&#x5bb6;" d="M413 836 l9 7 q63 -5 95.5 -23 q32.5 -18 41.5 -40.5 q9 -22.5 1 -41.5 q-8 -19 -27.5 -25 q-19.5 -6 -43.5 9 q-5 30 -28 62.5 q-23 32.5 -48 51.5 ZM831 680 l-651 0 q2 -48 -14.5 -80.5 q-16.5 -32.5 -39.5 -48.5 q-19 -13 -43 -11 q-24 2 -33 22 q-7 20 2 35 q9 15 27 25 q29 15 51 52 q22 37 20 83 l16 0 q5 -12 7.5 -24.5 q2.5 -12.5 4.5 -23.5 l647 0 l46 47 l84 -81 q-5 -5 -14 -7 q-9 -2 -23 -4 q-18 -22 -46.5 -48 q-28.5 -26 -52.5 -43 l-12 7 q6 20 13 47.5 q7 27.5 11 52.5 ZM792 500 l93 -72 q-6 -6 -14 -7.5 q-8 -1.5 -24 3.5 q-40 -23 -99 -48 q-59 -25 -123 -48 q32 -67 84 -118.5 q52 -51.5 117.5 -88.5 q65.5 -37 136.5 -60 l-2 -10 q-50 -8 -69 -69 q-103 53 -176.5 135.5 q-73.5 82.5 -111.5 203.5 q-15 -5 -30 -10 q-15 -5 -29 -9 q33 -69 41.5 -137.5 q8.5 -68.5 -2.5 -124 q-11 -55.5 -37 -85.5 q-33 -37 -122 -37 q-1 36 -21 51 q-10 8 -33 16 q-23 8 -52 12 l-1 16 q21 -2 48.5 -4 q27.5 -2 51.5 -3 q24 -1 36 -1 q21 0 28 10 q17 22 25 66.5 q8 44.5 2 99.5 q-57 -45 -129.5 -85.5 q-72.5 -40.5 -153.5 -73 q-81 -32.5 -163 -53.5 l-7 16 q82 31 163.5 77 q81.5 46 151.5 102.5 q70 56.5 118 117.5 q-7 24 -18 48 q-49 -36 -113 -70.5 q-64 -34.5 -134 -64 q-70 -29.5 -139 -50.5 l-7 15 q64 28 130 68 q66 40 124.5 86 q58.5 46 98.5 92 q-14 20 -28 37 q-67 -40 -145 -72 q-78 -32 -160 -55 l-8 16 q93 38 178.5 92.5 q85.5 54.5 146.5 111.5 l-223 0 l-8 29 l504 0 l50 62 q0 0 15.5 -12 q15.5 -12 37 -29.5 q21.5 -17.5 39.5 -33.5 q-3 -16 -27 -16 l-272 0 q-24 -22 -51.5 -42.5 q-27.5 -20.5 -57.5 -38.5 q36 -29 64.5 -63.5 q28.5 -34.5 48.5 -70.5 q47 26 96 57.5 q49 31.5 91.5 63.5 q42.5 32 69.5 58 Z" /><glyph glyph-name="cid15741" unicode="&#x5bb9;" d="M413 836 l9 7 q63 -5 95.5 -23 q32.5 -18 41.5 -40.5 q9 -22.5 1 -41.5 q-8 -19 -27.5 -25 q-19.5 -6 -43.5 9 q-5 30 -27.5 62.5 q-22.5 32.5 -48.5 51.5 ZM830 680 l-649 0 q3 -51 -14 -85 q-17 -34 -40 -48 q-20 -14 -44 -12.5 q-24 1.5 -33 21.5 q-7 18 2 33.5 q9 15.5 26 25.5 q29 16 52 55.5 q23 39.5 20 87.5 l16 0 q9 -25 12 -49 l647 0 l47 48 l84 -82 q-5 -5 -14.5 -7 q-9.5 -2 -23.5 -4 q-18 -23 -48 -51 q-30 -28 -56 -47 l-12 7 q7 21 15 51 q8 30 13 56 ZM573 615 l9 10 q94 -13 151 -40.5 q57 -27.5 83.5 -58.5 q26.5 -31 28 -57.5 q1.5 -26.5 -15 -38.5 q-16.5 -12 -45.5 -1 q-19 33 -54.5 68 q-35.5 35 -77 66 q-41.5 31 -79.5 52 ZM121 397 l-10 13 q46 30 89.5 70.5 q43.5 40.5 78.5 83.5 q35 43 56 80 l102 -47 q-4 -7 -12 -10 q-8 -3 -25 -1 q-28 -33 -72 -69 q-44 -36 -97 -67 q-53 -31 -110 -53 ZM674 211 l-351 0 l0 -193 l351 0 l0 193 ZM451 547 l132 -31 q-5 -16 -42 -20 q44 -52 113 -97.5 q69 -45.5 151 -80.5 q82 -35 164 -57 l-1 -15 q-26 -7 -44.5 -27 q-18.5 -20 -23.5 -43 q-81 32 -154.5 79.5 q-73.5 47.5 -131 106 q-57.5 58.5 -91.5 122.5 q-41 -56 -107 -112.5 q-66 -56.5 -145 -105.5 l58 -25 l336 0 l40 42 l84 -65 q-4 -4 -13.5 -9.5 q-9.5 -5.5 -22.5 -7.5 l0 -253 q0 -3 -11.5 -8.5 q-11.5 -5.5 -26.5 -10 q-15 -4.5 -28 -4.5 l-13 0 l0 63 l-351 0 l0 -45 q0 -4 -21 -14 q-21 -10 -45 -10 l-12 0 l0 332 q-49 -28 -101 -52.5 q-52 -24.5 -104 -41.5 l-8 14 q66 30 132.5 74.5 q66.5 44.5 124.5 96.5 q58 52 100.5 105 q42.5 53 61.5 100 Z" /><glyph glyph-name="cid15765" unicode="&#x5bc6;" d="M413 839 l9 8 q63 -4 95.5 -22.5 q32.5 -18.5 41.5 -41.5 q9 -23 1 -41.5 q-8 -18.5 -27.5 -25 q-19.5 -6.5 -43.5 9.5 q-5 30 -28 62 q-23 32 -48 51 ZM830 683 l-649 0 q3 -50 -14 -84 q-17 -34 -40 -49 q-19 -13 -43.5 -11.5 q-24.5 1.5 -33.5 20.5 q-7 19 2 34.5 q9 15.5 26 25.5 q29 16 52 55 q23 39 20 86 l16 1 q9 -23 12 -48 l646 0 l47 47 l84 -81 q-5 -5 -14 -7 q-9 -2 -23 -4 q-18 -23 -46 -52 q-28 -29 -54 -49 l-11 7 q5 22 12 52 q7 30 11 57 ZM407 663 l10 6 q57 -13 86.5 -35.5 q29.5 -22.5 37.5 -46.5 q8 -24 0 -42 q-8 -18 -25.5 -23 q-17.5 -5 -37.5 10 q-3 35 -25 71.5 q-22 36.5 -46 59.5 ZM195 565 l16 0 q17 -53 12.5 -94 q-4.5 -41 -21 -67.5 q-16.5 -26.5 -37.5 -39.5 q-19 -13 -43 -10.5 q-24 2.5 -32 21.5 q-7 19 3 34 q10 15 27 24 q29 14 52.5 50 q23.5 36 22.5 82 ZM549 298 l-142 0 q-76 0 -97 16 q-117 -44 -244 -68 l-7 17 q120 34 232 86 q-1 5 -1 10 q0 5 0 11 l0 241 l103 -11 q-3 -21 -30 -25 l0 -189 q104 57 187 126 q83 69 135 142 l89 -60 q-6 -7 -14.5 -8.5 q-8.5 -1.5 -26.5 4.5 q-52 -62 -130 -120 q-78 -58 -176 -106 l126 0 q45 0 79 0.5 q34 0.5 47 1.5 q19 3 26 11 q6 10 14.5 33 q8.5 23 17.5 54 l12 0 l3 -89 q20 -6 27 -13 q7 -7 7 -18 q0 -17 -17.5 -27 q-17.5 -10 -68.5 -14.5 q-51 -4.5 -151 -4.5 ZM755 2 l0 223 l117 -11 q-1 -11 -9 -18 q-8 -7 -28 -10 l0 -252 q0 -6 -21 -13.5 q-21 -7.5 -44 -7.5 l-15 0 l0 60 l-496 0 l-31 -41 l-93 53 q6 6 16.5 13 q10.5 7 20.5 13 l0 213 l117 -13 q-3 -22 -38 -28 l0 -181 l210 0 l0 268 l113 -11 q-1 -10 -8.5 -16.5 q-7.5 -6.5 -24.5 -9.5 l0 -231 l214 0 ZM741 543 l10 9 q75 -22 115 -53 q40 -31 53 -62.5 q13 -31.5 6.5 -55 q-6.5 -23.5 -26 -30.5 q-19.5 -7 -43.5 11 q-5 32 -22.5 65.5 q-17.5 33.5 -42 64 q-24.5 30.5 -50.5 51.5 Z" /><glyph glyph-name="cid15881" unicode="&#x5bf9;" d="M406 763 l82 -75 q-7 -12 -39 -15 q-16 -80 -41.5 -163.5 q-25.5 -83.5 -61.5 -163.5 q28 -37 50.5 -74.5 q22.5 -37.5 38.5 -71.5 q23 -52 22.5 -88 q-0.5 -36 -15 -51.5 q-14.5 -15.5 -34.5 -6.5 q-20 9 -35 46 q-10 36 -26.5 79.5 q-16.5 43.5 -39.5 89.5 q-48 -88 -113 -167 q-65 -79 -152 -144 l-13 11 q76 76 135.5 173 q59.5 97 103.5 203 q-35 62 -78 121.5 q-43 59.5 -93 106.5 l14 9 q54 -42 99 -84.5 q45 -42.5 82 -85.5 q50 137 74 274 l-309 0 l-9 30 l312 0 l46 47 ZM476 452 l8 10 q74 -30 112 -67 q38 -37 49.5 -72.5 q11.5 -35.5 3.5 -60.5 q-8 -25 -27 -32 q-19 -7 -40 14 q-8 29 -21.5 66 q-13.5 37 -34 75 q-20.5 38 -50.5 67 ZM831 592 l47 69 q0 0 15 -13.5 q15 -13.5 35 -33 q20 -19.5 34 -36.5 q-3 -16 -25 -16 l-127 0 l0 -530 q0 -31 -8 -54 q-8 -23 -35.5 -37.5 q-27.5 -14.5 -84.5 -20.5 q-2 20 -8 35 q-6 15 -19 24 q-13 11 -36.5 18.5 q-23.5 7.5 -64.5 13.5 l0 15 q0 0 19.5 -1.5 q19.5 -1.5 46.5 -3 q27 -1.5 50.5 -3 q23.5 -1.5 32.5 -1.5 q16 0 21.5 5.5 q5.5 5.5 5.5 17.5 l0 522 l-279 0 l-8 30 l287 0 l0 244 l117 -12 q-2 -10 -10.5 -17.5 q-8.5 -7.5 -26.5 -9.5 l0 -205 l21 0 Z" /><glyph glyph-name="cid15920" unicode="&#x5c0f;" d="M684 584 q89 -64 145 -127.5 q56 -63.5 84.5 -120 q28.5 -56.5 35 -101.5 q6.5 -45 -3.5 -73 q-10 -28 -31 -33 q-21 -5 -48 18 q-5 52 -24.5 109 q-19.5 57 -47.5 114 q-28 57 -60.5 110 q-32.5 53 -64.5 97 l15 7 ZM236 601 l126 -43 q-3 -7 -11 -12 q-8 -5 -28 -4 q-24 -69 -61.5 -150 q-37.5 -81 -90 -160 q-52.5 -79 -121.5 -142 l-12 10 q38 53 69.5 117 q31.5 64 56.5 131.5 q25 67.5 43.5 132.5 q18.5 65 28.5 120 ZM467 830 l122 -13 q-2 -10 -10 -17.5 q-8 -7.5 -27 -9.5 l0 -752 q0 -33 -9 -57 q-9 -24 -37.5 -39.5 q-28.5 -15.5 -89.5 -21.5 q-2 21 -8.5 36.5 q-6.5 15.5 -20.5 25.5 q-15 11 -40 19.5 q-25 8.5 -69 15.5 l0 15 q0 0 21 -1.5 q21 -1.5 50 -3.5 q29 -2 55 -3.5 q26 -1.5 35 -1.5 q17 0 22.5 5.5 q5.5 5.5 5.5 18.5 l0 784 Z" /><glyph glyph-name="cid15975" unicode="&#x5c31;" d="M751 784 l11 6 q61 -19 91.5 -44.5 q30.5 -25.5 38 -50 q7.5 -24.5 -0.5 -42 q-8 -17.5 -26 -21 q-18 -3.5 -38 12.5 q-6 35 -29 73.5 q-23 38.5 -47 65.5 ZM198 832 l10 7 q61 -12 92.5 -34 q31.5 -22 40.5 -46 q9 -24 1 -42.5 q-8 -18.5 -26.5 -24 q-18.5 -5.5 -40.5 9.5 q-7 33 -30.5 70 q-23.5 37 -46.5 60 ZM537 649 l-490 0 l-8 29 l381 0 l50 66 q0 0 16 -13 q16 -13 38 -31 q22 -18 40 -35 q-4 -16 -27 -16 ZM129 269 l105 -34 q-3 -9 -11.5 -15 q-8.5 -6 -25.5 -5 q-28 -61 -67 -112 q-39 -51 -83 -85 l-14 9 q29 44 55 108 q26 64 41 134 ZM177 533 l0 -155 l219 0 l0 155 l-219 0 ZM396 348 l-70 0 l0 -323 q0 -29 -7 -51 q-7 -22 -29 -36 q-22 -14 -68 -19 q-1 17 -5 31.5 q-4 14.5 -12 22.5 q-9 10 -25.5 16.5 q-16.5 6.5 -45.5 10.5 l0 15 q0 0 12 -1 q12 -1 29.5 -2 q17.5 -1 33 -2 q15.5 -1 21.5 -1 q12 0 16 4 q4 4 4 14 l0 321 l-73 0 l0 -24 q0 -5 -19.5 -14 q-19.5 -9 -42.5 -9 l-11 0 l0 295 l78 -34 l205 0 l39 41 l85 -63 q-10 -14 -39 -20 l0 -187 q0 -3 -11 -7.5 q-11 -4.5 -25.5 -8.5 q-14.5 -4 -27.5 -4 l-12 0 l0 35 ZM361 258 l12 7 q59 -27 88 -57.5 q29 -30.5 35.5 -58.5 q6.5 -28 -3 -47 q-9.5 -19 -27.5 -22.5 q-18 -3.5 -38 14.5 q-2 41 -23 87 q-21 46 -44 77 ZM945 183 l3 -159 q17 -7 22 -15 q5 -8 5 -19 q0 -22 -27.5 -34 q-27.5 -12 -106.5 -12 l-59 1 q-49 0 -63.5 16.5 q-14.5 16.5 -14.5 54.5 l0 512 l-14 0 q-4 -95 -17.5 -181.5 q-13.5 -86.5 -43 -163.5 q-29.5 -77 -82 -143.5 q-52.5 -66.5 -135.5 -122.5 l-13 17 q84 77 128.5 168 q44.5 91 63 197.5 q18.5 106.5 22.5 228.5 l-92 0 l-8 29 l101 0 q2 66 1.5 136.5 q-0.5 70.5 -0.5 146.5 l116 -12 q-2 -11 -10 -18.5 q-8 -7.5 -26 -10.5 q-1 -63 -1.5 -124 q-0.5 -61 -2.5 -118 l136 0 l49 63 q0 0 16 -12.5 q16 -12.5 38 -30 q22 -17.5 39 -33.5 q-4 -16 -27 -16 l-163 0 l0 -13 l0 -478 q0 -11 4 -15.5 q4 -4.5 20 -4.5 l41 0 q14 0 25 0 q11 0 16 1 q5 0 9 2.5 q4 2.5 7 9.5 q4 9 9 33.5 q5 24.5 11 56.5 q6 32 11 63 l13 0 Z" /><glyph glyph-name="cid16037" unicode="&#x5c55;" d="M470 428 l0 -135 l167 0 l0 135 l-167 0 ZM803 752 l-567 0 l0 -133 l567 0 l0 133 ZM809 251 l91 -64 q-5 -7 -13.5 -8.5 q-8.5 -1.5 -24.5 3.5 q-31 -17 -76 -38.5 q-45 -21.5 -91 -40.5 q56 -39 125.5 -63 q69.5 -24 149.5 -38 l-2 -12 q-25 -5 -42 -23.5 q-17 -18.5 -25 -47.5 q-140 43 -230 123 q-90 80 -134 222 l-116 0 l0 -239 q37 11 79.5 24 q42.5 13 85.5 28 l4 -14 q-31 -20 -86.5 -55 q-55.5 -35 -120.5 -73 q-7 -13 -19 -20 l-57 89 q24 15 30.5 23 q6.5 8 6.5 19 l0 218 l-126 0 l-2 6 q-16 -93 -55.5 -183.5 q-39.5 -90.5 -115.5 -165.5 l-15 9 q57 92 83.5 194 q26.5 102 34 207.5 q7.5 105.5 7.5 207.5 l0 279 l95 -37 l543 0 l41 44 l90 -67 q-11 -13 -43 -21 l0 -164 q0 -3 -11 -8 q-11 -5 -26 -9 q-15 -4 -28 -4 l-13 0 l0 38 l-567 0 l0 -50 q0 -56 -2.5 -119 q-2.5 -63 -13.5 -128 l173 0 l0 135 l-139 0 l-8 29 l147 0 l0 114 l108 -9 q-1 -10 -8 -16 q-7 -6 -23 -10 l0 -79 l167 0 l0 113 l107 -10 q-1 -10 -7.5 -16 q-6.5 -6 -23.5 -10 l0 -77 l52 0 l48 62 q0 0 15 -12 q15 -12 35.5 -29.5 q20.5 -17.5 36.5 -33.5 q-3 -16 -26 -16 l-161 0 l0 -135 l105 0 l50 67 q0 0 16 -13 q16 -13 37.5 -31.5 q21.5 -18.5 38.5 -35.5 q-3 -16 -26 -16 l-376 0 q20 -44 49.5 -80 q29.5 -36 65.5 -65 q37 32 75 69.5 q38 37.5 61 62.5 Z" /><glyph glyph-name="cid16592" unicode="&#x5d4c;" d="M824 280 l-13 5 q9 29 19.5 71.5 q10.5 42.5 17.5 77.5 l-217 0 q-27 -58 -60 -106 q-33 -48 -73 -83 l-15 10 q40 63 71 153 q31 90 44 188 l111 -27 q-5 -22 -36 -22 q-6 -22 -13.5 -42.5 q-7.5 -20.5 -15.5 -40.5 l199 0 l44 44 l77 -77 q-11 -9 -38 -10 q-12 -20 -29.5 -46 q-17.5 -26 -36.5 -51.5 q-19 -25.5 -36 -43.5 ZM189 593 l-93 53 q15 14 38 25 l0 134 l115 -13 q-1 -10 -9.5 -17.5 q-8.5 -7.5 -28.5 -10.5 l0 -102 l248 0 l0 179 l116 -11 q-2 -10 -10 -17.5 q-8 -7.5 -28 -9.5 l0 -141 l255 0 l0 143 l116 -12 q-1 -10 -9.5 -17 q-8.5 -7 -28.5 -10 l0 -149 q0 -5 -20.5 -12.5 q-20.5 -7.5 -43.5 -7.5 l-14 0 l0 36 l-573 0 l-30 -40 ZM210 47 l160 0 l0 182 l-160 0 l0 -182 ZM370 421 l-160 0 l0 -162 l160 0 l0 162 ZM446 421 l0 -444 q0 -7 -20.5 -16.5 q-20.5 -9.5 -40.5 -9.5 l-15 0 l0 66 l-160 0 l0 -69 q0 -7 -20.5 -16.5 q-20.5 -9.5 -40.5 -9.5 l-15 0 l0 499 l-86 0 l-8 29 l94 0 l0 130 l105 -12 q-1 -8 -7.5 -14 q-6.5 -6 -21.5 -8 l0 -96 l160 0 l0 130 l105 -12 q-1 -8 -7.5 -14 q-6.5 -6 -21.5 -8 l0 -96 l8 0 l38 52 q0 0 11.5 -10.5 q11.5 -10.5 27 -25.5 q15.5 -15 27.5 -29 q-4 -16 -25 -16 l-87 0 ZM741 343 l-3 -22 q10 -67 35 -126.5 q25 -59.5 73 -108 q48 -48.5 126 -83.5 l-2 -12 q-30 -6 -46.5 -21.5 q-16.5 -15.5 -21.5 -51.5 q-56 35 -91 88.5 q-35 53.5 -54.5 118 q-19.5 64.5 -28.5 132.5 q-12 -66 -41 -129.5 q-29 -63.5 -85 -117.5 q-56 -54 -150 -92 l-12 14 q73 38 117.5 90 q44.5 52 68.5 112.5 q24 60.5 33.5 125 q9.5 64.5 11.5 128.5 l105 -25 q-2 -9 -10 -15 q-8 -6 -25 -5 Z" /><glyph glyph-name="cid16931" unicode="&#x5dde;" d="M239 810 l113 -12 q-2 -10 -9 -17.5 q-7 -7.5 -27 -10.5 l0 -336 q-1 -103 -22 -199 q-21 -96 -76 -176.5 q-55 -80.5 -159 -138.5 l-10 13 q77 63 118 142 q41 79 56.5 170 q15.5 91 15.5 189 l0 376 ZM801 810 l116 -13 q-2 -10 -9.5 -17.5 q-7.5 -7.5 -27.5 -10.5 l0 -819 q0 -7 -20 -18.5 q-20 -11.5 -43 -11.5 l-16 0 l0 890 ZM512 795 l114 -13 q-2 -10 -9.5 -17.5 q-7.5 -7.5 -27.5 -10.5 l0 -791 q0 -7 -20 -17.5 q-20 -10.5 -42 -10.5 l-15 0 l0 860 ZM148 589 l16 1 q25 -74 23.5 -130.5 q-1.5 -56.5 -18 -94.5 q-16.5 -38 -36.5 -59 q-22 -22 -49.5 -24.5 q-27.5 -2.5 -39.5 17.5 q-10 17 -3.5 35 q6.5 18 22.5 30 q25 18 45.5 51.5 q20.5 33.5 32 78.5 q11.5 45 7.5 95 ZM352 554 q64 -38 95 -79.5 q31 -41.5 37.5 -77.5 q6.5 -36 -4 -60 q-10.5 -24 -30.5 -28.5 q-20 -4.5 -42 17.5 q2 37 -7.5 77 q-9.5 40 -26 78 q-16.5 38 -34.5 68 l12 5 ZM616 558 q73 -37 110 -78.5 q37 -41.5 47.5 -79 q10.5 -37.5 1.5 -63 q-9 -25.5 -29 -32 q-20 -6.5 -43 14.5 q0 39 -15 81 q-15 42 -37 81.5 q-22 39.5 -46 68.5 l11 7 Z" /><glyph glyph-name="cid16944" unicode="&#x2f2f;&#x5de5;" d="M801 31 l57 73 q0 0 18.5 -14 q18.5 -14 43.5 -34 q25 -20 44 -38 q-4 -16 -26 -16 l-889 0 l-9 29 l415 0 l0 630 l-339 0 l-8 29 l629 0 l57 72 q0 0 18 -13.5 q18 -13.5 42.5 -33.5 q24.5 -20 44.5 -38 q-4 -16 -28 -16 l-329 0 l0 -630 l259 0 Z" /><glyph glyph-name="cid16962" unicode="&#x5df2;" d="M891 235 l1 -182 q30 -9 41 -15.5 q11 -6.5 11 -19.5 q0 -19 -19 -34 q-19 -15 -68.5 -23 q-49.5 -8 -141.5 -8 l-371 0 q-97 0 -145.5 27 q-48.5 27 -48.5 102 l0 525 l112 -11 q-1 -10 -7.5 -17 q-6.5 -7 -23.5 -9 l0 -117 l498 0 l0 272 l-629 0 l-9 28 l627 0 l43 50 l96 -73 q-5 -7 -17 -13.5 q-12 -6.5 -29 -9.5 l0 -338 q0 -3 -12 -9 q-12 -6 -27.5 -11 q-15.5 -5 -29.5 -5 l-13 0 l0 81 l-498 0 l0 -345 q0 -31 26.5 -41 q26.5 -10 81.5 -10 l371 0 q54 0 80 6 q26 6 38 28 q8 14 17 42.5 q9 28.5 18.5 63.5 q9.5 35 15.5 66 l12 0 Z" /><glyph glyph-name="cid16983" unicode="&#x5e02;" d="M392 834 l9 8 q71 -10 109 -33 q38 -23 50 -49.5 q12 -26.5 4.5 -47.5 q-7.5 -21 -28 -28.5 q-20.5 -7.5 -46.5 8.5 q-6 25 -22 51.5 q-16 26.5 -36 50.5 q-20 24 -40 40 ZM803 676 l58 71 q0 0 17.5 -13.5 q17.5 -13.5 41.5 -33 q24 -19.5 44 -37.5 q-4 -16 -28 -16 l-395 0 l0 -136 l198 0 l39 46 l94 -70 q-4 -5 -15.5 -11 q-11.5 -6 -26.5 -9 l0 -313 q0 -29 -7.5 -50.5 q-7.5 -21.5 -32.5 -35 q-25 -13.5 -77 -18.5 q-2 19 -6.5 32.5 q-4.5 13.5 -14.5 23.5 q-10 8 -29 15.5 q-19 7.5 -54 11.5 l0 15 q0 0 14.5 -1 q14.5 -1 35.5 -2 q21 -1 40 -2 q19 -1 28 -1 q14 0 18 4.5 q4 4.5 4 14.5 l0 321 l-208 0 l0 -539 q-1 -4 -19 -14.5 q-18 -10.5 -50 -10.5 l-14 0 l0 564 l-208 0 l0 -400 q0 -6 -21 -16.5 q-21 -10.5 -46 -10.5 l-13 0 l0 493 l87 -37 l201 0 l0 136 l-410 0 l-9 29 l764 0 Z" /><glyph glyph-name="cid16990" unicode="&#x5e08;" d="M159 678 l0 -493 q0 -7 -18.5 -15.5 q-18.5 -8.5 -38.5 -8.5 l-14 0 l0 555 l107 -12 q-2 -10 -9.5 -17 q-7.5 -7 -26.5 -9 ZM247 414 l0 424 l109 -11 q-1 -10 -8.5 -17.5 q-7.5 -7.5 -26.5 -10.5 l0 -385 q0 -102 -20 -194 q-20 -92 -71 -168 q-51 -76 -144 -133 l-12 11 q69 62 106.5 137 q37.5 75 52 162 q14.5 87 14.5 185 ZM826 757 l48 63 q0 0 15.5 -12.5 q15.5 -12.5 37 -30 q21.5 -17.5 37.5 -33.5 q-4 -16 -26 -16 l-246 0 l0 -155 l119 0 l37 43 l89 -66 q-12 -14 -41 -20 l0 -379 q0 -29 -6 -49.5 q-6 -20.5 -26 -32.5 q-20 -12 -62 -16 q-1 17 -4 31 q-3 14 -9 22 q-7 9 -19.5 15 q-12.5 6 -34.5 10 l0 15 q0 0 14.5 -1 q14.5 -1 31 -2 q16.5 -1 23.5 -1 q11 0 14 4.5 q3 4.5 3 13.5 l0 383 l-129 0 l0 -600 q0 -4 -17 -14 q-17 -10 -46 -10 l-13 0 l0 624 l-129 0 l0 -471 q0 -4 -16.5 -14.5 q-16.5 -10.5 -44.5 -10.5 l-12 0 l0 562 l86 -36 l116 0 l0 155 l-235 0 l-8 29 l453 0 Z" /><glyph glyph-name="cid17002" unicode="&#x5e10;" d="M357 681 l84 -62 q-4 -5 -16 -11 q-12 -6 -26 -8 l0 -373 q0 -41 -13 -63 q-13 -22 -64 -28 q0 15 -2.5 28 q-2.5 13 -7.5 21 q-10 15 -39 22 l0 15 q0 0 9.5 -0.5 q9.5 -0.5 21 -1.5 q11.5 -1 16.5 -1 q13 0 13 16 l0 377 l-67 0 l0 -669 q-1 -4 -16.5 -13 q-15.5 -9 -35.5 -9 l-10 0 l0 691 l-69 0 l0 -464 q0 -6 -17 -15 q-17 -9 -39 -9 l-10 0 l0 550 l71 -33 l62 0 l0 198 l103 -10 q-1 -11 -9 -18 q-8 -7 -27 -10 l0 -160 l54 0 l34 40 ZM910 401 l-241 0 q34 -142 113 -240 q79 -98 191 -151 l-2 -10 q-51 -6 -73 -63 q-103 73 -163.5 185.5 q-60.5 112.5 -85.5 278.5 l-74 0 l0 -350 q32 12 66.5 26.5 q34.5 14.5 70.5 29.5 l5 -13 q-26 -22 -73.5 -60.5 q-47.5 -38.5 -104.5 -81.5 q-4 -13 -11 -22 q-7 -9 -14 -13 l-59 91 q28 17 35 25.5 q7 8.5 7 24.5 l0 343 l-76 0 l-8 30 l84 0 l0 405 l118 -15 q-1 -8 -10 -14 q-9 -6 -30 -9 l0 -294 q43 39 84 84.5 q41 45.5 76 90.5 q35 45 58 82 l100 -61 q-5 -7 -13.5 -9.5 q-8.5 -2.5 -25.5 1.5 q-31 -33 -75.5 -72 q-44.5 -39 -96.5 -76.5 q-52 -37.5 -107 -69.5 l0 -43 l218 0 l50 65 q0 0 16 -13 q16 -13 38 -31 q22 -18 39 -35 q-4 -16 -26 -16 Z" /><glyph glyph-name="cid17169" unicode="&#x5e74;&#xf98e;" d="M298 209 l208 0 l0 236 l-208 0 l0 -236 ZM802 209 l56 70 q0 0 18 -13.5 q18 -13.5 42 -32.5 q24 -19 43 -37 q-1 -8 -8.5 -12 q-7.5 -4 -17.5 -4 l-344 0 l0 -235 q0 -4 -19 -14.5 q-19 -10.5 -51 -10.5 l-15 0 l0 260 l-457 0 l-8 29 l173 0 l0 303 l96 -39 l196 0 l0 189 l-217 0 q-53 -74 -114.5 -133.5 q-61.5 -59.5 -126.5 -100.5 l-13 11 q47 47 94 112.5 q47 65.5 88.5 143.5 q41.5 78 70.5 161 l121 -47 q-4 -8 -14 -13.5 q-10 -5.5 -27 -3.5 q-26 -51 -59 -101 l460 0 l56 69 q0 0 17 -13 q17 -13 41.5 -31.5 q24.5 -18.5 44.5 -37.5 q-4 -16 -28 -16 l-309 0 l0 -189 l156 0 l52 66 q0 0 16.5 -13 q16.5 -13 39 -31 q22.5 -18 40.5 -35 q-3 -15 -27 -15 l-277 0 l0 -236 l211 0 Z" /><glyph glyph-name="cid17172" unicode="&#x5e76;" d="M243 830 l10 8 q75 -25 115 -58 q40 -33 53 -65 q13 -32 6.5 -55.5 q-6.5 -23.5 -26.5 -31 q-20 -7.5 -45 10.5 q-5 33 -23 68 q-18 35 -42 67 q-24 32 -48 56 ZM385 353 l233 0 l0 238 l-233 0 l0 -223 l0 -15 ZM808 353 l54 70 q0 0 17.5 -13.5 q17.5 -13.5 41 -32.5 q23.5 -19 41.5 -37 q-4 -16 -26 -16 l-235 0 l0 -380 q0 -4 -18 -14.5 q-18 -10.5 -50 -10.5 l-15 0 l0 405 l-234 0 q-3 -60 -17.5 -117.5 q-14.5 -57.5 -50 -110.5 q-35.5 -53 -100 -99 q-64.5 -46 -166.5 -81 l-9 13 q102 55 156.5 117 q54.5 62 77 131.5 q22.5 69.5 25.5 146.5 l-248 0 l-9 29 l258 0 l0 14 l0 224 l-211 0 l-9 29 l484 0 q28 50 55 112 q27 62 43 113 l123 -34 q-4 -9 -12.5 -15 q-8.5 -6 -25.5 -5 q-28 -38 -68.5 -85 q-40.5 -47 -83.5 -86 l182 0 l55 67 q0 0 17 -13 q17 -13 40 -31.5 q23 -18.5 42 -35.5 q-4 -16 -27 -16 l-204 0 l0 -238 l107 0 Z" /><glyph glyph-name="cid17181" unicode="&#x5e7b;" d="M264 840 l117 -46 q-4 -7 -13 -12 q-9 -5 -25 -4 q-25 -50 -63 -110.5 q-38 -60.5 -82 -119 q-44 -58.5 -87 -104.5 q41 1 99.5 3 q58.5 2 122.5 6 q31 53 55.5 101.5 q24.5 48.5 40.5 88.5 l114 -61 q-4 -7 -14.5 -12 q-10.5 -5 -27.5 -2 q-29 -52 -73 -115.5 q-44 -63.5 -96.5 -129.5 q-52.5 -66 -109 -128 q-56.5 -62 -110.5 -112 q59 6 144.5 17 q85.5 11 181.5 24 q-11 39 -27 76 q-16 37 -34 68 l13 5 q69 -47 103 -96.5 q34 -49.5 42 -92 q8 -42.5 -2.5 -70.5 q-10.5 -28 -32 -34 q-21.5 -6 -45.5 19 q1 47 -11 101 q-61 -19 -147 -44.5 q-86 -25.5 -187 -52.5 q-8 -14 -21 -20 l-48 101 q0 0 14.5 4 q14.5 4 22.5 11 q35 36 75.5 87.5 q40.5 51.5 82 112 q41.5 60.5 78.5 122.5 q-40 -11 -91 -25 q-51 -14 -108 -27 q-4 -7 -8.5 -12 q-4.5 -5 -10.5 -7 l-47 97 q0 0 11.5 3.5 q11.5 3.5 17.5 8.5 q25 30 53 78 q28 48 54 103 q26 55 47 107.5 q21 52.5 32 92.5 ZM875 784 l87 -75 q-11 -12 -44 -18 q-5 -221 -15 -368.5 q-10 -147.5 -26.5 -232.5 q-16.5 -85 -43.5 -117 q-23 -28 -54.5 -40 q-31.5 -12 -67.5 -12 q0 20 -3 35.5 q-3 15.5 -12 24.5 q-10 11 -33.5 19 q-23.5 8 -52.5 14 l1 16 q19 -1 42.5 -3.5 q23.5 -2.5 44 -4 q20.5 -1.5 31.5 -1.5 q14 0 22.5 3.5 q8.5 3.5 17.5 12.5 q32 30 47.5 199 q15.5 169 22.5 468 l-407 0 l-9 29 l405 0 l47 51 Z" /><glyph glyph-name="cid17224" unicode="&#x5e8f;" d="M431 836 l9 8 q71 -13 109 -37 q38 -24 50 -50.5 q12 -26.5 4.5 -47 q-7.5 -20.5 -27 -27 q-19.5 -6.5 -44.5 9.5 q-12 36 -42 77 q-30 41 -59 67 ZM825 346 l46 47 l84 -80 q-7 -6 -16 -8 q-9 -2 -24 -3 q-18 -19 -44.5 -42.5 q-26.5 -23.5 -54.5 -46 q-28 -22.5 -52 -38.5 l-11 8 q15 25 35 63 q20 38 35 70 l-215 0 l0 -293 q0 -29 -8.5 -50.5 q-8.5 -21.5 -34.5 -35 q-26 -13.5 -79 -18.5 q-1 18 -6 31.5 q-5 13.5 -16 21.5 q-12 9 -34 16 q-22 7 -60 12 l0 14 q0 0 17 -1 q17 -1 41 -3 q24 -2 45 -3 q21 -1 30 -1 q14 0 19 4.5 q5 4.5 5 14.5 l0 291 l-281 0 l-9 30 l588 0 ZM777 627 l86 -81 q-10 -9 -42 -10 q-24 -18 -58 -38 q-34 -20 -72 -39.5 q-38 -19.5 -73 -35.5 q20 -21 20.5 -41 q0.5 -20 -13.5 -29.5 q-14 -9.5 -38 -2.5 q-17 25 -49 51 q-32 26 -69.5 48.5 q-37.5 22.5 -71.5 36.5 l7 12 q73 -4 120.5 -20.5 q47.5 -16.5 73.5 -36.5 q30 25 61.5 55 q31.5 30 55.5 55 l-413 0 l-9 29 l434 0 l50 47 ZM817 681 l53 68 q0 0 16.5 -13 q16.5 -13 38.5 -32 q22 -19 40 -37 q-4 -16 -27 -16 l-730 0 l0 -215 q0 -60 -4.5 -128 q-4.5 -68 -20 -137.5 q-15.5 -69.5 -49 -134 q-33.5 -64.5 -92.5 -118.5 l-14 9 q46 75 67 160 q21 85 27 174 q6 89 6 175 l0 282 l94 -37 l595 0 Z" /><glyph glyph-name="cid17229" unicode="&#x5e93;" d="M452 838 l9 8 q63 -4 96.5 -21.5 q33.5 -17.5 44 -39.5 q10.5 -22 3.5 -40 q-7 -18 -25 -24.5 q-18 -6.5 -42 6.5 q-10 29 -35.5 60 q-25.5 31 -50.5 51 ZM813 171 l52 64 q0 0 16.5 -12.5 q16.5 -12.5 39 -30 q22.5 -17.5 41.5 -34.5 q-4 -16 -28 -16 l-293 0 l0 -199 q0 -4 -17.5 -13.5 q-17.5 -9.5 -48.5 -9.5 l-14 0 l0 222 l-328 0 l-8 29 l336 0 l0 140 l-174 0 l-38 -37 l-79 64 q9 5 21.5 10.5 q12.5 5.5 25.5 9.5 q18 35 39 79.5 q21 44.5 41 90.5 l-144 0 l-8 30 l165 0 q15 35 27.5 67.5 q12.5 32.5 20.5 55.5 l108 -35 q-4 -8 -14 -14 q-10 -6 -28 -4 q-5 -15 -13 -32.5 q-8 -17.5 -16 -37.5 l282 0 l53 63 q0 0 16.5 -12.5 q16.5 -12.5 39 -30 q22.5 -17.5 40.5 -34.5 q-4 -16 -27 -16 l-418 0 q-22 -49 -45 -98.5 q-23 -49.5 -43 -89.5 l168 0 l0 164 l116 -13 q-2 -10 -9.5 -17.5 q-7.5 -7.5 -26.5 -9.5 l0 -124 l111 0 l48 62 q0 0 15.5 -12 q15.5 -12 36.5 -29.5 q21 -17.5 38 -33.5 q-3 -16 -26 -16 l-223 0 l0 -140 l172 0 ZM822 718 l52 67 q0 0 16 -13 q16 -13 38 -32 q22 -19 40 -36 q-3 -16 -26 -16 l-730 0 l0 -246 q0 -62 -4.5 -131 q-4.5 -69 -20 -138 q-15.5 -69 -49 -133 q-33.5 -64 -92.5 -118 l-14 10 q47 74 68.5 158.5 q21.5 84.5 27.5 174 q6 89.5 6 176.5 l0 313 l92 -36 l596 0 Z" /><glyph glyph-name="cid17230" unicode="&#x5e94;" d="M440 840 l9 8 q69 -13 106.5 -36.5 q37.5 -23.5 50 -49 q12.5 -25.5 6.5 -45.5 q-6 -20 -24.5 -27 q-18.5 -7 -42.5 8 q-8 24 -26 50 q-18 26 -39 50.5 q-21 24.5 -40 41.5 ZM798 7 l54 70 q0 0 16.5 -13.5 q16.5 -13.5 39 -33 q22.5 -19.5 40.5 -36.5 q-4 -16 -27 -16 l-728 0 l-8 29 l428 0 q23 64 46 139.5 q23 75.5 43.5 153 q20.5 77.5 37 148.5 q16.5 71 26.5 126 l127 -43 q-4 -16 -36 -14 q-16 -50 -40 -113 q-24 -63 -53.5 -131.5 q-29.5 -68.5 -62 -136.5 q-32.5 -68 -67.5 -129 l164 0 ZM280 503 l15 5 q68 -67 102.5 -131 q34.5 -64 44 -116.5 q9.5 -52.5 0 -87 q-9.5 -34.5 -30 -42.5 q-20.5 -8 -44.5 17 q3 57 -9 120.5 q-12 63.5 -33 124.5 q-21 61 -45 110 ZM455 559 l15 6 q68 -65 102.5 -126.5 q34.5 -61.5 44 -112.5 q9.5 -51 0.5 -84 q-9 -33 -29 -41.5 q-20 -8.5 -44 16.5 q2 55 -11 116.5 q-13 61.5 -34 120 q-21 58.5 -44 105.5 ZM811 683 l55 71 q0 0 17 -13.5 q17 -13.5 40 -33 q23 -19.5 42 -37.5 q-4 -16 -28 -16 l-708 0 l0 -227 q0 -61 -5 -128.5 q-5 -67.5 -22 -135 q-17 -67.5 -52.5 -130.5 q-35.5 -63 -97.5 -115 l-14 10 q51 72 75 154.5 q24 82.5 30.5 170 q6.5 87.5 6.5 173.5 l0 295 l93 -38 l568 0 Z" /><glyph glyph-name="cid17269" unicode="&#x5ea7;" d="M431 836 l9 8 q71 -13 109 -37 q38 -24 50 -50.5 q12 -26.5 4.5 -47 q-7.5 -20.5 -27 -27 q-19.5 -6.5 -44.5 9.5 q-8 24 -24.5 50.5 q-16.5 26.5 -37 51.5 q-20.5 25 -39.5 42 ZM208 651 l0 -215 q0 -60 -4.5 -128 q-4.5 -68 -20 -137.5 q-15.5 -69.5 -49 -134.5 q-33.5 -65 -92.5 -119 l-14 9 q46 75 67 160 q21 85 27 174.5 q6 89.5 6 175.5 l0 283 l94 -38 l595 0 l52 68 q0 0 16.5 -13 q16.5 -13 39 -32 q22.5 -19 39.5 -37 q-4 -16 -26 -16 l-730 0 ZM733 595 l111 -26 q-3 -10 -11.5 -16 q-8.5 -6 -25.5 -6 q-15 -52 -36 -102 q63 -27 96.5 -58 q33.5 -31 44 -59 q10.5 -28 4.5 -48 q-6 -20 -23.5 -25.5 q-17.5 -5.5 -38.5 10.5 q-7 38 -34.5 81.5 q-27.5 43.5 -58.5 77.5 q-48 -108 -124 -174 l-14 11 q39 61 68 149 q29 88 42 185 ZM330 597 l109 -23 q-3 -9 -11 -15 q-8 -6 -25 -7 q-6 -25 -13.5 -49 q-7.5 -24 -15.5 -47 q54 -27 81 -56.5 q27 -29.5 33.5 -55.5 q6.5 -26 -1.5 -43 q-8 -17 -24.5 -20 q-16.5 -3 -34.5 13 q-4 32 -22 69.5 q-18 37.5 -40 67.5 q-25 -63 -58.5 -114.5 q-33.5 -51.5 -74.5 -88.5 l-15 9 q42 68 72 161.5 q30 93.5 40 198.5 ZM824 -16 l51 68 q0 0 16.5 -13 q16.5 -13 39 -32 q22.5 -19 39.5 -36 q-4 -16 -26 -16 l-777 0 l-8 29 l366 0 l0 175 l-273 0 l-8 30 l281 0 l0 452 l114 -12 q-1 -10 -9 -17 q-8 -7 -25 -10 l0 -413 l144 0 l50 63 q0 0 15.5 -12.5 q15.5 -12.5 37 -30 q21.5 -17.5 38.5 -34.5 q-4 -16 -27 -16 l-258 0 l0 -175 l219 0 Z" /><glyph glyph-name="cid17454" unicode="&#x5efa;" d="M301 500 l78 -70 q-9 -11 -38 -14 q-12 -80 -32.5 -155.5 q-20.5 -75.5 -61.5 -143.5 q80 -58 195.5 -75.5 q115.5 -17.5 275.5 -17.5 q21 0 52 0 q31 0 66 0 q35 0 68.5 0.5 q33.5 0.5 57.5 0.5 l0 -13 q-25 -4 -38 -22.5 q-13 -18.5 -15 -42.5 l-198 0 q-114 0 -205 10.5 q-91 10.5 -162 38.5 q-71 28 -125 79 q-32 -45 -77 -83.5 q-45 -38.5 -105 -70.5 l-9 14 q53 38 90.5 83.5 q37.5 45.5 64.5 97.5 q-35 44 -62 102 q-27 58 -50 134 l15 7 q23 -67 51.5 -116.5 q28.5 -49.5 64.5 -86.5 q26 62 40.5 130.5 q14.5 68.5 21.5 139.5 l-97 0 l-30 -28 l-71 54 q15 10 37 18 q18 33 40 77 q22 44 43 89 q21 45 35 80 l-176 0 l-9 29 l185 0 l41 42 l83 -75 q-7 -7 -20 -10.5 q-13 -3.5 -29 -5.5 q-14 -31 -35 -74 q-21 -43 -43.5 -87 q-22.5 -44 -41.5 -80 l82 0 l43 45 ZM765 469 l0 104 l-129 0 l0 -104 l129 0 ZM636 704 l0 -102 l129 0 l0 102 l-129 0 ZM857 602 l42 62 q0 0 13.5 -12.5 q13.5 -12.5 31.5 -29.5 q18 -17 32 -33 q-4 -16 -26 -16 l-110 0 l0 -143 q0 -3 -11 -8.5 q-11 -5.5 -25 -10 q-14 -4.5 -27 -4.5 l-12 0 l0 33 l-129 0 l0 -103 l125 0 l46 60 q0 0 15 -12 q15 -12 35 -28.5 q20 -16.5 36 -32.5 q-4 -16 -26 -16 l-231 0 l0 -105 l164 0 l51 65 q0 0 16.5 -12.5 q16.5 -12.5 39 -30.5 q22.5 -18 40.5 -35 q-4 -16 -28 -16 l-283 0 l0 -104 q0 -7 -20 -15.5 q-20 -8.5 -42 -8.5 l-15 0 l0 128 l-235 0 l-8 29 l243 0 l0 105 l-182 0 l-8 29 l190 0 l0 103 l-169 0 l-9 29 l178 0 l0 104 l-249 0 l-8 29 l257 0 l0 102 l-172 0 l-9 30 l181 0 l0 107 l112 -12 q-1 -10 -8 -17.5 q-7 -7.5 -27 -10.5 l0 -67 l119 0 l40 42 l87 -65 q-12 -14 -42 -20 l0 -89 l17 0 Z" /><glyph glyph-name="cid17463" unicode="&#x5f00;" d="M384 416 l229 0 l0 308 l-229 0 l0 -289 l0 -19 ZM830 416 l50 71 q0 0 16 -13.5 q16 -13.5 37.5 -33 q21.5 -19.5 38.5 -37.5 q-4 -16 -27 -16 l-249 0 l0 -439 q0 -4 -18.5 -14.5 q-18.5 -10.5 -50.5 -10.5 l-14 0 l0 464 l-230 0 q-3 -69 -17.5 -135.5 q-14.5 -66.5 -50 -126.5 q-35.5 -60 -100.5 -111.5 q-65 -51.5 -167 -91.5 l-10 12 q104 61 159.5 131.5 q55.5 70.5 77.5 151 q22 80.5 25 170.5 l-253 0 l-9 29 l263 0 l0 18 l0 290 l-215 0 l-8 29 l700 0 l51 64 q0 0 15.5 -12.5 q15.5 -12.5 37 -30 q21.5 -17.5 39.5 -34.5 q-4 -16 -27 -16 l-198 0 l0 -308 l134 0 Z" /><glyph glyph-name="cid17489" unicode="&#x5f0f;" d="M691 802 l9 9 q68 -4 106 -21 q38 -17 52.5 -39 q14.5 -22 10.5 -41 q-4 -19 -20.5 -27 q-16.5 -8 -40.5 3 q-10 20 -30 41.5 q-20 21.5 -43 41.5 q-23 20 -44 33 ZM349 387 l0 -290 q52 12 108 26 q56 14 114 28 l4 -16 q-76 -32 -183.5 -75 q-107.5 -43 -256.5 -96 q-7 -18 -23 -23 l-54 92 q33 6 87.5 17.5 q54.5 11.5 122.5 27.5 l0 309 l-175 0 l-8 29 l321 0 l51 64 q0 0 15.5 -12.5 q15.5 -12.5 37.5 -30.5 q22 -18 40 -34 q-4 -16 -27 -16 l-174 0 ZM946 175 l-18 -156 q23 -34 27.5 -51.5 q4.5 -17.5 -4.5 -26.5 q-15 -18 -40.5 -15.5 q-25.5 2.5 -53 17 q-27.5 14.5 -49.5 33.5 q-81 67 -133 160.5 q-52 93.5 -80 208.5 q-28 115 -39 246 l-501 0 l-9 29 l508 0 q-4 53 -6 107.5 q-2 54.5 -2 110.5 l121 -14 q-1 -9 -9 -17 q-8 -8 -26 -11 q-1 -44 0 -88 q1 -44 4 -88 l170 0 l53 67 q0 0 17.5 -13 q17.5 -13 41 -31.5 q23.5 -18.5 41.5 -35.5 q-4 -16 -27 -16 l-294 0 q9 -112 32.5 -214 q23.5 -102 68 -184.5 q44.5 -82.5 115.5 -135.5 q11 -10 18 -9.5 q7 0.5 14 13.5 q10 20 24.5 53 q14.5 33 24.5 64 l11 -3 Z" /><glyph glyph-name="cid17500" unicode="&#x5f15;" d="M443 339 l45 45 l84 -70 q-10 -12 -40 -16 q-13 -133 -41 -225 q-28 -92 -67 -122 q-45 -35 -123 -35 q0 17 -4 32 q-4 15 -16 24 q-13 10 -43.5 18.5 q-30.5 8.5 -63.5 13.5 l1 17 q25 -2 56.5 -5 q31.5 -3 59.5 -4.5 q28 -1.5 40 -1.5 q14 0 23.5 2 q9.5 2 17.5 9 q16 12 31 51.5 q15 39.5 27.5 100.5 q12.5 61 20.5 137 l-269 0 l-34 -37 l-80 55 q14 11 37 21 q7 33 13.5 76 q6.5 43 12 85 q5.5 42 7.5 72 l94 -34 l203 0 l0 195 l-349 0 l-9 29 l348 0 l42 44 l87 -66 q-10 -14 -40 -20 l0 -232 q0 -3 -11.5 -8.5 q-11.5 -5.5 -26.5 -9.5 q-15 -4 -28 -4 l-13 0 l0 43 l-226 0 q-6 -40 -14 -90 q-8 -50 -15 -90 l263 0 ZM769 831 l118 -13 q-2 -10 -9.5 -17.5 q-7.5 -7.5 -27.5 -10.5 l0 -838 q0 -8 -21 -19.5 q-21 -11.5 -44 -11.5 l-16 0 l0 910 Z" /><glyph glyph-name="cid17629" unicode="&#x5f53;" d="M763 782 l118 -50 q-9 -19 -40 -16 q-43 -61 -94 -118.5 q-51 -57.5 -99 -97.5 l-14 10 q20 33 42.5 78 q22.5 45 45 95 q22.5 50 41.5 99 ZM140 767 l12 7 q83 -38 128.5 -80.5 q45.5 -42.5 61.5 -81 q16 -38.5 10.5 -65 q-5.5 -26.5 -25.5 -34 q-20 -7.5 -46 12.5 q-9 39 -32 82.5 q-23 43.5 -52 85 q-29 41.5 -57 73.5 ZM803 520 l92 -72 q-11 -14 -44 -22 l0 -479 q0 -3 -11.5 -10 q-11.5 -7 -27 -12.5 q-15.5 -5.5 -30.5 -5.5 l-12 0 l0 72 l-670 0 l-9 29 l679 0 l0 201 l-608 0 l-9 29 l617 0 l0 192 l-660 0 l-9 30 l359 0 l0 368 l117 -11 q-1 -10 -9 -17.5 q-8 -7.5 -28 -10.5 l0 -329 l219 0 l44 48 Z" /><glyph glyph-name="cid17723" unicode="&#x5f88;" d="M258 837 l104 -61 q-5 -7 -13 -10 q-8 -3 -25 1 q-32 -34 -77 -74 q-45 -40 -98.5 -78 q-53.5 -38 -109.5 -68 l-9 13 q45 39 88.5 88 q43.5 49 80.5 99 q37 50 59 90 ZM273 634 l109 -57 q-5 -7 -13 -10.5 q-8 -3.5 -26 -1.5 q-16 -24 -37.5 -51.5 q-21.5 -27.5 -47.5 -56.5 l35 -13 q-5 -15 -31 -19 l0 -478 q0 -5 -19.5 -16.5 q-19.5 -11.5 -43.5 -11.5 l-15 0 l0 458 q-33 -32 -68.5 -62.5 q-35.5 -30.5 -73.5 -56.5 l-10 11 q50 52 96.5 117 q46.5 65 84 130.5 q37.5 65.5 60.5 117.5 ZM497 577 l0 -150 l294 0 l0 150 l-294 0 ZM497 606 l294 0 l0 141 l-294 0 l0 -141 ZM850 357 l87 -61 q-10 -12 -31 -4 q-18 -14 -46.5 -33.5 q-28.5 -19.5 -62.5 -39.5 q-34 -20 -68 -37 q47 -61 108 -106.5 q61 -45.5 134 -70.5 l-1 -11 q-49 -11 -66 -70 q-126 65 -198 183 q-72 118 -107 291 l-102 0 l0 -366 q38 12 82 27.5 q44 15.5 90 31.5 l4 -14 q-34 -22 -95 -59 q-61 -37 -132 -78 q-5 -8 -12 -13.5 q-7 -5.5 -13 -8.5 l-39 84 q24 12 30.5 21 q6.5 9 6.5 25 l0 770 l90 -41 l272 0 l42 45 l88 -68 q-12 -14 -42 -20 l0 -348 q0 -3 -11 -9.5 q-11 -6.5 -26 -11.5 q-15 -5 -28 -5 l-13 0 l0 38 l-172 0 q17 -55 41.5 -104.5 q24.5 -49.5 55.5 -93.5 q25 25 51 54 q26 29 48 56.5 q22 27.5 35 46.5 Z" /><glyph glyph-name="cid17735" unicode="&#x5f90;" d="M241 841 l106 -57 q-4 -7 -12.5 -10.5 q-8.5 -3.5 -25.5 -0.5 q-29 -32 -70.5 -70.5 q-41.5 -38.5 -89.5 -76 q-48 -37.5 -99 -67.5 l-10 12 q39 39 77.5 87 q38.5 48 71 96.5 q32.5 48.5 52.5 86.5 ZM255 650 l108 -55 q-4 -8 -11.5 -11.5 q-7.5 -3.5 -26.5 -0.5 q-19 -27 -42.5 -58.5 q-23.5 -31.5 -52.5 -63.5 l38 -14 q-6 -15 -29 -19 l0 -481 q-1 -4 -21 -16 q-20 -12 -43 -12 l-16 0 l0 465 q-28 -28 -58 -54 q-30 -26 -62 -49 l-11 10 q46 52 90 116 q44 64 80 128.5 q36 64.5 57 114.5 ZM424 267 l112 -47 q-4 -8 -11.5 -11.5 q-7.5 -3.5 -25.5 -2.5 q-31 -50 -82 -109 q-51 -59 -114 -101 l-11 12 q30 36 56 82 q26 46 45.5 92.5 q19.5 46.5 30.5 84.5 ZM727 247 l12 6 q82 -35 126 -74.5 q44 -39.5 59.5 -76.5 q15.5 -37 9 -62.5 q-6.5 -25.5 -26.5 -32.5 q-20 -7 -46 12 q-9 37 -31.5 78 q-22.5 41 -50 80.5 q-27.5 39.5 -52.5 69.5 ZM813 356 l49 64 q0 0 15.5 -12.5 q15.5 -12.5 37 -30 q21.5 -17.5 38.5 -33.5 q-4 -16 -26 -16 l-261 0 l0 -303 q0 -29 -8 -51 q-8 -22 -33 -35.5 q-25 -13.5 -76 -17.5 q-2 35 -20 51 q-11 10 -31 17 q-20 7 -55 11 l0 14 q0 0 15.5 -1 q15.5 -1 37 -2 q21.5 -1 41 -2 q19.5 -1 27.5 -1 q13 0 17.5 4.5 q4.5 4.5 4.5 14.5 l0 301 l-259 0 l-8 28 l267 0 l0 131 l-151 0 l-8 29 l272 0 l47 54 q0 0 14.5 -10.5 q14.5 -10.5 34.5 -26 q20 -15.5 37 -30.5 q-4 -16 -27 -16 l-139 0 l0 -131 l147 0 ZM581 838 l126 -29 q-2 -8 -10.5 -12 q-8.5 -4 -27.5 -6 q33 -51 83 -96 q50 -45 109 -82 q59 -37 119 -64 l-2 -13 q-25 -7 -41.5 -26.5 q-16.5 -19.5 -21.5 -43.5 q-55 37 -105.5 86.5 q-50.5 49.5 -91 107.5 q-40.5 58 -65.5 119 q-34 -63 -91.5 -125.5 q-57.5 -62.5 -126.5 -116.5 q-69 -54 -138 -92 l-8 12 q44 34 90 80.5 q46 46.5 87 99.5 q41 53 71.5 105 q30.5 52 43.5 96 Z" /><glyph glyph-name="cid17746" unicode="&#x5f97;" d="M767 762 l-270 0 l0 -105 l270 0 l0 105 ZM497 522 l270 0 l0 106 l-270 0 l0 -106 ZM497 493 l0 -26 q0 -4 -17 -12 q-17 -8 -46 -8 l-13 0 l0 380 l87 -35 l256 0 l39 44 l81 -62 q-5 -5 -13 -9.5 q-8 -4.5 -24 -7.5 l0 -278 q0 -4 -18.5 -12.5 q-18.5 -8.5 -47.5 -8.5 l-14 0 l0 35 l-270 0 ZM241 841 l105 -56 q-4 -8 -11.5 -11 q-7.5 -3 -25.5 0 q-30 -33 -73.5 -72.5 q-43.5 -39.5 -93.5 -78 q-50 -38.5 -102 -68.5 l-12 12 q42 39 83 87.5 q41 48.5 75 98 q34 49.5 55 88.5 ZM255 642 l109 -56 q-4 -8 -12 -11 q-8 -3 -26 0 q-16 -25 -37.5 -53.5 q-21.5 -28.5 -46.5 -58.5 l35 -12 q-6 -14 -30 -18 l0 -488 q-1 -5 -20.5 -16 q-19.5 -11 -42.5 -11 l-16 0 l0 464 q-31 -29 -63.5 -57.5 q-32.5 -28.5 -67.5 -53.5 l-11 11 q47 51 91.5 115 q44.5 64 80.5 128.5 q36 64.5 57 116.5 ZM421 199 l10 8 q67 -13 102.5 -36 q35.5 -23 46 -47.5 q10.5 -24.5 3.5 -44 q-7 -19.5 -26 -26 q-19 -6.5 -42 8.5 q-10 35 -38.5 73.5 q-28.5 38.5 -55.5 63.5 ZM837 257 l48 62 q0 0 15 -12 q15 -12 36 -29.5 q21 -17.5 37 -34.5 q-4 -16 -27 -16 l-156 0 l0 -203 q0 -29 -8 -51.5 q-8 -22.5 -33 -36.5 q-25 -14 -77 -19 q-1 18 -5.5 32.5 q-4.5 14.5 -13.5 22.5 q-10 9 -29.5 16 q-19.5 7 -54.5 12 l0 14 q0 0 15 -1 q15 -1 36 -2.5 q21 -1.5 40 -2.5 q19 -1 26 -1 q14 0 18.5 4.5 q4.5 4.5 4.5 14.5 l0 201 l-386 0 l-7 30 l393 0 l0 112 l-336 0 l-8 30 l425 0 l50 64 q0 0 16 -12.5 q16 -12.5 38 -30.5 q22 -18 40 -35 q-4 -16 -27 -16 l-117 0 l0 -112 l47 0 Z" /><glyph glyph-name="cid17830" unicode="&#x2f3c;&#x5fc3;" d="M156 536 l17 1 q26 -88 24.5 -158.5 q-1.5 -70.5 -17.5 -120.5 q-16 -50 -36 -79 q-19 -30 -47.5 -40 q-28.5 -10 -46.5 7 q-14 14 -10.5 33.5 q3.5 19.5 17.5 37.5 q26 26 49 75 q23 49 37 112.5 q14 63.5 13 131.5 ZM761 520 q73 -51 116.5 -102 q43.5 -51 63 -98 q19.5 -47 20.5 -84 q1 -37 -10 -59 q-11 -22 -29 -25 q-18 -3 -37 19 q-7 45 -22 105.5 q-15 60.5 -42.5 122.5 q-27.5 62 -70.5 112 l11 9 ZM293 661 l114 -12 q-1 -10 -8.5 -17.5 q-7.5 -7.5 -25.5 -9.5 l0 -544 q0 -19 11.5 -27 q11.5 -8 51.5 -8 l135 0 q45 0 77.5 1 q32.5 1 46.5 2 q13 1 18.5 5 q5.5 4 9.5 12 q8 16 19 61 q11 45 24 105 l13 0 l2 -173 q23 -7 30 -15.5 q7 -8.5 7 -20.5 q0 -20 -19.5 -32.5 q-19.5 -12.5 -73.5 -18 q-54 -5.5 -158 -5.5 l-141 0 q-76 0 -104.5 19 q-28.5 19 -28.5 74 l0 604 ZM435 831 q89 -42 138 -88.5 q49 -46.5 67 -88.5 q18 -42 12.5 -71 q-5.5 -29 -26.5 -37.5 q-21 -8.5 -48 12.5 q-10 43 -35.5 91.5 q-25.5 48.5 -57 94 q-31.5 45.5 -62.5 80.5 l12 7 Z" /><glyph glyph-name="cid17938" unicode="&#x6001;" d="M184 251 l17 -1 q16 -62 8 -110 q-8 -48 -28 -79.5 q-20 -31.5 -43 -47.5 q-21 -15 -45.5 -15.5 q-24.5 -0.5 -34.5 18.5 q-7 17 2 32.5 q9 15.5 25 25.5 q24 14 46 40 q22 26 37 61.5 q15 35.5 16 75.5 ZM741 143 l2 -115 q21 -7 28 -14.5 q7 -7.5 7 -19.5 q0 -18 -18 -28.5 q-18 -10.5 -67.5 -15 q-49.5 -4.5 -146.5 -4.5 l-135 0 q-48 0 -73.5 6.5 q-25.5 6.5 -35 22.5 q-9.5 16 -9.5 46 l0 249 l111 -11 q-3 -19 -31 -25 l0 -198 q0 -12 8 -16 q8 -4 41 -4 l130 0 q41 0 71.5 0.5 q30.5 0.5 43.5 1.5 q18 1 24 14 q8 12 17.5 41.5 q9.5 29.5 19.5 69.5 l13 0 ZM441 295 l11 8 q69 -25 105 -56.5 q36 -31.5 47.5 -61.5 q11.5 -30 4.5 -51.5 q-7 -21.5 -25.5 -27.5 q-18.5 -6 -40.5 12 q-4 30 -20 62 q-16 32 -38 62.5 q-22 30.5 -44 52.5 ZM754 241 l11 7 q80 -30 122.5 -67.5 q42.5 -37.5 57 -73 q14.5 -35.5 7.5 -61.5 q-7 -26 -27 -33.5 q-20 -7.5 -45 11.5 q-5 37 -25 77 q-20 40 -46.5 76.5 q-26.5 36.5 -54.5 63.5 ZM932 642 l-359 0 q37 -70 98 -125.5 q61 -55.5 137 -95 q76 -39.5 157 -63.5 l-1 -11 q-25 -4 -43 -21.5 q-18 -17.5 -26 -45.5 q-118 53 -208 143 q-90 90 -136 219 l-54 0 q-15 -40 -35.5 -77 q-20.5 -37 -48.5 -71 q67 -16 104 -40.5 q37 -24.5 51 -50 q14 -25.5 9.5 -45.5 q-4.5 -20 -21.5 -28 q-17 -8 -41 5 q-14 35 -47.5 74 q-33.5 39 -68.5 67 q-57 -64 -144 -116 q-87 -52 -215 -87 l-7 13 q108 41 182 96 q74 55 121 121 q47 66 73 139 l-342 0 l-9 29 l361 0 q13 41 21 84.5 q8 43.5 12 86.5 l123 -22 q-5 -23 -37 -23 q-10 -66 -31 -126 l308 0 l51 64 q0 0 15.5 -12.5 q15.5 -12.5 37.5 -30 q22 -17.5 40 -34.5 q-4 -16 -27 -16 Z" /><glyph glyph-name="cid17981" unicode="&#x601d;" d="M159 254 l17 0 q19 -63 14.5 -112 q-4.5 -49 -23 -82 q-18.5 -33 -40.5 -48 q-22 -16 -47 -15 q-25 1 -35 21 q-9 20 1 37 q10 17 29 28 q20 14 39.5 39.5 q19.5 25.5 32.5 59.5 q13 34 12 72 ZM461 746 l-204 0 l0 -157 l204 0 l0 157 ZM744 746 l-206 0 l0 -157 l206 0 l0 157 ZM538 396 l206 0 l0 163 l-206 0 l0 -163 ZM257 396 l204 0 l0 163 l-204 0 l0 -163 ZM744 367 l-487 0 l0 -40 q0 -7 -21 -17.5 q-21 -10.5 -46 -10.5 l-13 0 l0 513 l87 -37 l470 0 l42 46 l90 -69 q-5 -6 -16 -12 q-11 -6 -26 -9 l0 -391 q0 -3 -11.5 -9 q-11.5 -6 -27 -10.5 q-15.5 -4.5 -29.5 -4.5 l-12 0 l0 51 ZM435 315 l10 7 q71 -24 107.5 -56 q36.5 -32 47 -63.5 q10.5 -31.5 2 -54.5 q-8.5 -23 -28.5 -29.5 q-20 -6.5 -43 12.5 q-2 32 -16.5 65.5 q-14.5 33.5 -35.5 64.5 q-21 31 -43 54 ZM750 158 l3 -125 q20 -7 27 -15 q7 -8 7 -19 q0 -19 -18 -29.5 q-18 -10.5 -69.5 -15 q-51.5 -4.5 -152.5 -4.5 l-143 0 q-49 0 -75.5 6.5 q-26.5 6.5 -36 23 q-9.5 16.5 -9.5 46.5 l0 252 l111 -11 q-3 -20 -31 -24 l0 -202 q0 -12 8.5 -16 q8.5 -4 43.5 -4 l137 0 q44 0 76.5 0.5 q32.5 0.5 45.5 1.5 q12 1 17.5 4 q5.5 3 9.5 10 q7 13 16.5 45 q9.5 32 19.5 76 l13 0 ZM756 252 l11 8 q81 -31 123.5 -69.5 q42.5 -38.5 56.5 -75 q14 -36.5 6.5 -63 q-7.5 -26.5 -29 -34.5 q-21.5 -8 -47.5 13 q-4 38 -23 78.5 q-19 40.5 -45 77.5 q-26 37 -53 65 Z" /><glyph glyph-name="cid17998" unicode="&#x6027;" d="M110 640 l18 -1 q22 -81 14 -140.5 q-8 -59.5 -28 -88.5 q-13 -19 -36.5 -24.5 q-23.5 -5.5 -35.5 10.5 q-10 14 -4.5 31 q5.5 17 18.5 30 q14 16 27 45.5 q13 29.5 21 65.5 q8 36 6 72 ZM182 842 l114 -13 q-2 -10 -9 -17.5 q-7 -7.5 -27 -10.5 l0 -855 q0 -7 -19.5 -17 q-19.5 -10 -42.5 -10 l-16 0 l0 923 ZM272 665 l13 6 q49 -27 72 -55.5 q23 -28.5 27 -53.5 q4 -25 -5.5 -41 q-9.5 -16 -25.5 -18.5 q-16 -2.5 -33 13.5 q0 36 -15 78.5 q-15 42.5 -33 70.5 ZM834 -17 l52 68 q0 0 16 -13 q16 -13 38 -32 q22 -19 39 -36 q-3 -16 -26 -16 l-616 0 l-8 29 l277 0 l0 297 l-193 0 l-8 29 l201 0 l0 243 l-141 0 q-23 -56 -51.5 -105.5 q-28.5 -49.5 -63.5 -87.5 l-15 9 q26 52 47.5 118 q21.5 66 38 140 q16.5 74 24.5 148 l112 -27 q-3 -10 -11 -16 q-8 -6 -25 -6 q-9 -37 -20 -73 q-11 -36 -24 -71 l129 0 l0 253 l112 -12 q-1 -10 -8 -17 q-7 -7 -24 -9 l0 -215 l123 0 l50 67 q0 0 16 -13 q16 -13 37.5 -31.5 q21.5 -18.5 38.5 -35.5 q-4 -16 -26 -16 l-239 0 l0 -243 l100 0 l50 66 q0 0 15.5 -12.5 q15.5 -12.5 36.5 -31 q21 -18.5 38 -35.5 q-4 -16 -27 -16 l-213 0 l0 -297 l148 0 Z" /><glyph glyph-name="cid18121" unicode="&#x606f;" d="M170 202 l18 0 q14 -57 7 -101.5 q-7 -44.5 -26 -74.5 q-19 -30 -40 -44 q-19 -14 -42 -14 q-23 0 -32 18 q-7 17 1.5 32 q8.5 15 24.5 24 q21 12 41 36 q20 24 33.5 56.5 q13.5 32.5 14.5 67.5 ZM709 702 l-418 0 l0 -102 l418 0 l0 102 ZM291 467 l418 0 l0 104 l-418 0 l0 -104 ZM291 333 l418 0 l0 105 l-418 0 l0 -105 ZM291 304 l0 -35 q0 -7 -20.5 -17.5 q-20.5 -10.5 -45.5 -10.5 l-13 0 l0 527 l85 -37 l127 0 q7 26 15.5 59.5 q8.5 33.5 15.5 58.5 l129 -27 q-6 -21 -38 -23 q-15 -15 -34.5 -33 q-19.5 -18 -37.5 -35 l225 0 l42 46 l90 -69 q-5 -6 -16 -12 q-11 -6 -26 -9 l0 -415 q0 -3 -11.5 -8.5 q-11.5 -5.5 -27 -10.5 q-15.5 -5 -29.5 -5 l-12 0 l0 56 l-418 0 ZM441 251 l11 9 q64 -22 97.5 -50.5 q33.5 -28.5 43 -56 q9.5 -27.5 2.5 -47.5 q-7 -20 -24.5 -25 q-17.5 -5 -38.5 11 q-2 28 -16 57.5 q-14 29.5 -34 56 q-20 26.5 -41 45.5 ZM749 144 l2 -112 q21 -6 28.5 -13.5 q7.5 -7.5 7.5 -19.5 q0 -18 -18 -29 q-18 -11 -69.5 -15.5 q-51.5 -4.5 -152.5 -4.5 l-143 0 q-50 0 -76 6 q-26 6 -35.5 22.5 q-9.5 16.5 -9.5 45.5 l0 225 l111 -11 q-3 -21 -31 -25 l0 -173 q0 -12 8.5 -15.5 q8.5 -3.5 43.5 -3.5 l136 0 q45 0 78 0.5 q33 0.5 46 1.5 q11 1 16 3.5 q5 2.5 9 9.5 q8 12 17 40 q9 28 20 68 l12 0 ZM748 201 l11 8 q79 -27 122.5 -62 q43.5 -35 58.5 -69 q15 -34 9.5 -59.5 q-5.5 -25.5 -24.5 -33.5 q-19 -8 -44 10 q-6 35 -27.5 73 q-21.5 38 -49.5 73 q-28 35 -56 60 Z" /><glyph glyph-name="cid18163" unicode="&#x6089;" d="M168 220 l17 0 q17 -61 11 -108 q-6 -47 -25 -78.5 q-19 -31.5 -41 -47.5 q-20 -14 -44.5 -14 q-24.5 0 -34.5 19 q-8 19 1.5 35.5 q9.5 16.5 26.5 26.5 q21 13 41 38 q20 25 34 58.5 q14 33.5 14 70.5 ZM749 147 l2 -116 q21 -6 28 -13.5 q7 -7.5 7 -19.5 q0 -18 -18 -29 q-18 -11 -69.5 -15.5 q-51.5 -4.5 -151.5 -4.5 l-143 0 q-49 0 -75.5 6.5 q-26.5 6.5 -36 22.5 q-9.5 16 -9.5 46 l0 244 l111 -11 q-3 -21 -31 -25 l0 -192 q0 -12 8.5 -16 q8.5 -4 43.5 -4 l137 0 q44 0 77 0.5 q33 0.5 46 1.5 q17 1 25 14 q8 11 17 40.5 q9 29.5 20 70.5 l12 0 ZM434 268 l10 8 q73 -25 112.5 -57 q39.5 -32 52.5 -63.5 q13 -31.5 7 -55 q-6 -23.5 -25 -30.5 q-19 -7 -42 11 q-4 32 -22 66.5 q-18 34.5 -43 66 q-25 31.5 -50 54.5 ZM760 212 l11 8 q77 -31 118.5 -68.5 q41.5 -37.5 55 -73.5 q13.5 -36 7 -61.5 q-6.5 -25.5 -26.5 -33 q-20 -7.5 -44 11.5 q-4 38 -22.5 78 q-18.5 40 -44.5 76.5 q-26 36.5 -54 62.5 ZM919 512 l-344 0 q45 -45 108.5 -82.5 q63.5 -37.5 136.5 -63.5 q73 -26 143 -39 l-1 -11 q-25 -5 -43 -24.5 q-18 -19.5 -25 -48.5 q-109 37 -200.5 105 q-91.5 68 -147.5 164 l-6 0 l0 -204 q0 -5 -18.5 -15 q-18.5 -10 -47.5 -10 l-13 0 l0 192 q-75 -79 -182 -138 q-107 -59 -235 -96 l-8 15 q107 46 197 113 q90 67 148 143 l-318 0 l-8 29 l406 0 l0 191 q-91 -5 -182 -8 q-91 -3 -178 -3 l-2 20 q88 7 185.5 18 q97.5 11 192.5 24.5 q95 13.5 178.5 28.5 q83.5 15 143.5 30 l81 -84 q-17 -14 -58 4 q-60 -7 -132 -13.5 q-72 -6.5 -150 -11.5 l0 -196 l80 0 q21 38 42.5 87 q21.5 49 34.5 89 l120 -34 q-7 -20 -39 -19 q-23 -28 -59 -61 q-36 -33 -72 -62 l151 0 l52 64 q0 0 16.5 -12.5 q16.5 -12.5 38.5 -30 q22 -17.5 40 -34.5 q-4 -16 -26 -16 ZM214 697 l10 7 q67 -16 101.5 -40.5 q34.5 -24.5 43.5 -50 q9 -25.5 -0.5 -44 q-9.5 -18.5 -29 -23 q-19.5 -4.5 -42.5 13.5 q-5 35 -31 73.5 q-26 38.5 -52 63.5 Z" /><glyph glyph-name="cid18352" unicode="&#x60f3;" d="M813 741 l-225 0 l0 -109 l225 0 l0 109 ZM588 490 l225 0 l0 112 l-225 0 l0 -112 ZM588 349 l225 0 l0 112 l-225 0 l0 -112 ZM588 320 l0 -37 q0 -7 -20 -17 q-20 -10 -45 -10 l-12 0 l0 550 l81 -35 l211 0 l42 46 l90 -69 q-5 -6 -16 -12 q-11 -6 -26 -9 l0 -445 q0 -4 -11.5 -10 q-11.5 -6 -26.5 -11 q-15 -5 -29 -5 l-13 0 l0 64 l-225 0 ZM445 248 l11 7 q68 -22 103 -51 q35 -29 45.5 -57.5 q10.5 -28.5 3.5 -49.5 q-7 -21 -25.5 -26.5 q-18.5 -5.5 -40.5 12.5 q-4 29 -19 59 q-15 30 -36 58 q-21 28 -42 48 ZM171 205 l16 -1 q16 -58 10 -103 q-6 -45 -24.5 -74.5 q-18.5 -29.5 -40.5 -43.5 q-20 -14 -44 -13.5 q-24 0.5 -34 18.5 q-7 18 2.5 34.5 q9.5 16.5 26.5 26.5 q20 12 40 35 q20 23 33.5 54.5 q13.5 31.5 14.5 66.5 ZM312 545 l0 -274 q0 -7 -20.5 -16.5 q-20.5 -9.5 -41.5 -9.5 l-15 0 l0 258 q-74 -125 -193 -217 l-13 14 q64 70 109 160 q45 90 70 186 l-158 0 l-8 30 l193 0 l0 171 l113 -11 q-2 -10 -9.5 -17 q-7.5 -7 -26.5 -10 l0 -133 l49 0 l47 64 q0 0 15 -12.5 q15 -12.5 35 -30.5 q20 -18 36 -35 q-3 -16 -26 -16 l-156 0 l0 -78 q66 -19 101 -45.5 q35 -26.5 45.5 -53.5 q10.5 -27 4 -47 q-6.5 -20 -24.5 -26 q-18 -6 -40 10 q-7 36 -31.5 73.5 q-24.5 37.5 -54.5 65.5 ZM749 141 l2 -106 q21 -7 27.5 -14.5 q6.5 -7.5 6.5 -18.5 q0 -14 -9.5 -23.5 q-9.5 -9.5 -34.5 -15 q-25 -5.5 -72 -8 q-47 -2.5 -123 -2.5 l-143 0 q-49 0 -75 6 q-26 6 -35.5 22 q-9.5 16 -9.5 45 l0 202 l110 -11 q-2 -20 -30 -24 l0 -152 q0 -11 8 -14.5 q8 -3.5 42 -3.5 l139 0 q44 0 77 0.5 q33 0.5 45 1.5 q12 1 17 3.5 q5 2.5 10 9.5 q7 12 16 39 q9 27 20 64 l12 0 ZM755 205 l11 8 q77 -29 117.5 -64.5 q40.5 -35.5 54 -70 q13.5 -34.5 6.5 -59 q-7 -24.5 -27 -31.5 q-20 -7 -44 12 q-5 35 -23 72.5 q-18 37.5 -43.5 72.5 q-25.5 35 -51.5 60 Z" /><glyph glyph-name="cid18409" unicode="&#x610f;" d="M176 175 l16 -1 q13 -55 4.5 -97 q-8.5 -42 -28 -69.5 q-19.5 -27.5 -41.5 -40.5 q-20 -13 -43.5 -12 q-23.5 1 -31.5 20 q-7 17 2.5 31.5 q9.5 14.5 26.5 24.5 q32 16 61.5 54.5 q29.5 38.5 33.5 89.5 ZM712 457 l-428 0 l0 -84 l428 0 l0 84 ZM284 258 l428 0 l0 85 l-428 0 l0 -85 ZM284 228 l0 -17 q0 -5 -21.5 -14.5 q-21.5 -9.5 -45.5 -9.5 l-11 0 l0 334 l84 -35 l412 0 l42 45 l90 -68 q-12 -14 -43 -21 l0 -222 q0 -3 -11 -9 q-11 -6 -26 -11 q-15 -5 -29 -5 l-13 0 l0 33 l-428 0 ZM442 200 l8 9 q62 -15 95.5 -38.5 q33.5 -23.5 44 -48.5 q10.5 -25 4.5 -44 q-6 -19 -22.5 -25 q-16.5 -6 -37.5 9 q-4 25 -19 51 q-15 26 -34.5 49 q-19.5 23 -38.5 38 ZM732 128 l3 -107 q20 -6 26.5 -13 q6.5 -7 6.5 -18 q0 -17 -17 -27.5 q-17 -10.5 -66.5 -15 q-49.5 -4.5 -147.5 -4.5 l-139 0 q-47 0 -72 6 q-25 6 -33.5 21 q-8.5 15 -8.5 42 l0 168 l106 -10 q-3 -21 -30 -24 l0 -119 q0 -10 7.5 -13.5 q7.5 -3.5 41.5 -3.5 l132 0 q44 0 76 0.5 q32 0.5 44 1.5 q19 1 25 13 q14 26 33 103 l13 0 ZM759 170 l10 8 q71 -23 109.5 -53.5 q38.5 -30.5 51.5 -60.5 q13 -30 7 -52 q-6 -22 -24 -29 q-18 -7 -41 10 q-5 30 -23 62.5 q-18 32.5 -42 62.5 q-24 30 -48 52 ZM806 579 l52 64 q0 0 16.5 -12.5 q16.5 -12.5 39 -30 q22.5 -17.5 40.5 -34.5 q-4 -16 -26 -16 l-869 0 l-7 29 l528 0 q14 30 28.5 68 q14.5 38 23.5 68 l-502 0 l-8 29 l368 0 q-13 27 -40.5 54.5 q-27.5 27.5 -55.5 43.5 l8 9 q56 0 90 -12 q34 -12 49 -30 q15 -18 15 -36 q0 -18 -11 -29 l193 0 l52 64 q0 0 16.5 -12.5 q16.5 -12.5 39 -30 q22.5 -17.5 40.5 -34.5 q-4 -16 -26 -16 l-216 0 l105 -32 q-7 -21 -38 -18 q-19 -19 -46 -42.5 q-27 -23.5 -54 -43.5 l195 0 ZM287 705 l9 6 q57 -11 84.5 -31 q27.5 -20 34 -41.5 q6.5 -21.5 -3 -38 q-9.5 -16.5 -28 -21 q-18.5 -4.5 -39.5 11.5 q-4 30 -21.5 61.5 q-17.5 31.5 -35.5 52.5 Z" /><glyph glyph-name="cid18928" unicode="&#x6211;" d="M697 774 l10 8 q71 -19 108.5 -46 q37.5 -27 49.5 -54 q12 -27 5.5 -47.5 q-6.5 -20.5 -25 -26.5 q-18.5 -6 -41.5 10 q-6 27 -23 56 q-17 29 -39.5 55.5 q-22.5 26.5 -44.5 44.5 ZM952 172 l-16 -152 q23 -31 27.5 -47 q4.5 -16 -3.5 -25 q-13 -17 -37.5 -16 q-24.5 1 -51 14 q-26.5 13 -49.5 30 q-44 32 -79 71.5 q-35 39.5 -62 87.5 q-59 -56 -132.5 -103.5 q-73.5 -47.5 -162.5 -81.5 l-8 12 q82 44 151 103 q69 59 124 126 q-29 65 -47.5 139.5 q-18.5 74.5 -29.5 157.5 l-219 0 l0 -156 q47 11 96 22 q49 11 98 22 l3 -15 q-40 -16 -89 -35.5 q-49 -19.5 -108 -41.5 l0 -251 q0 -30 -7.5 -54 q-7.5 -24 -32.5 -39.5 q-25 -15.5 -78 -20.5 q-1 19 -6.5 34 q-5.5 15 -15.5 24 q-13 11 -33 18.5 q-20 7.5 -57 12.5 l0 14 q0 0 16.5 -1 q16.5 -1 39.5 -2.5 q23 -1.5 43.5 -2.5 q20.5 -1 28.5 -1 q14 0 18.5 5 q4.5 5 4.5 16 l0 219 q-40 -14 -83 -29.5 q-43 -15.5 -90 -31.5 q-3 -9 -10 -15.5 q-7 -6.5 -14 -8.5 l-40 97 q35 5 97 18 q62 13 140 30 l0 173 l-231 0 l-8 29 l239 0 l0 173 q-55 -12 -112 -22 q-57 -10 -113 -16 l-4 15 q70 18 145 45 q75 27 141 57 q66 30 109 56 l92 -78 q-16 -13 -54 0 q-27 -9 -58.5 -18.5 q-31.5 -9.5 -66.5 -18.5 l0 -193 l216 0 q-8 74 -11.5 152.5 q-3.5 78.5 -3.5 161.5 l117 -13 q-1 -10 -8.5 -18 q-7.5 -8 -26.5 -10 q-1 -70 1.5 -139 q2.5 -69 9.5 -134 l163 0 l52 64 q0 0 17 -12.5 q17 -12.5 40 -30 q23 -17.5 41 -34.5 q-4 -16 -26 -16 l-284 0 q8 -61 20.5 -118.5 q12.5 -57.5 31.5 -107.5 q61 91 95 186 l109 -47 q-4 -9 -12.5 -12.5 q-8.5 -3.5 -28.5 -0.5 q-24 -49 -57 -98.5 q-33 -49.5 -75 -96.5 q24 -43 54.5 -78 q30.5 -35 70.5 -61 q13 -10 19 -9.5 q6 0.5 13 13.5 q10 20 23.5 53 q13.5 33 23.5 64 l11 -3 Z" /><glyph glyph-name="cid18934" unicode="&#x6216;" d="M683 802 l8 10 q67 -2 104 -18.5 q37 -16.5 51 -38 q14 -21.5 10 -40.5 q-4 -19 -20.5 -27 q-16.5 -8 -40.5 3 q-13 31 -46.5 62.5 q-33.5 31.5 -65.5 48.5 ZM529 178 l3 -16 q-73 -24 -176 -57 q-103 -33 -246 -74 q-8 -18 -24 -23 l-50 92 q43 5 119.5 17 q76.5 12 173 28 q96.5 16 200.5 33 ZM203 296 l177 0 l0 185 l-177 0 l0 -185 ZM392 213 l-12 0 l0 53 l-177 0 l0 -52 q0 -5 -20 -15 q-20 -10 -43 -10 l-11 0 l0 355 l79 -34 l163 0 l38 40 l82 -62 q-4 -4 -13.5 -9.5 q-9.5 -5.5 -21.5 -7.5 l0 -235 q-1 -5 -22.5 -14 q-21.5 -9 -41.5 -9 ZM947 159 l-16 -153 q24 -27 29 -41.5 q5 -14.5 -2 -24.5 q-12 -19 -35.5 -19.5 q-23.5 -0.5 -50.5 10 q-27 10.5 -52 25.5 q-55 29 -96 72 q-41 43 -71 97 q-67 -63 -153 -115 q-86 -52 -193 -88 l-9 14 q102 46 184 108.5 q82 62.5 143 137.5 q-37 89 -55.5 198.5 q-18.5 109.5 -24.5 236.5 l-495 0 l-9 29 l503 0 q-2 47 -3 95.5 q-1 48.5 -1 99.5 l117 -14 q-1 -9 -8.5 -17 q-7.5 -8 -27.5 -11 q-1 -39 -0.5 -77 q0.5 -38 1.5 -76 l190 0 l55 68 q0 0 16.5 -13 q16.5 -13 39.5 -32 q23 -19 42 -36 q-4 -16 -27 -16 l-315 0 q4 -103 16.5 -195 q12.5 -92 38.5 -168 q44 66 75.5 136 q31.5 70 51.5 143 l114 -38 q-4 -9 -12.5 -13 q-8.5 -4 -28.5 -3 q-27 -77 -69 -152 q-42 -75 -100 -143 q26 -49 61.5 -87 q35.5 -38 84.5 -63 q13 -8 19.5 -6.5 q6.5 1.5 13.5 14.5 q10 19 23.5 53 q13.5 34 23.5 66 l12 -2 Z" /><glyph glyph-name="cid18990" unicode="&#x2f3e;&#x6237;" d="M437 842 l10 6 q64 -17 97.5 -42.5 q33.5 -25.5 43 -51 q9.5 -25.5 1.5 -45 q-8 -19.5 -27.5 -25 q-19.5 -5.5 -42.5 10.5 q-10 36 -34.5 77.5 q-24.5 41.5 -47.5 69.5 ZM262 395 l518 0 l0 253 l-516 0 l0 -159 q0 -22 -0.5 -45.5 q-0.5 -23.5 -1.5 -48.5 ZM812 722 l88 -68 q-4 -5 -14.5 -11 q-10.5 -6 -24.5 -8 l0 -308 q0 -3 -11.5 -9 q-11.5 -6 -27 -10.5 q-15.5 -4.5 -29.5 -4.5 l-13 0 l0 63 l-520 0 q-6 -75 -26 -154.5 q-20 -79.5 -63 -154.5 q-43 -75 -119 -137 l-13 9 q64 85 95 179 q31 94 41 191 q10 97 10 189 l0 227 l93 -38 l493 0 l41 45 Z" /><glyph glyph-name="cid19032" unicode="&#x2f3f;&#x624b;" d="M812 300 l57 70 q0 0 17.5 -13.5 q17.5 -13.5 42 -32.5 q24.5 -19 44.5 -37 q-4 -16 -28 -16 l-397 0 l0 -233 q0 -31 -9.5 -56 q-9.5 -25 -39.5 -41 q-30 -16 -92 -21 q-2 20 -9.5 35.5 q-7.5 15.5 -21.5 24.5 q-16 11 -42 19 q-26 8 -74 14 l0 15 q0 0 22.5 -1.5 q22.5 -1.5 53.5 -3.5 q31 -2 59 -3.5 q28 -1.5 39 -1.5 q27 0 27 24 l0 229 l-422 0 l-9 29 l431 0 l0 193 l-360 0 l-8 30 l368 0 l0 179 q-89 -10 -182.5 -16 q-93.5 -6 -184.5 -6 l-3 18 q91 9 187.5 24 q96.5 15 189 34 q92.5 19 172 40.5 q79.5 21.5 135.5 43.5 l90 -86 q-7 -6 -21.5 -6 q-14.5 0 -35.5 8 q-55 -12 -121 -23.5 q-66 -11.5 -139 -20.5 l0 -189 l213 0 l55 68 q0 0 17 -13 q17 -13 41 -32 q24 -19 43 -37 q-3 -16 -27 -16 l-342 0 l0 -193 l264 0 Z" /><glyph glyph-name="cid19036" unicode="&#x624d;" d="M806 628 l54 74 q0 0 17 -14.5 q17 -14.5 39.5 -34.5 q22.5 -20 40.5 -39 q-3 -16 -27 -16 l-279 0 l0 -566 q0 -32 -8.5 -56 q-8.5 -24 -36 -38.5 q-27.5 -14.5 -85.5 -20.5 q-3 20 -8 36 q-5 16 -17 25 q-13 11 -35.5 19 q-22.5 8 -61.5 14 l0 15 q0 0 18 -1.5 q18 -1.5 43.5 -3 q25.5 -1.5 48 -3 q22.5 -1.5 31.5 -1.5 q15 0 20.5 5.5 q5.5 5.5 5.5 16.5 l0 467 q-85 -145 -218.5 -268.5 q-133.5 -123.5 -306.5 -207.5 l-10 14 q106 67 198.5 157.5 q92.5 90.5 165 193 q72.5 102.5 117.5 203.5 l-459 0 l-9 30 l522 0 l0 212 l122 -12 q-2 -11 -10.5 -18.5 q-8.5 -7.5 -26.5 -9.5 l0 -172 l155 0 Z" /><glyph glyph-name="cid19075" unicode="&#x6267;" d="M955 145 l-11 -141 q31 -51 13 -70 q-18 -19 -45.5 -11 q-27.5 8 -51.5 30 q-41 35 -65 99 q-24 64 -35 147.5 q-11 83.5 -14 178.5 q-3 95 -2 191 l-123 0 q-4 -59 -10.5 -116 q-6.5 -57 -17.5 -110 q62 -39 89.5 -78.5 q27.5 -39.5 29 -69 q1.5 -29.5 -16 -41.5 q-17.5 -12 -45.5 4 q-11 26 -31 54 q-20 28 -44 55 q-32 -108 -95.5 -197.5 q-63.5 -89.5 -174.5 -149.5 l-12 16 q95 70 145.5 170.5 q50.5 100.5 74.5 221.5 q-26 23 -52.5 43.5 q-26.5 20.5 -52.5 36.5 l10 10 q29 -9 55 -18 q26 -9 49 -20 q7 45 11 92.5 q4 47.5 7 96.5 l-126 0 l-6 20 q-7 -10 -24 -10 l-125 0 l0 -174 q34 12 69 25 q35 13 71 26 l5 -14 q-29 -17 -65 -40 q-36 -23 -80 -50 l0 -329 q0 -30 -6.5 -51.5 q-6.5 -21.5 -28 -34.5 q-21.5 -13 -67.5 -18 q-1 18 -5 32 q-4 14 -12 24 q-7 10 -22.5 16 q-15.5 6 -42.5 10 l0 16 q0 0 11.5 -1 q11.5 -1 27.5 -2 q16 -1 30.5 -2 q14.5 -1 20.5 -1 q11 0 15 4 q4 4 4 14 l0 279 q-19 -11 -38.5 -22.5 q-19.5 -11.5 -40.5 -23.5 q-5 -20 -21 -26 l-45 94 q23 6 60.5 18.5 q37.5 12.5 84.5 29.5 l0 201 l-135 0 l-8 29 l143 0 l0 234 l112 -12 q-2 -11 -10.5 -18.5 q-8.5 -7.5 -26.5 -9.5 l0 -194 l32 0 l42 64 q0 0 12.5 -12 q12.5 -12 30 -29 q17.5 -17 31.5 -33 l134 0 q2 57 3 116 q1 59 1 120 l120 -13 q-2 -11 -10 -18.5 q-8 -7.5 -26 -9.5 q-1 -49 -2.5 -98.5 q-1.5 -49.5 -4.5 -96.5 l112 0 l44 48 l88 -74 q-5 -5 -15.5 -10 q-10.5 -5 -26.5 -7 q-3 -54 -3.5 -116 q-0.5 -62 3.5 -124.5 q4 -62.5 12 -117.5 q8 -55 22.5 -95.5 q14.5 -40.5 36.5 -59.5 q8 -7 11.5 -5 q3.5 2 7.5 11 q8 23 15 48 q7 25 14 51 l12 -2 Z" /><glyph glyph-name="cid19078" unicode="&#x6269;" d="M594 837 l10 7 q66 -15 100 -39.5 q34 -24.5 44 -50.5 q10 -26 2 -46 q-8 -20 -27.5 -26 q-19.5 -6 -43.5 10 q-10 35 -34.5 76 q-24.5 41 -50.5 69 ZM390 429 l5 -13 q-28 -17 -61 -39 q-33 -22 -74 -48 l0 -298 q0 -31 -7.5 -54 q-7.5 -23 -31.5 -37 q-24 -14 -76 -19 q-2 20 -6.5 35 q-4.5 15 -14.5 24 q-11 11 -30 18 q-19 7 -53 12 l0 16 q0 0 15 -1 q15 -1 36 -3 q21 -2 40 -3 q19 -1 27 -1 q14 0 18.5 5 q4.5 5 4.5 15 l0 244 q-21 -13 -42.5 -25 q-21.5 -12 -44.5 -26 q-5 -21 -21 -28 l-43 96 q23 7 62.5 20.5 q39.5 13.5 88.5 30.5 l0 231 l-140 0 l-8 29 l148 0 l0 232 l115 -12 q-2 -10 -10.5 -17.5 q-8.5 -7.5 -26.5 -10.5 l0 -192 l26 0 l45 62 q0 0 14 -12.5 q14 -12.5 33.5 -29.5 q19.5 -17 34.5 -33 q-4 -16 -27 -16 l-126 0 l0 -201 q32 11 65 24 q33 13 65 25 ZM821 664 l51 67 q0 0 16 -13 q16 -13 37.5 -31.5 q21.5 -18.5 38.5 -35.5 q-3 -16 -25 -16 l-424 0 l0 -216 q0 -63 -7 -130 q-7 -67 -29.5 -133.5 q-22.5 -66.5 -68 -127 q-45.5 -60.5 -122.5 -110.5 l-12 11 q70 70 104 149.5 q34 79.5 45 165.5 q11 86 11 174 l0 284 l93 -38 l292 0 Z" /><glyph glyph-name="cid19115" unicode="&#x6280;" d="M384 463 l6 -13 q-27 -17 -60 -39 q-33 -22 -73 -48 l0 -337 q0 -31 -7 -53 q-7 -22 -29.5 -35 q-22.5 -13 -70.5 -18 q-1 18 -5.5 32.5 q-4.5 14.5 -13.5 23.5 q-10 10 -27.5 17 q-17.5 7 -47.5 11 l0 15 q0 0 13.5 -1 q13.5 -1 32 -2 q18.5 -1 35 -2 q16.5 -1 23.5 -1 q21 0 21 19 l0 283 q-22 -14 -45.5 -28.5 q-23.5 -14.5 -49.5 -29.5 q-3 -19 -20 -27 l-42 97 q23 7 64 22 q41 15 93 34 l0 198 l-134 0 l-8 29 l142 0 l0 232 l113 -12 q-1 -11 -9.5 -18.5 q-8.5 -7.5 -27.5 -9.5 l0 -192 l26 0 l44 62 q0 0 14 -12 q14 -12 32.5 -29.5 q18.5 -17.5 33.5 -33.5 q-4 -16 -26 -16 l-124 0 l0 -168 q31 12 63 24.5 q32 12.5 64 25.5 ZM789 420 l-294 0 q25 -73 66 -134 q41 -61 93 -110 q91 106 135 244 ZM840 498 l84 -78 q-9 -12 -42 -15 q-30 -78 -73 -146.5 q-43 -68.5 -102 -126.5 q59 -45 128.5 -77.5 q69.5 -32.5 145.5 -54.5 l-2 -11 q-55 -8 -77 -67 q-73 30 -135.5 70.5 q-62.5 40.5 -113.5 92.5 q-69 -55 -157 -96.5 q-88 -41.5 -201 -68.5 l-8 15 q101 35 182 84.5 q81 49.5 143 111.5 q-93 116 -138 289 l-60 0 l-9 29 l205 0 l0 178 l-216 0 l-8 28 l224 0 l0 180 l117 -11 q-1 -11 -9 -18 q-8 -7 -28 -11 l0 -140 l128 0 l52 67 q0 0 16 -13 q16 -13 38.5 -31 q22.5 -18 39.5 -35 q-4 -16 -26 -16 l-248 0 l0 -178 l97 0 l53 49 Z" /><glyph glyph-name="cid19131" unicode="&#x628a;" d="M629 714 l-138 0 l0 -306 l138 0 l0 306 ZM838 714 l-134 0 l0 -306 l134 0 l0 306 ZM927 183 l2 -145 q22 -7 30 -15 q8 -8 8 -20 q0 -20 -20.5 -32 q-20.5 -12 -77.5 -17 q-57 -5 -165 -5 l-150 0 q-79 0 -109.5 19.5 q-30.5 19.5 -30.5 77.5 l0 560 q-4 -12 -25 -12 l-125 0 l0 -202 q35 9 71 18.5 q36 9.5 72 19.5 l4 -14 q-29 -15 -65.5 -34 q-36.5 -19 -81.5 -42 l0 -314 q0 -31 -7 -53 q-7 -22 -30 -35 q-23 -13 -72 -18 q-1 18 -5 32.5 q-4 14.5 -13 23.5 q-10 10 -27.5 17 q-17.5 7 -47.5 11 l0 15 q0 0 13.5 -1 q13.5 -1 32 -2 q18.5 -1 35.5 -2 q17 -1 23 -1 q21 0 21 19 l0 271 q-21 -10 -44 -21 q-23 -11 -47 -22 q-6 -19 -23 -24 l-42 100 q24 5 64.5 14 q40.5 9 91.5 22 l0 222 l-140 0 l-8 29 l148 0 l0 219 l114 -12 q-2 -11 -10.5 -18.5 q-8.5 -7.5 -26.5 -9.5 l0 -179 l27 0 l45 62 q0 0 13.5 -12 q13.5 -12 32 -29 q18.5 -17 32.5 -33 l0 169 l90 -36 l325 0 l35 45 l90 -68 q-5 -6 -14 -10.5 q-9 -4.5 -24 -6.5 l0 -376 q0 -5 -18.5 -14.5 q-18.5 -9.5 -47.5 -9.5 l-12 0 l0 74 l-347 0 l0 -313 q0 -22 13.5 -31.5 q13.5 -9.5 58.5 -9.5 l145 0 q49 0 84 1 q35 1 51 3 q21 1 29 15 q8 12 19 50 q11 38 23 90 l13 0 Z" /><glyph glyph-name="cid19256" unicode="&#x62df;" d="M527 796 l13 5 q70 -50 106 -100 q36 -50 46 -92.5 q10 -42.5 1.5 -70 q-8.5 -27.5 -28.5 -33.5 q-20 -6 -44 16 q-3 44 -18 93.5 q-15 49.5 -35.5 96.5 q-20.5 47 -40.5 85 ZM374 452 l5 -12 q-26 -17 -58.5 -38.5 q-32.5 -21.5 -72.5 -46.5 l0 -326 q0 -30 -7 -52.5 q-7 -22.5 -30 -36.5 q-23 -14 -72 -19 q-1 19 -5.5 34.5 q-4.5 15.5 -13.5 24.5 q-19 21 -77 29 l0 16 q0 0 14 -1 q14 -1 33 -2.5 q19 -1.5 36.5 -2.5 q17.5 -1 24.5 -1 q13 0 17.5 4.5 q4.5 4.5 4.5 15.5 l0 271 q-19 -11 -39 -23 q-20 -12 -42 -25 q-3 -20 -21 -27 l-40 95 q22 7 59 19 q37 12 83 29 l0 208 l-125 0 l-8 29 l133 0 l0 228 l112 -12 q-1 -10 -9.5 -17.5 q-8.5 -7.5 -27.5 -9.5 l0 -189 l23 0 l42 59 q0 0 13 -11.5 q13 -11.5 30.5 -28 q17.5 -16.5 31.5 -32.5 q-4 -16 -26 -16 l-114 0 l0 -180 q31 11 62.5 23 q31.5 12 63.5 24 ZM689 313 l8 -13 q-37 -34 -103.5 -93.5 q-66.5 -59.5 -147.5 -124.5 q-5 -13 -12 -20.5 q-7 -7.5 -14 -11.5 l-55 96 q22 13 27.5 21 q5.5 8 5.5 23 l0 533 l113 -13 q-2 -11 -10.5 -18 q-8.5 -7 -27.5 -10 l0 -495 q46 26 102 58.5 q56 32.5 114 67.5 ZM804 800 l118 -13 q-2 -10 -10 -17.5 q-8 -7.5 -26 -9.5 q-1 -111 -4.5 -211 q-3.5 -100 -20 -188.5 q-16.5 -88.5 -58.5 -165.5 q68 -46 103.5 -89.5 q35.5 -43.5 47 -80 q11.5 -36.5 5 -60 q-6.5 -23.5 -25 -28.5 q-18.5 -5 -41.5 14 q-12 49 -42.5 106.5 q-30.5 57.5 -63.5 107.5 q-46 -74 -126 -137 q-80 -63 -207 -114 l-12 17 q115 59 185.5 128.5 q70.5 69.5 108 150 q37.5 80.5 52 172.5 q14.5 92 16 196.5 q1.5 104.5 1.5 221.5 Z" /><glyph glyph-name="cid19312" unicode="&#x6307;" d="M399 581 l-134 0 l0 -186 q37 11 75.5 23.5 q38.5 12.5 77.5 25.5 l5 -14 q-31 -18 -71 -39.5 q-40 -21.5 -87 -46.5 l0 -317 q0 -30 -7 -52 q-7 -22 -30 -35.5 q-23 -13.5 -71 -18.5 q-2 19 -6 33 q-4 14 -14 24 q-10 10 -28 16.5 q-18 6.5 -49 10.5 l0 16 q0 0 14 -1 q14 -1 33.5 -2 q19.5 -1 36.5 -2 q17 -1 24 -1 q12 0 16.5 4 q4.5 4 4.5 14 l0 271 q-24 -12 -50 -25 q-26 -13 -54 -27 q-7 -20 -23 -26 l-37 100 q25 5 67.5 17.5 q42.5 12.5 96.5 28.5 l0 209 l-140 0 l-8 29 l148 0 l0 231 l113 -12 q-1 -10 -9.5 -17.5 q-8.5 -7.5 -27.5 -9.5 l0 -192 l33 0 l46 65 q0 0 14 -12.5 q14 -12.5 33 -30.5 q19 -18 34 -35 q-3 -16 -26 -16 ZM534 23 l287 0 l0 138 l-287 0 l0 -138 ZM821 324 l-287 0 l0 -134 l287 0 l0 134 ZM811 353 l41 45 l90 -67 q-5 -6 -16 -12 q-11 -6 -27 -9 l0 -360 q0 -3 -11 -9 q-11 -6 -26 -10.5 q-15 -4.5 -28 -4.5 l-13 0 l0 68 l-287 0 l0 -50 q0 -5 -20.5 -15.5 q-20.5 -10.5 -45.5 -10.5 l-12 0 l0 472 l83 -37 l272 0 ZM925 627 l3 -99 q20 -6 27 -13.5 q7 -7.5 7 -18.5 q0 -14 -9.5 -23 q-9.5 -9 -35 -14.5 q-25.5 -5.5 -73.5 -8 q-48 -2.5 -125 -2.5 l-147 0 q-49 0 -75.5 6 q-26.5 6 -36 22.5 q-9.5 16.5 -9.5 47.5 l0 313 l106 -11 q-3 -20 -31 -24 l0 -161 q58 22 115 49 q57 27 105.5 55.5 q48.5 28.5 80.5 53.5 l94 -72 q-15 -15 -53 -2 q-63 -29 -154 -59 q-91 -30 -188 -49 l0 -78 q0 -13 9 -17.5 q9 -4.5 46 -4.5 l143 0 q44 0 79 0.5 q35 0.5 48 1.5 q21 1 28 11 q7 11 15.5 36.5 q8.5 25.5 18.5 60.5 l12 0 Z" /><glyph glyph-name="cid19532" unicode="&#x638c;" d="M200 827 l9 8 q66 -14 100.5 -38 q34.5 -24 44.5 -50 q10 -26 2 -46 q-8 -20 -27.5 -26 q-19.5 -6 -42.5 11 q-4 38 -30.5 77 q-26.5 39 -55.5 64 ZM827 644 l-648 0 q5 -49 -11.5 -83 q-16.5 -34 -39.5 -48 q-20 -13 -43.5 -10 q-23.5 3 -31.5 24 q-7 20 3.5 36 q10.5 16 28.5 26 q26 14 45.5 51 q19.5 37 13.5 81 l17 1 q10 -27 14 -49 l284 0 l0 173 l114 -12 q0 -10 -7.5 -16.5 q-7.5 -6.5 -26.5 -9.5 l0 -135 l96 0 q20 37 42.5 82 q22.5 45 36.5 82 l119 -35 q-7 -21 -38 -18 q-25 -25 -60 -55 q-35 -30 -71 -56 l156 0 l49 50 l87 -84 q-10 -10 -39 -11 q-17 -22 -46 -50 q-29 -28 -54 -47 l-12 7 q5 22 11.5 51 q6.5 29 10.5 55 ZM324 442 l350 0 l0 102 l-350 0 l0 -102 ZM687 392 l-13 0 l0 21 l-350 0 l0 -23 q0 -5 -21.5 -14.5 q-21.5 -9.5 -45.5 -9.5 l-11 0 l0 243 l83 -36 l336 0 l39 41 l87 -63 q-4 -5 -14 -11 q-10 -6 -24 -8 l0 -119 q0 -3 -11.5 -8 q-11.5 -5 -26.5 -9 q-15 -4 -28 -4 ZM814 133 l51 57 q0 0 16 -11.5 q16 -11.5 38.5 -27.5 q22.5 -16 40.5 -32 q-4 -16 -27 -16 l-396 0 l0 -88 q0 -27 -8.5 -47.5 q-8.5 -20.5 -35 -32.5 q-26.5 -12 -80.5 -16 q-2 15 -8 27.5 q-6 12.5 -18 19.5 q-12 8 -35.5 14.5 q-23.5 6.5 -64.5 11.5 l0 14 q0 0 19 -1 q19 -1 45 -3 q26 -2 50 -3 q24 -1 33 -1 q15 0 20 4.5 q5 4.5 5 14.5 l0 86 l-404 0 l-9 30 l413 0 l0 70 l-294 0 l-8 29 l302 0 l0 72 q-77 -4 -157 -4.5 q-80 -0.5 -156 0.5 l-3 20 q78 3 163 10.5 q85 7.5 167.5 17 q82.5 9.5 154.5 20.5 q72 11 125 22 l65 -69 q-14 -12 -51 3 q-50 -5 -108.5 -9.5 q-58.5 -4.5 -121.5 -8.5 l0 -74 l172 0 l48 55 q0 0 15 -11 q15 -11 35.5 -26.5 q20.5 -15.5 38.5 -30.5 q-4 -16 -27 -16 l-282 0 l0 -70 l277 0 Z" /></font>
</defs>
</svg>
